<?xml version="1.0" encoding="utf-8"?>
<!-- Generator: Adobe Illustrator 20.0.0, SVG Export Plug-In . SVG Version: 6.00 Build 0)  -->
<svg version="1.1" id="Layer_1" xmlns="http://www.w3.org/2000/svg" xmlns:xlink="http://www.w3.org/1999/xlink" x="0px" y="0px"
	 viewBox="0 0 700 700" style="enable-background:new 0 0 700 700;" xml:space="preserve">
<g>
	<g>
		<path id="word" style="fill:#231F20;" d="M69.3,234c6.8,48.8,22.7,96,46.7,139.1c1.3-1,2.6-2,3.9-3c-19.6-15.8-22.6-45.1-5.2-63.9
			c3.5-3.8,8.2-6.3,11.5-10.2c2.9-3.6,3.4-7.9,2.7-12.3c-1.8-13.2-5.7-26.5-9.6-39.2c-0.9-3.1-5.4-1.8-4.8,1.3
			c8.3,41.6,17.6,83,27.7,124.1c0.8,3.1,5.6,1.8,4.8-1.3c-1.4-5.7-2.7-11.4-4.1-17.1c-0.7-2.9-1.4-5.7-2-8.6c-0.6-2.5-2.1-6-2-8.6
			c0.1-5,4.6-4.1,8.1-4.4c2.9-0.3,5.9-0.5,8.8-0.8c5.2-0.5,10.6-0.5,15.7-1.7c7.3-1.8,11.2-8.1,10.2-15.4
			c-1.1-8.7-8.3-14.2-14.9-18.9c-1.2-0.8-2.7-0.1-3.4,0.9c-7.7,10.6-8.5,24.2-5.8,36.7c2.3,10.3,7.5,22.9,18.5,26.5
			c12,3.8,23.7-5.7,29.4-15.5c6.2-10.7,7.3-23.9,2.8-35.5c-1-2.6-4.8-2.3-4.9,0.7c-0.3,6.9-0.7,13.8-1,20.7
			c-0.2,4.8-1.4,10.7,0.6,15.3c3.9,9.2,13.9,4.1,18.1-1.9c6.6-9.6,9.4-22,13.8-32.7c2.5-6.1,5.5-12.6,9.9-17.6
			c4.4-4.9,12.1-8.6,17.5-2.9c0-1.2,0-2.4,0-3.5c-2.8,2.2-8.4-1.5-11.3-2.1c-3-0.7-6-0.4-8.8,0.6c-6,2.2-10.4,7.6-13.2,13.1
			c-6.1,11.9-7.2,29.6,1.7,40.5c8,9.8,23.3,12.2,31.8,1.8c4.3-5.2,6-12.1,7.3-18.6c1.8-9.1,3.1-18.3,4.1-27.6
			c2.5-22.6,2.6-45.3,0.6-67.9c-0.1-1.5-1.5-2.9-3.2-2.4c-10.9,3.4-11.7,16.7-11.6,26.3c0.1,13.3,2.6,26.6,7.2,39.1
			c4.5,12.2,10.9,23.7,19.1,33.9c4.8,6,18.1,24.1,26.5,13.6c4.1-5.2,4.9-13.8,5.5-20.2c0.8-8.7-0.1-17.4-2.4-25.8
			c-0.8-2.8-4.7-2.1-4.9,0.7c-0.8,11.5-1.2,23.8,1.1,35.2c1.7,8.3,8.3,12.6,16.5,12.7c18.7,0.4,34.2-17.7,53.1-13.7
			c3.1,0.7,4.5-4.2,1.3-4.8c-16-3.4-29.2,7.2-43.8,11.7c-8.4,2.6-20,3.5-22.3-7.3c-2.2-10.9-1.7-22.9-0.9-33.9
			c-1.6,0.2-3.3,0.4-4.9,0.7c2.1,7.7,2.9,15.6,2.3,23.6c-0.3,4.4-1.9,23.2-9.8,18.1c-5.3-3.4-9.9-9.3-13.8-14.2
			c-4.3-5.4-8-11.2-11.3-17.2c-6.2-11.6-10.4-24.3-12.4-37.3c-1-6.5-1.4-13.1-1.1-19.7c0.2-6,1.1-14.6,7.9-16.7
			c-1.1-0.8-2.1-1.6-3.2-2.4c1.8,20.7,1.9,41.4,0,62.1c-1,10.7-2.5,21.5-4.5,32c-1.4,7.2-3.3,16.1-10.2,20.1
			c-7.6,4.4-17.2-0.2-21.5-7c-5-7.7-4.6-18.3-2.3-26.9c2-7.2,7.6-17.3,16.1-17.7c6.8-0.3,12.4,6.2,18.8,1.1c1.1-0.9,0.9-2.6,0-3.5
			c-5.8-6.1-15-5.2-21.3-0.2c-8.2,6.5-12.4,17.4-16.1,26.9c-2.1,5.5-4,11.2-6.3,16.6c-1.8,4.2-4.8,13.6-9.9,14.9
			c-7.5,1.9-5-11.5-4.8-15.8c0.3-6.6,0.6-13.1,0.9-19.7c-1.6,0.2-3.3,0.4-4.9,0.7c3.6,9.4,3.4,19.9-1,29.1
			c-4.4,9.2-15.8,20.7-26.9,15c-8.6-4.4-12.1-15.7-13.6-24.5c-1.9-10.6-0.7-21.7,5.7-30.6c-1.1,0.3-2.3,0.6-3.4,0.9
			c3.8,2.8,8,5.7,10.5,9.7c2.5,4.1,3.4,10.5-0.9,13.8c-3.9,3-10.5,2.5-15.1,3c-5.5,0.5-11.1,0.9-16.6,1.5c-7.7,0.9-9.3,5.1-7.6,12.2
			c2.5,10.8,5.1,21.6,7.7,32.4c1.6-0.4,3.2-0.9,4.8-1.3c-10.2-41.2-19.4-82.5-27.7-124.1c-1.6,0.4-3.2,0.9-4.8,1.3
			c2.1,6.8,4,13.7,5.6,20.7c1.6,6.6,4.2,14.2,4.1,21c-0.2,6.6-7.3,9.6-11.4,13.6c-4,3.9-7.3,8.5-9.8,13.5
			c-9.9,20.4-4.2,44.9,13.4,59.1c2.1,1.7,5.4-0.4,3.9-3c-23.8-42.7-39.4-89.5-46.2-137.9C73.6,229.5,68.8,230.8,69.3,234L69.3,234z"
			/>
	</g>
</g>
<g>
	<g>
		<path id="firstdot" style="fill:#231F20;" d="M315.1,249.9c-1.3,2.3-1,5,0.8,7c2.1,2.5,5.5,2.9,8.5,2.9c2.6,0,5.4-0.3,7-2.5
			c1.9-2.5,1.1-5.6,0-8.3c-2-4.9-5.7-10.8-12-9.4c-5.9,1.3-8.4,8.2-4.9,13c1.9,2.6,6.2,0.1,4.3-2.5c-1.5-2.1-1.2-5.4,2-5.7
			c2.5-0.2,3.9,2.3,4.9,4.2c1,1.8,3.1,5.4,0.2,6.2c-1.3,0.4-7.9,0-6.6-2.4C320.9,249.6,316.6,247.1,315.1,249.9L315.1,249.9z"/>
	</g>
</g>
<g>
	<g>
		<path id="seconddot" style="fill:#231F20;" d="M199.1,267.8c3,4.7,8.8,6.7,14.1,5c5.4-1.7,9.8-8.2,5.8-13.4c-3.5-4.5-11.7-5.4-16.7-3.5
			c-5.3,2.1-7.3,9.1-2.4,12.7c2.6,1.9,5.1-2.4,2.5-4.3c-1.2-0.9,0.1-2.8,0.9-3.4c1.4-1,3.6-1,5.3-0.9c2.1,0.1,6.2,0.6,6.8,3.1
			c0.8,3.1-3.3,5-5.7,5.1c-2.6,0.1-5.1-0.9-6.5-3.1C201.7,262.6,197.4,265.1,199.1,267.8L199.1,267.8z"/>
	</g>
</g>
</svg>
