<?xml version="1.0" encoding="utf-8"?>
<!-- Generator: Adobe Illustrator 20.0.0, SVG Export Plug-In . SVG Version: 6.00 Build 0)  -->
<svg version="1.1" id="Layer_1" xmlns="http://www.w3.org/2000/svg" xmlns:xlink="http://www.w3.org/1999/xlink" x="0px" y="0px"
	 viewBox="0 0 576 288" style="enable-background:new 0 0 576 288;" xml:space="preserve">
<g>
	<path style="fill:#939598;" d="M395.5,155.6c0,0.1,0,0.1-0.1,0.1c-0.7-0.3-4.7-1.6-7.2-2.4c-0.1,0.2-0.2,0.4-0.4,0.5
		c0.6,0.2,1.5,0.5,2.6,0.8c2,0.6,4.2,1.3,4.7,1.6c0.7,0.4,6.5,5.8,10.4,9.4c4.1,3.8,5.5,4.7,5.9,4.9c0.3,0.2,0.6,0.3,0.9,0.3l0.2,0
		c-0.2,0-0.4,0-0.5-0.2C411.4,170.3,400.5,160.4,395.5,155.6"/>
	<path style="fill:#808285;" d="M388.3,153.4c2.5,0.8,6.5,2,7.2,2.4c0.1,0,0.1,0,0.1-0.1c-1-0.9-1.7-1.7-2.1-2.1
		c-0.5-0.2-2.2-1.1-3.8-2c-0.1,0.1-0.3,0.2-0.4,0.3C388.5,152.3,388.4,152.9,388.3,153.4"/>
	<path style="fill:#F1F2F2;" d="M398,146.7c-1.4,1.1-5.9,3.1-8.4,4.8c1.6,0.9,3.3,1.7,3.8,2c0.4,0.4,1.2,1.2,2.1,2.1
		c5,4.8,15.8,14.7,16.5,15.1c0.2,0.1,0.4,0.2,0.5,0.2l0.1,0l0.1,0c0.4-0.1,0.8-0.6,0.8-0.9c0-0.4-12.9-23.1-13.4-23.5
		c-0.1-0.1-1.4-0.4-3-0.8c0.4,0.2,0.7,0.3,1,0.4C398.7,146.4,398.3,146.4,398,146.7 M400.5,148.1c2.7,4.5,13,22,12.6,22.6
		c-0.5,0.7-14.4-16.1-15.1-17.5c-0.7-1.3,2.2-2.2,2.1-5.1C400,147.8,400.1,147.5,400.5,148.1"/>
	<path style="fill:#F6F3EF;" d="M386.8,153.6c0,0.2-0.1,0.3-0.1,0.5c0.1,0,0.2,0,0.3,0c0.4,0,0.6-0.1,0.8-0.2
		C387.4,153.8,387.1,153.7,386.8,153.6"/>
	<path style="fill:#939598;" d="M388.3,153.4c-0.5-0.2-1-0.3-1.3-0.4l0,0c0,0.2-0.1,0.4-0.1,0.6c0.3,0.1,0.6,0.2,1.1,0.4
		C388.1,153.8,388.2,153.6,388.3,153.4"/>
	<path style="fill:#979898;" d="M386.9,152.9L386.9,152.9L386.9,152.9c0,0.2-0.1,0.4-0.1,0.6c0.3,0.1,0.6,0.2,1.1,0.4
		c0.2-0.1,0.3-0.3,0.4-0.5C387.7,153.2,387.3,153,386.9,152.9"/>
	<path style="fill:#808285;" d="M386.9,152.9c0.3,0.1,0.8,0.3,1.3,0.4c0.2-0.4,0.3-1,1-1.6c0.1-0.1,0.2-0.2,0.4-0.3
		c-0.7-0.4-1.4-0.7-1.9-1.1c-0.2,0.2-0.3,0.5-0.5,0.7c-0.1,0.5-0.3,1-0.4,1.5C386.9,152.8,386.9,152.9,386.9,152.9"/>
	<path style="fill:#878888;" d="M387.7,150.5c-0.2,0.2-0.3,0.5-0.5,0.7c-0.1,0.5-0.3,1-0.4,1.5c0.1,0.1,0.1,0.2,0.1,0.2
		c0.3,0.1,0.8,0.3,1.3,0.4c0.2-0.4,0.3-1,1-1.6c0.1-0.1,0.2-0.2,0.4-0.3C388.9,151.1,388.3,150.8,387.7,150.5"/>
	<path style="fill:#F1F2F2;" d="M398,146.7c0.3-0.3,0.6-0.3,0.2-0.5c0.3,0.1-4.4,0.2-8,1.2c-0.9,1-1.7,2.1-2.5,3.1
		c0.6,0.3,1.3,0.7,1.9,1.1C392.1,149.8,396.6,147.7,398,146.7"/>
	<path style="fill:#E9E7E4;" d="M398.2,146.2C398.2,146.2,398.2,146.2,398.2,146.2L398.2,146.2L398.2,146.2L398.2,146.2
		c0,0.1-4.5,0.3-8,1.2c-0.9,1-1.7,2.1-2.5,3.1c0.6,0.3,1.3,0.7,1.9,1.1c2.5-1.8,7-3.8,8.4-4.8c0.2-0.2,0.4-0.2,0.4-0.3
		C398.4,146.3,398.4,146.2,398.2,146.2"/>
	<path style="fill:#E5E3E0;" d="M393.5,144.2c-0.2,0.2-0.4,0.3-0.7,0.5c1.5,0.3,3,0.7,4.3,1C396.1,145.3,394.8,144.7,393.5,144.2"/>
	<path style="fill:#F1F2F2;" d="M390.2,147.3c3.6-0.9,8.3-1,8-1.2c-0.3-0.1-0.7-0.3-1-0.4c-1.3-0.3-2.9-0.6-4.3-1
		C391.9,145.5,391,146.4,390.2,147.3"/>
	<path style="fill:#DCDBD9;" d="M392.8,144.8c-0.9,0.7-1.8,1.6-2.6,2.6c3.5-0.9,8-1,8-1.2c0,0,0,0,0,0c-0.3-0.1-0.7-0.3-1-0.4l0,0
		C395.9,145.4,394.3,145.1,392.8,144.8L392.8,144.8"/>
	<path style="fill:#F1F2F2;" d="M397.9,153.2c0.7,1.4,14.6,18.3,15.1,17.5c0.4-0.6-9.9-18.2-12.6-22.6c-0.4-0.6-0.5-0.3-0.5,0
		C400.1,151,397.3,151.9,397.9,153.2"/>
	<path style="fill:#E9E7E4;" d="M400.1,147.7C400.1,147.7,400.1,147.7,400.1,147.7c-0.1,0-0.1,0.2-0.1,0.3c0,0,0,0,0,0
		c0,0,0,0.1,0,0.1l0,0c0,2.5-2.2,3.5-2.2,4.6c0,0.1,0,0.3,0.1,0.4c0.7,1.4,14,17.5,15.1,17.5c0,0,0,0,0,0c0,0,0,0,0-0.1
		c0-1.2-10-18.2-12.6-22.6c0,0,0,0,0,0c0,0,0,0,0,0c0,0,0,0,0,0C400.3,147.8,400.2,147.7,400.1,147.7"/>
	<path style="fill:#6D6E71;" d="M300,221.3c-1.9,14.2-10,46.4-13.2,58.3c3-1.7,5-2.8,5.1-3c0.6-0.8,9.2-33.9,13.1-54.2
		c0.3-1.7-1.9-6.3-4.1-10.8c-3.3-5.4-7.3-11.8-10.9-17.6C295.2,206.7,300,221.3,300,221.3z"/>
	<path style="fill:#939598;" d="M285.5,268.6c-0.3,0.4-16.4,5.1-33.8,9.7c0.1,0,0.2,0.1,0.3,0.1c-0.1,0.1-0.2,0.2-0.4,0.3
		c5.4,1.8,14,4.5,21.8,7l0.1,0c0.5,0.2,1.1,0.4,1.6,0.5c0.1,0,0.2,0.1,0.3,0.1c0.5,0.2,0.9,0.3,1.4,0.5c0.1,0,0.2,0.1,0.3,0.1
		c0.5,0.2,1,0.3,1.5,0.5l0.2,0.1c0.2,0.1,0.3,0.1,0.5,0.2c3.6-2,5.9-3.3,6.1-3.5c0.1-0.2,0.6-1.8,1.3-4.5
		c3.3-11.9,11.3-44.1,13.2-58.3C297.7,238.6,286.1,267.6,285.5,268.6z"/>
	<path style="fill:#808285;" d="M280.6,180.4c-0.1,0.3-0.3,0.5-0.4,0.8c-0.1,0.2-0.3,0.4-0.4,0.6c-0.2,0.3-0.3,0.5-0.5,0.8
		c-0.1,0.2-0.3,0.4-0.4,0.6c-0.2,0.3-0.3,0.6-0.5,0.9c-0.1,0.2-0.3,0.4-0.4,0.7c-0.2,0.3-0.3,0.6-0.5,0.8c-0.1,0.2-0.3,0.5-0.4,0.7
		c-0.2,0.3-0.3,0.6-0.5,0.9c-0.1,0.2-0.3,0.5-0.4,0.7c-0.2,0.3-0.4,0.6-0.6,0.9c-0.1,0.2-0.3,0.5-0.4,0.7c-0.2,0.3-0.4,0.7-0.6,1
		c-0.1,0.2-0.2,0.4-0.4,0.6c-0.2,0.4-0.5,0.8-0.7,1.2c-0.1,0.2-0.2,0.4-0.3,0.5c-0.3,0.5-0.6,0.9-0.9,1.4c-0.1,0.1-0.1,0.2-0.2,0.3
		c-0.4,0.6-0.7,1.2-1.1,1.8l0,0.1c-0.4,0.6-0.7,1.2-1.1,1.7c-0.1,0.1-0.2,0.3-0.3,0.4c-0.3,0.5-0.6,0.9-0.8,1.4
		c-0.2,0.3-0.4,0.6-0.5,0.9c-0.2,0.3-0.4,0.6-0.6,0.9c-0.2,0.3-0.3,0.6-0.5,0.8c-0.2,0.3-0.4,0.7-0.6,1c-0.2,0.3-0.3,0.5-0.5,0.8
		c-0.2,0.4-0.4,0.7-0.7,1.1c-0.2,0.3-0.4,0.6-0.5,0.9c-0.2,0.3-0.4,0.7-0.6,1c-0.2,0.3-0.4,0.6-0.6,0.9c-0.2,0.3-0.4,0.6-0.6,0.9
		c-0.2,0.3-0.4,0.6-0.6,1c-0.2,0.3-0.4,0.6-0.6,1c-0.2,0.3-0.4,0.6-0.6,1c-0.2,0.3-0.4,0.6-0.6,0.9c-0.2,0.3-0.4,0.7-0.6,1
		c-0.2,0.3-0.4,0.6-0.6,0.9c-0.2,0.3-0.4,0.7-0.6,1c-0.2,0.3-0.3,0.5-0.5,0.8c-0.2,0.4-0.5,0.7-0.7,1.1c-0.2,0.3-0.3,0.5-0.5,0.8
		c-0.2,0.4-0.5,0.7-0.7,1.1c-0.2,0.3-0.3,0.5-0.5,0.8c-0.2,0.4-0.5,0.8-0.7,1.1c-0.2,0.2-0.3,0.5-0.5,0.7c-0.2,0.3-0.3,0.5-0.5,0.8
		c2.2,9.3,4.5,18.2,4.1,19.7c-0.6,2.6-9.3,31.2-10.3,34.1c0.7,0.3,2,0.7,3.7,1.2c17.3-4.6,33.5-9.2,33.8-9.7
		c0.6-1,12.2-29.9,14.6-47.3c0,0-4.9-14.6-9.9-27.4c-4-6.5-7.4-12.2-8.8-14.6c-0.1,0.1-0.2,0.3-0.3,0.5
		C280.9,180,280.8,180.2,280.6,180.4z"/>
	<path style="fill:#808285;" d="M253.7,226.1c-0.1-0.5-0.2-1.1-0.3-1.6l-0.1,0.2C253.4,225.1,253.6,225.6,253.7,226.1"/>
	<path style="fill:#A7A9AC;" d="M245.9,277.4c-0.1-4.5,10-25.4,10.3-35.9c-0.2-1-0.4-2.1-0.5-3.1c0.1,1.1,0.1,1.9-0.1,2.1
		c-7.5,5.9-13.4,10.1-18.2,13.1c-2.7,7.6-5.5,15.1-6.7,16.2c-1.6,1.5-9.4,12.3-24.7,18.3h34c3-2.9,5.9-5.6,8.8-8.2
		C247.3,279.5,246.3,278.7,245.9,277.4"/>
	<path style="fill:#A7A9AC;" d="M253,225.1c0.5,1.9,1.1,4.7,1.7,7.5c-0.4-2.2-0.7-4.4-1.1-6.5c-0.1-0.5-0.2-1-0.4-1.5
		C253.2,224.7,253.1,224.9,253,225.1"/>
	<path style="fill:#A7A9AC;" d="M249.8,280c-2.3,2.4-4.9,5.2-7.6,8.1h23.4C257.5,284.4,250.8,281.3,249.8,280z"/>
	<path style="fill:#A7A9AC;" d="M253,225.1c-0.1,0.1-0.2,0.3-0.3,0.4c-0.1,0.2-0.3,0.4-0.4,0.7c-0.3,0.4-0.5,0.8-0.7,1.2
		c-0.1,0.2-0.2,0.4-0.4,0.6c-2.2,3.3-4.3,6.6-6.3,9.7c-0.1,0.1-0.1,0.2-0.2,0.3c-0.3,0.5-0.7,1.1-1,1.6l0,0c-0.3,0.5-0.6,1-0.9,1.4
		l-0.2,0.2c-0.3,0.4-0.6,0.9-0.9,1.3c-0.1,0.1-0.1,0.2-0.2,0.3c-0.3,0.4-0.5,0.8-0.8,1.2l-0.2,0.2c-0.9,2.8-2,6.1-3.2,9.4
		c4.7-3,10.7-7.2,18.2-13.1c0.2-0.2,0.2-0.9,0.1-2.1c-0.3-2-0.7-3.9-1-5.9C254.2,229.8,253.5,226.9,253,225.1"/>
	<path style="fill:#919396;" d="M253,225.1c-0.1,0.1-0.2,0.3-0.3,0.4c-0.1,0.2-0.3,0.4-0.4,0.7c-0.3,0.4-0.5,0.8-0.7,1.2
		c-0.1,0.2-0.2,0.4-0.4,0.6c-2.2,3.3-4.3,6.6-6.3,9.7c-0.1,0.1-0.1,0.2-0.2,0.3c-0.3,0.5-0.7,1.1-1,1.6l0,0c-0.3,0.5-0.6,1-0.9,1.4
		l-0.2,0.2c-0.3,0.4-0.6,0.9-0.9,1.3c-0.1,0.1-0.1,0.2-0.2,0.3c-0.3,0.4-0.5,0.8-0.8,1.2l-0.2,0.2c-0.9,2.8-2,6.1-3.2,9.4
		c4.7-3,10.7-7.2,18.2-13.1c0.1-0.1,0.2-0.5,0.2-1c0-0.3,0-0.7-0.1-1.1c-0.3-2-0.7-3.9-1-5.9l0,0C254.2,229.8,253.5,226.9,253,225.1
		L253,225.1"/>
	<path style="fill:#BCBEC0;" d="M258.3,242.9c0.4-1.5-1.9-10.4-4.1-19.7c-0.1,0.1-0.2,0.3-0.2,0.4c-0.1,0.2-0.3,0.5-0.4,0.7
		l-0.1,0.1c0.1,0.5,0.2,1.1,0.3,1.6c0.3,2.1,0.7,4.3,1.1,6.5c0.3,1.9,0.6,3.9,1,5.9c0.2,1,0.4,2.1,0.5,3.1
		c-0.3,10.5-10.4,31.4-10.3,35.9c0.4,1.3,1.3,2.1,2.9,2.5l0.2-0.2c0.5-0.5,2.7-1,2.7-1c0.1-0.1,0.2-0.2,0.4-0.3
		c-0.1,0-0.2-0.1-0.3-0.1c-1.7-0.5-3-1-3.7-1.2C249,274.2,257.7,245.5,258.3,242.9z"/>
	<path style="fill:#BCBEC0;" d="M278.7,287.4c-0.5-0.2-1-0.3-1.5-0.5c-0.1,0-0.2-0.1-0.3-0.1c-0.5-0.2-0.9-0.3-1.4-0.5
		c-0.1,0-0.2-0.1-0.3-0.1c-0.5-0.2-1.1-0.3-1.6-0.5l-0.1,0c-7.8-2.5-16.4-5.3-21.8-7c0.4,0.1-2.3,1.2-1.8,1.4
		c1,1.3,7.7,4.3,15.7,8.1h15.3c-0.5-0.2-1-0.3-1.5-0.5c-0.2-0.1-0.3-0.1-0.5-0.2L278.7,287.4z"/>
	<path style="fill:#A7A9AC;" d="M230.7,269.8c1.2-1.1,4-8.5,6.7-16.2c-1.9,1.2-3.6,2.2-5.1,3.1c-0.1,0.2-0.3,0.4-0.4,0.6
		c-0.1,0.2-0.2,0.3-0.3,0.5c-0.2,0.2-0.3,0.5-0.5,0.7c-0.1,0.2-0.2,0.3-0.3,0.5c-0.2,0.2-0.3,0.4-0.4,0.6c-0.1,0.1-0.2,0.3-0.3,0.4
		c-0.1,0.2-0.3,0.4-0.4,0.6c-0.1,0.1-0.2,0.2-0.2,0.3c-0.1,0.2-0.3,0.3-0.4,0.5l-0.2,0.3c-0.1,0.2-0.2,0.3-0.3,0.4l-0.1,0.1l0,0
		c-0.4,0.5-0.7,0.9-0.9,1.1c0,0-27.7,15.9-43.4,24.9H206C221.3,282.1,229.1,271.3,230.7,269.8"/>
	<path style="fill:#9EA0A2;" d="M237.4,253.6c-1.9,1.2-3.6,2.2-5.1,3.1c-0.1,0.2-0.3,0.4-0.4,0.6c-0.1,0.2-0.2,0.3-0.3,0.5
		c-0.2,0.2-0.3,0.5-0.5,0.7c-0.1,0.2-0.2,0.3-0.3,0.5c-0.2,0.2-0.3,0.4-0.4,0.6c-0.1,0.1-0.2,0.3-0.3,0.4c-0.1,0.2-0.3,0.4-0.4,0.6
		c-0.1,0.1-0.2,0.2-0.2,0.3c-0.1,0.2-0.3,0.3-0.4,0.5l-0.2,0.3c-0.1,0.2-0.2,0.3-0.3,0.4l-0.1,0.1l0,0c-0.4,0.5-0.7,0.9-0.9,1.1
		c0,0-27.7,15.9-43.4,24.9H206c15.3-6,23-16.8,24.7-18.3C231.9,268.7,234.7,261.3,237.4,253.6"/>
	<path style="fill:#A7A9AC;" d="M240.5,244.4c-0.3,0.4-0.5,0.8-0.8,1.2c-0.1,0.1-0.1,0.2-0.2,0.3c-0.3,0.4-0.5,0.8-0.8,1.2l-0.2,0.2
		c-0.3,0.4-0.5,0.8-0.8,1.2l-0.2,0.3c-0.3,0.4-0.5,0.8-0.8,1.2l-0.1,0.2c-0.3,0.4-0.5,0.8-0.8,1.2l-0.1,0.1
		c-0.3,0.4-0.5,0.8-0.8,1.1l-0.1,0.1c-0.3,0.4-0.5,0.8-0.8,1.1l0,0c-0.3,0.5-0.7,1-1,1.5c-0.2,0.2-0.3,0.5-0.5,0.7
		c-0.1,0.2-0.3,0.4-0.4,0.7l-0.1,0.2c1.5-0.8,3.2-1.8,5.1-3.1c1.1-3.3,2.3-6.6,3.2-9.4L240.5,244.4"/>
	<path style="fill:#8D8F92;" d="M240.6,244.2l-0.1,0.1c-0.3,0.4-0.5,0.8-0.8,1.2c-0.1,0.1-0.1,0.2-0.2,0.3c-0.3,0.4-0.5,0.8-0.8,1.2
		l-0.2,0.2c-0.3,0.4-0.5,0.8-0.8,1.2l-0.2,0.3c-0.3,0.4-0.5,0.8-0.8,1.2l-0.1,0.2c-0.3,0.4-0.5,0.8-0.8,1.2l-0.1,0.1
		c-0.3,0.4-0.5,0.8-0.8,1.1l-0.1,0.1c-0.3,0.4-0.5,0.8-0.8,1.1l0,0c-0.3,0.5-0.7,1-1,1.5c-0.2,0.2-0.3,0.5-0.5,0.7
		c-0.1,0.2-0.3,0.4-0.4,0.7l-0.1,0.2c1.5-0.8,3.2-1.8,5.1-3.1C238.5,250.4,239.7,247.1,240.6,244.2"/>
	<path style="fill:#808285;" d="M251.7,278.7c0,0-2.1,0.6-2.7,1l-0.2,0.2c-2.9,2.6-5.9,5.4-8.8,8.2h2.2c2.7-2.9,5.3-5.7,7.6-8.1
		C249.4,279.9,252.1,278.8,251.7,278.7z"/>
	<path style="fill:#A7A9AC;" d="M154.1,217c0-0.1,0-0.3,0.1-0.6c-11.6,4.9-23.3,7-38.7,5.9c-10.8-0.8-20-0.2-28.2,0.3
		c-9.8,0.6-18.2,1.3-25.9-0.3c-14.2-3-27.9-3.9-37.8-2.8C13.7,220.7,4,224,4,224s0.1,41.1-0.4,64.1h67.5
		c4.7-11.4,11.1-27.2,11.6-27.1c0.5,0.1,26.6,16,44.5,27.1H165c-1.4-10.3-4.3-37.6-4.9-40.8C159.4,243.2,153.6,220.2,154.1,217"/>
	<path style="fill:#D1D3D4;" d="M23.3,176.7c-0.2,0.2-0.5,0.3-0.7,0.5c0.4-0.3,0.8-0.6,1.2-0.9C23.6,176.4,23.5,176.6,23.3,176.7z"
		/>
	<path style="fill:#D1D3D4;" d="M30,172.1c-0.2,0.1-0.3,0.2-0.5,0.3c0.4-0.2,0.8-0.5,1.1-0.7C30.4,171.9,30.2,172,30,172.1z"/>
	<path style="fill:#D1D3D4;" d="M25.8,174.9c-0.1,0.1-0.3,0.2-0.4,0.3c0.8-0.6,1.7-1.1,2.5-1.7C27.2,174,26.5,174.4,25.8,174.9z"/>
	<path style="fill:#D1D3D4;" d="M4,224c0,0,9.7-3.3,19.5-4.4c9.9-1.1,23.6-0.2,37.8,2.8c7.7,1.6,16.1,1,25.9,0.3
		c8.2-0.5,17.4-1.1,28.2-0.3c15.4,1.1,27.1-1,38.7-5.9c0.7-5.4,4.8-37.5,6.9-46.9c-0.7,0.2-1.3,0.3-1.8,0.5
		c-8.1,2-44.4,4.4-50.4,3.4c-0.2,0-0.4-0.1-0.6-0.1l-0.2,0c-0.2,0-0.3,0-0.5-0.1c-0.1,0-0.2,0-0.3,0c-0.2,0-0.3,0-0.5-0.1
		c-0.1,0-0.3,0-0.4-0.1c-0.2,0-0.3,0-0.5-0.1c-0.1,0-0.3,0-0.4-0.1c-0.2,0-0.4,0-0.5-0.1c-0.2,0-0.3,0-0.5-0.1c-0.2,0-0.4,0-0.5-0.1
		c-0.2,0-0.4,0-0.6-0.1c-0.2,0-0.4,0-0.6-0.1c-0.2,0-0.4,0-0.5-0.1c-0.2,0-0.4-0.1-0.6-0.1c-0.2,0-0.4,0-0.6-0.1
		c-0.2,0-0.4,0-0.6-0.1c-0.2,0-0.5-0.1-0.7-0.1c-0.2,0-0.4,0-0.6-0.1c-0.2,0-0.5-0.1-0.7-0.1c-0.2,0-0.4,0-0.6-0.1
		c-0.3,0-0.5-0.1-0.8-0.1c-0.2,0-0.4,0-0.5-0.1c-0.3,0-0.6-0.1-0.9-0.1c-0.1,0-0.3,0-0.4,0c-0.3,0-0.7-0.1-1-0.1c-0.1,0-0.2,0-0.3,0
		c-0.4,0-0.8-0.1-1.1-0.1l-0.2,0c-2.8-0.3-5.6-0.6-8.3-0.8l0,0c-0.4,0-0.9-0.1-1.3-0.1l0,0c-0.4,0-0.8-0.1-1.2-0.1l-0.1,0
		c-0.4,0-0.7-0.1-1.1-0.1l-0.2,0c-0.4,0-0.7-0.1-1-0.1l-0.2,0c-0.3,0-0.7,0-1-0.1l-0.2,0c-0.3,0-0.6,0-0.9-0.1l-0.2,0
		c-0.3,0-0.6,0-0.9,0l-0.2,0c-0.3,0-0.6,0-0.8,0l-0.1,0c-0.3,0-0.5,0-0.8,0l-0.1,0c-0.2,0-0.5,0-0.7,0l0,0c-0.2,0-0.5,0-0.7,0v0
		c-0.4,0-0.8,0-1.1,0c-4.3,0.4-37.9,6.6-54.2,12.1c-1.1,1.2-1.8,2.3-2.2,3.3c-0.7,2.3-3.9,8.4-7.3,15.2c-0.3,0.5-0.5,1-0.8,1.5
		c-0.2,0.4-0.4,0.9-0.6,1.3c-0.4,0.9-0.9,1.7-1.3,2.6c-0.8,1.5-1.5,3.1-2.2,4.6c-0.5,1-0.9,2-1.4,2.9c-0.4,0.9-0.8,1.8-1.2,2.6v72.1
		h3.6C4.2,265.2,4,224,4,224"/>
	<path style="fill:#D1D3D4;" d="M17.1,181.9c0.2-0.2,0.5-0.5,0.7-0.7C17.6,181.5,17.3,181.7,17.1,181.9z"/>
	<path style="fill:#D1D3D4;" d="M25,175.5c-0.3,0.2-0.7,0.5-1,0.7c0.4-0.3,0.8-0.6,1.2-0.9L25,175.5z"/>
	<path style="fill:#D1D3D4;" d="M22.5,177.3c-0.4,0.3-0.7,0.6-1.1,0.8C21.8,177.8,22.2,177.5,22.5,177.3L22.5,177.3z"/>
	<path style="fill:#D1D3D4;" d="M31.6,171.1c-0.3,0.2-0.6,0.4-0.9,0.5c0.4-0.2,0.8-0.5,1.2-0.7C31.8,171,31.7,171.1,31.6,171.1z"/>
	<path style="fill:#D1D3D4;" d="M29.2,172.7c-0.4,0.2-0.7,0.5-1.1,0.7c0.4-0.3,0.8-0.5,1.2-0.8L29.2,172.7z"/>
	<path style="fill:#F1F2F2;" d="M137.8,149.8c1.1,0,2.1,0,3.2,0.1C139.9,149.9,138.9,149.8,137.8,149.8z"/>
	<path style="fill:#F1F2F2;" d="M112.1,149.5c0.6,0,1.2,0,1.8,0C113.3,149.5,112.7,149.5,112.1,149.5z"/>
	<path style="fill:#F1F2F2;" d="M114.2,149.5c0.6,0,1.3,0,1.9,0C115.5,149.5,114.9,149.5,114.2,149.5z"/>
	<path style="fill:#F1F2F2;" d="M110.6,149.5c-0.3,0-0.6,0-0.8,0c0.6,0,1.3,0,1.9,0C111.3,149.5,110.9,149.5,110.6,149.5z"/>
	<path style="fill:#F1F2F2;" d="M133.9,149.8c0.3,0,0.7,0,1,0C134.6,149.8,134.3,149.8,133.9,149.8z"/>
	<path style="fill:#F1F2F2;" d="M122.6,149.6c-0.7,0-1.4,0-2.1,0c-1.4,0-2.7,0-4.1,0c2.1,0,4.3,0.1,6.6,0.1
		C122.9,149.6,122.7,149.6,122.6,149.6z"/>
	<path style="fill:#F1F2F2;" d="M142.5,149.9c1.1,0,2.2,0,3.3,0.1C144.7,149.9,143.6,149.9,142.5,149.9z"/>
	<path style="fill:#F1F2F2;" d="M126.8,149.6c-0.2,0-0.4,0-0.6,0c0.4,0,0.9,0,1.3,0C127.3,149.7,127.1,149.7,126.8,149.6z"/>
	<path style="fill:#F1F2F2;" d="M130.4,149.7c0.4,0,0.7,0,1.1,0C131.1,149.7,130.7,149.7,130.4,149.7z"/>
	<path style="fill:#F1F2F2;" d="M103.5,149.5c-0.7,0-1.4,0-2,0c0.8,0,1.7,0,2.6,0C103.8,149.5,103.6,149.5,103.5,149.5z"/>
	<path style="fill:#F1F2F2;" d="M99.1,149.5c0.8,0,1.5,0,2.3,0C100.6,149.5,99.8,149.5,99.1,149.5z"/>
	<path style="fill:#F1F2F2;" d="M72.3,170c7.3-6,16.8-13.5,26.7-20.4c-0.6,0-1.2,0-1.7,0c-0.9,0-1.8,0-2.7,0.1
		c-4.2,0.2-7.2,0.4-8.4,0.9c-1,0.4-2,0.8-3.1,1.2c-7.6,3-17.7,7.3-21.7,8.5c-4.5,1.3-19.6,4.5-25.1,8c-0.3,0.2-0.5,0.3-0.8,0.5
		l-0.2,0.1c-0.3,0.2-0.6,0.4-0.9,0.6l-0.2,0.1c-0.3,0.2-0.6,0.4-0.9,0.6c-0.3,0.2-0.7,0.4-1,0.7l-0.2,0.2c-0.4,0.2-0.8,0.5-1.2,0.7
		l-0.1,0.1c-0.4,0.2-0.8,0.5-1.1,0.7l-0.2,0.1c-0.4,0.3-0.8,0.5-1.2,0.8l-0.2,0.1c-0.8,0.6-1.7,1.1-2.5,1.7l-0.2,0.1
		c-0.4,0.3-0.8,0.6-1.2,0.9l-0.2,0.1c-0.4,0.3-0.8,0.6-1.2,0.9l-0.1,0c-0.4,0.3-0.8,0.6-1.2,0.9l-0.2,0.1c-0.4,0.3-0.7,0.6-1.1,0.9
		l-0.1,0.1c-0.3,0.3-0.7,0.6-1,0.9l-0.1,0.1c-0.3,0.3-0.6,0.6-0.9,0.9l-0.1,0.1c-0.2,0.2-0.5,0.5-0.7,0.7l-0.2,0.2l0,0
		c16.3-5.5,49.9-11.7,54.2-12.1C71.5,170,71.8,170,72.3,170z"/>
	<path style="fill:#F4F4F5;" d="M72.3,170c0.2,0,0.4,0,0.7,0l0,0c0.2,0,0.5,0,0.7,0l0.1,0c0.2,0,0.5,0,0.8,0l0.1,0
		c0.3,0,0.5,0,0.8,0l0.2,0c0.3,0,0.6,0,0.9,0l0.2,0c0.3,0,0.6,0,0.9,0.1l0.2,0c0.3,0,0.7,0,1,0.1l0.2,0c0.3,0,0.7,0,1,0.1l0.2,0
		c0.4,0,0.7,0.1,1.1,0.1l0.1,0c0.4,0,0.8,0.1,1.2,0.1l0,0c0.4,0,0.9,0.1,1.3,0.1l0,0c2.7,0.2,5.5,0.5,8.3,0.8l0.2,0
		c0.4,0,0.8,0.1,1.1,0.1c0.1,0,0.2,0,0.3,0c0.3,0,0.7,0.1,1,0.1c0.1,0,0.3,0,0.4,0c0.3,0,0.6,0.1,0.9,0.1c0.2,0,0.4,0,0.5,0.1
		c0.3,0,0.5,0.1,0.8,0.1c0.2,0,0.4,0,0.6,0.1c0.2,0,0.5,0.1,0.7,0.1c0.2,0,0.4,0,0.6,0.1c0.2,0,0.5,0.1,0.7,0.1c0.2,0,0.4,0,0.6,0.1
		c0.2,0,0.4,0,0.6,0.1c0.2,0,0.4,0.1,0.6,0.1c0.2,0,0.4,0,0.5,0.1c0.2,0,0.4,0,0.6,0.1c0.2,0,0.4,0,0.6,0.1c0.2,0,0.4,0,0.5,0.1
		c0.2,0,0.3,0,0.5,0.1c0.2,0,0.4,0,0.5,0.1c0.1,0,0.3,0,0.4,0.1c0.2,0,0.3,0,0.5,0.1c0.1,0,0.3,0,0.4,0.1c0.2,0,0.3,0,0.5,0.1
		c0.1,0,0.2,0,0.3,0c0.2,0,0.3,0,0.5,0.1l0.2,0c0.2,0,0.4,0.1,0.6,0.1c6,1,42.3-1.4,50.4-3.4c0.5-0.1,1.1-0.3,1.8-0.5
		c0.3-1.3,0.6-2.2,0.8-2.5c1.2-1.6,12.8-10.4,21.1-17c-0.4,0-0.8,0-1.3,0c-0.2,0-0.3,0-0.5,0c-0.7,0-1.5,0-2.3,0c-0.1,0-0.2,0-0.4,0
		c-0.7,0-1.5,0-2.2,0c-0.2,0-0.3,0-0.5,0c-0.8,0-1.7,0-2.5,0c-0.2,0-0.4,0-0.6,0c-0.8,0-1.6,0-2.4,0c-0.1,0-0.3,0-0.4,0
		c-0.9,0-1.8,0-2.7,0c-0.2,0-0.5,0-0.8,0c-0.9,0-1.8,0-2.7,0c-0.2,0-0.3,0-0.5,0c-0.8,0-1.6,0-2.4,0c-0.3,0-0.6,0-0.9,0
		c-0.9,0-1.8,0-2.7,0c-0.3,0-0.6,0-0.9,0c-0.7,0-1.5,0-2.2,0c-0.3,0-0.6,0-0.8,0c-0.9,0-1.8,0-2.6,0c-0.4,0-0.9,0-1.4,0
		c-0.6,0-1.1,0-1.7,0c-0.6,0-1.2,0-1.8,0c-1.1,0-2.2,0-3.3-0.1c-0.5,0-1,0-1.5,0c-1.1,0-2.1,0-3.2-0.1c-1,0-1.9,0-2.9,0
		c-0.3,0-0.7,0-1,0c-0.8,0-1.7,0-2.5,0c-0.4,0-0.7,0-1.1,0c-0.9,0-1.9,0-2.8,0c-0.4,0-0.9,0-1.3,0c-1.1,0-2.1,0-3.2,0
		c-2.3,0-4.5-0.1-6.6-0.1c-0.1,0-0.2,0-0.3,0c-0.6,0-1.3,0-1.9,0c-0.1,0-0.2,0-0.3,0c-0.6,0-1.2,0-1.8,0c-0.1,0-0.3,0-0.4,0
		c-0.6,0-1.3,0-1.9,0l-0.1,0c-1.9,0-3.8,0-5.5,0l-0.1,0c-0.9,0-1.7,0-2.6,0l0,0c-0.8,0-1.6,0-2.3,0l-0.1,0l0,0
		C89,156.5,79.6,163.9,72.3,170L72.3,170"/>
	<path style="fill:#A7A9AC;" d="M387.5,150c-0.1,0.4-0.2,0.7-0.3,1.1c0.2-0.2,0.3-0.5,0.5-0.7c0.8-1.1,1.6-2.1,2.5-3.1
		c0.8-0.9,1.7-1.8,2.6-2.6c0.2-0.2,0.4-0.4,0.7-0.5c0.3-0.2,0.5-0.4,0.8-0.6v0C392.4,143.4,389.7,146.6,387.5,150z"/>
	<path style="fill:#A7A9AC;" d="M394.3,143.6c0-0.2-0.7-1.1-1.7-2.6l-0.1,0C393.5,142.5,394.2,143.4,394.3,143.6z"/>
	<path style="fill:#A7A9AC;" d="M254.7,222.5c-0.2,0.4-0.5,0.8-0.7,1.1c0.1-0.1,0.2-0.3,0.2-0.4C254.3,223,254.5,222.7,254.7,222.5z
		"/>
	<path style="fill:#A7A9AC;" d="M253.3,224.6l0.1-0.2l0.1-0.1c-0.3,0.4-0.5,0.8-0.8,1.2c0.1-0.1,0.2-0.3,0.3-0.4
		C253.1,224.9,253.2,224.7,253.3,224.6z"/>
	<path style="fill:#A7A9AC;" d="M228.4,262.1l-0.6-1.9c-0.1,0.2-0.3,0.3-0.4,0.4c0,0-33.4,19.1-48.1,27.5h4.7
		c15.7-9,43.4-24.9,43.4-24.9C227.7,263,228,262.6,228.4,262.1"/>
	<path style="fill:#A7A9AC;" d="M231.5,257.8c-0.2,0.2-0.3,0.5-0.5,0.7C231.2,258.2,231.4,258,231.5,257.8z"/>
	<path style="fill:#A7A9AC;" d="M231.9,257.3c0.1-0.2,0.3-0.4,0.4-0.6l0.1-0.2C232.2,256.8,232,257,231.9,257.3z"/>
	<path style="fill:#A7A9AC;" d="M230.7,258.9c-0.2,0.2-0.3,0.4-0.4,0.6C230.4,259.3,230.6,259.1,230.7,258.9z"/>
	<path style="fill:#A7A9AC;" d="M232.8,255.9c0.2-0.2,0.3-0.5,0.5-0.7C233.1,255.4,233,255.6,232.8,255.9z"/>
	<path style="fill:#A7A9AC;" d="M228.8,261.6c-0.1,0.2-0.2,0.3-0.3,0.4C228.6,261.9,228.7,261.7,228.8,261.6z"/>
	<path style="fill:#A7A9AC;" d="M230,259.9c-0.1,0.2-0.3,0.4-0.4,0.6C229.7,260.3,229.9,260.1,230,259.9z"/>
	<path style="fill:#A7A9AC;" d="M229.4,260.8c-0.1,0.2-0.3,0.3-0.4,0.5C229.1,261.2,229.3,261,229.4,260.8z"/>
	<path style="fill:#A7A9AC;" d="M224.1,261c2.2-1.3,3.5-2,3.5-2l-0.4-2.3C225.9,258.5,224.9,259.9,224.1,261"/>
	<path style="fill:#D2D3D5;" d="M324.2,80.6c0.3,0,0.5-0.1,0.8-0.1l0,0l0,0C324.7,80.5,324.4,80.6,324.2,80.6L324.2,80.6L324.2,80.6
		 M337.9,79c-4.6,0-17.6,1.2-21.1,1.9c-0.2,0-0.5,0.2-1,0.4c0.6,0,1.1,0,1.6-0.1l0,0c0.5,0,1,0,1.4-0.1l0,0c0.2,0,0.4,0,0.6,0l0,0
		c0.2,0,0.4,0,0.6,0l0,0c0.2,0,0.3,0,0.5,0c0,0,0,0,0,0l0,0c0,0,0,0,0,0l0,0l0,0l0,0l0,0c0,0,0,0,0,0c0.6,0,1.1-0.1,1.3-0.1l0.1,0
		l0,0l0.1,0c0.1,0,0.1,0,0.2,0l0,0c-0.1,0-0.1,0-0.2,0l0,0l0,0c0.1,0,0.1,0,0.2,0c0.1,0,0.2,0,0.3-0.1l0,0l0,0l0,0l0,0l0,0l0,0l0,0
		l0,0l0.1,0c0.2,0,0.4-0.1,0.6-0.1l0,0c-0.2,0-0.4,0.1-0.6,0.1l0,0l0,0c0.2,0,0.4-0.1,0.6-0.1c0,0,0,0,0,0l0,0l0,0l0,0l0,0l0,0l0,0
		l0,0l0,0l0.1,0c0.1,0,0.2,0,0.3,0l0,0c-0.1,0-0.2,0-0.3,0l0,0l0,0c0.1,0,0.2,0,0.3,0c0.1,0,0.3,0,0.4-0.1l0,0l0,0l0,0l0,0l0,0l0,0
		l0,0l0,0l0.1,0c0.3,0,0.5-0.1,0.8-0.1l0.1,0c0.1,0,0.2,0,0.4,0l0,0c-0.1,0-0.3,0-0.4,0l0,0l0,0c0.1,0,0.2,0,0.4,0
		c0.2,0,0.3,0,0.5-0.1l0,0l0,0l0,0l0,0l0,0l0,0l0,0l0,0l0.1,0c0.2,0,0.3,0,0.5-0.1l0,0c-0.2,0-0.3,0-0.5,0.1l0,0l0,0
		c0.2,0,0.3,0,0.5-0.1c0.1,0,0.2,0,0.4,0l0,0l0,0l0,0l0,0l0,0l0,0l0,0l0,0l0.1,0c0.2,0,0.4,0,0.6-0.1l0,0c-0.2,0-0.4,0-0.6,0.1l0,0
		l0,0c0.2,0,0.4,0,0.6-0.1c0.1,0,0.2,0,0.3,0l0,0l0,0l0,0l0,0l0,0l0,0l0,0l0,0c0.4,0,0.7-0.1,1.1-0.1l0.1,0c0.3,0,0.5-0.1,0.8-0.1
		l0.1,0c0.3,0,0.5-0.1,0.8-0.1l0.1,0c0.3,0,0.5-0.1,0.8-0.1l0.2,0c0.3,0,0.5,0,0.8-0.1l0.2,0c0.2,0,0.5,0,0.7-0.1c0.1,0,0.2,0,0.3,0
		c0.2,0,0.4,0,0.7-0.1l0.2,0c0.2,0,0.5,0,0.7-0.1l0.3,0c0.2,0,0.4,0,0.6-0.1c0.1,0,0.2,0,0.4,0c0.2,0,0.3,0,0.5,0c0.2,0,0.3,0,0.5,0
		c0.1,0,0.3,0,0.4,0c0.2,0,0.3,0,0.5,0c0.1,0,0.2,0,0.4,0c0.1,0,0.3,0,0.4,0C339.3,79.1,338.7,79,337.9,79"/>
	<path style="fill:#D2D3D5;" d="M183.8,149.5c-0.3,0.2-0.6,0.4-0.8,0.7c0.1,0,0.2,0,0.4,0l0,0l0,0l0,0l0,0l0,0l0,0l0,0l0,0
		C183.4,149.9,183.6,149.7,183.8,149.5"/>
	<path style="fill:#D1D3D4;" d="M159.8,212.6L159.8,212.6c0.1-0.7,0.2-1.5,0.3-2.4l0-0.2c0-0.1,0-0.3,0.1-0.4l0-0.2
		c0-0.4,0.1-0.7,0.1-1.1l0-0.2l0-0.1l0,0l0,0c0-0.1,0-0.3,0.1-0.4c0-0.2,0-0.3,0.1-0.5c0-0.2,0.1-0.4,0.1-0.6l0-0.1l0-0.1l0-0.2
		c0-0.2,0.1-0.4,0.1-0.6c0-0.3,0.1-0.7,0.1-1.1l0-0.1l0,0c0-0.2,0.1-0.4,0.1-0.6c0-0.3,0.1-0.6,0.1-1c0-0.3,0.1-0.5,0.1-0.8
		c0-0.3,0.1-0.7,0.1-1c0-0.2,0-0.3,0.1-0.5l0,0l0,0l0,0l0,0c0.1-0.5,0.1-0.9,0.2-1.4c0-0.1,0-0.3,0.1-0.4c0-0.2,0-0.3,0.1-0.5l0-0.2
		l0,0c0-0.2,0.1-0.4,0.1-0.6c0-0.2,0.1-0.4,0.1-0.6l0-0.2l0,0l0-0.1c0-0.3,0.1-0.5,0.1-0.8c0-0.2,0-0.3,0.1-0.5
		c0-0.2,0.1-0.5,0.1-0.7l0-0.1l0-0.1c0-0.2,0.1-0.4,0.1-0.6c0-0.2,0.1-0.4,0.1-0.6c0.1-0.4,0.1-0.9,0.2-1.3l0,0l0,0l0-0.1
		c0-0.1,0-0.3,0.1-0.4c0.1-0.4,0.1-0.8,0.2-1.2c0-0.2,0-0.3,0.1-0.5c0.1-0.5,0.1-1,0.2-1.4c0-0.2,0-0.3,0.1-0.5
		c0.1-0.5,0.1-1,0.2-1.4c0-0.1,0-0.3,0.1-0.4c0-0.2,0.1-0.4,0.1-0.5c0-0.1,0-0.3,0.1-0.4l0,0c0-0.1,0-0.2,0.1-0.4c0-0.1,0-0.2,0-0.3
		c0-0.3,0.1-0.6,0.1-0.9c0-0.1,0-0.3,0.1-0.4l0,0l0-0.1c0-0.1,0-0.2,0.1-0.4c0-0.3,0.1-0.6,0.1-0.9l0-0.1l0-0.2l0-0.2
		c0-0.1,0-0.2,0-0.3c0.1-0.4,0.1-0.9,0.2-1.3l0-0.2l0,0l0,0l0-0.2c0.1-0.4,0.1-0.7,0.2-1.1c0-0.1,0-0.3,0.1-0.4l0-0.1
		c0-0.2,0.1-0.4,0.1-0.5c0-0.2,0.1-0.4,0.1-0.6c0-0.1,0-0.2,0-0.3c0.1-0.4,0.1-0.7,0.2-1.1l0-0.2c0.1-0.4,0.1-0.8,0.2-1.1l0-0.3
		c0-0.2,0.1-0.4,0.1-0.6l0,0c0-0.1,0-0.2,0.1-0.4l0,0l0,0l0-0.2c0.1-0.3,0.1-0.6,0.2-0.9l0-0.1c0.1-0.3,0.1-0.6,0.2-0.9l0-0.2
		c0.1-0.3,0.1-0.5,0.2-0.7l0-0.1c0-0.1,0.1-0.3,0.1-0.4l0,0l0.1-0.2l0,0c0-0.1,0.1-0.2,0.1-0.3c-2.2,0.6-4.1,1.1-5.5,1.5
		c-2.1,9.4-6.2,41.5-6.9,46.9c1.8-0.8,3.6-1.6,5.5-2.5C159.7,213.5,159.7,213.1,159.8,212.6"/>
	<path style="fill:#B5B7B9;" d="M160.6,206.3L160.6,206.3l0-0.2L160.6,206.3 M161.4,200.6L161.4,200.6L161.4,200.6L161.4,200.6
		 M163.6,184.9L163.6,184.9c0-0.1,0-0.3,0.1-0.4l0,0l0,0C163.6,184.6,163.6,184.8,163.6,184.9L163.6,184.9L163.6,184.9 M163.9,182.9
		L163.9,182.9l0-0.1L163.9,182.9 M166.4,168.7L166.4,168.7l0.1-0.2L166.4,168.7 M166.6,168c-2.2,0.6-4.1,1.1-5.5,1.5l0,0l0,0
		c-2.1,9.4-6.2,41.5-6.9,46.9c1.8-0.8,3.6-1.6,5.5-2.5c0.1-0.4,0.1-0.9,0.2-1.3h0l0,0c0.1-0.7,0.2-1.5,0.3-2.4l0-0.2
		c0-0.1,0-0.3,0.1-0.4l0-0.2c0-0.4,0.1-0.7,0.1-1.1l0-0.2l0-0.1l0,0l0,0l0,0l0,0c0-0.1,0-0.3,0.1-0.4l0,0l0,0l0,0l0,0l0,0l0,0l0,0
		l0,0c0-0.2,0-0.3,0.1-0.5l0,0l0,0l0,0l0,0c0-0.1,0-0.3,0.1-0.4c0,0,0-0.1,0-0.1l0,0l0,0l0,0c0,0.1,0,0.1,0,0.2l0,0
		c0-0.1,0-0.1,0-0.2l0-0.1l0-0.1l0-0.2c0-0.2,0.1-0.4,0.1-0.6l0,0l0,0l0,0l0,0c0-0.3,0.1-0.7,0.1-1.1l0,0l0,0l0,0l0,0l0,0l0-0.1l0,0
		c0-0.2,0.1-0.4,0.1-0.6c0-0.3,0.1-0.6,0.1-1c0-0.3,0.1-0.5,0.1-0.8c0-0.3,0.1-0.7,0.1-1c0-0.2,0-0.3,0.1-0.5l0,0l0,0l0,0l0,0l0,0
		l0,0c0.1-0.5,0.1-0.9,0.2-1.4l0,0l0,0l0,0l0,0l0,0l0,0l0,0l0,0c0-0.1,0-0.3,0.1-0.4l0,0l0,0l0,0l0,0c0-0.2,0-0.3,0.1-0.5l0,0l0,0
		l0,0l0,0l0,0l0-0.2l0,0c0-0.2,0.1-0.4,0.1-0.6c0-0.2,0.1-0.4,0.1-0.6l0,0l0-0.2l0,0l0-0.1l0,0l0,0c0-0.3,0.1-0.5,0.1-0.8l0,0l0,0
		l0,0l0,0l0,0l0,0l0,0l0,0c0-0.2,0-0.3,0.1-0.5c0-0.2,0.1-0.5,0.1-0.7l0-0.1l0-0.1c0,0,0-0.1,0-0.1l0,0c0,0,0,0.1,0,0.1l0,0l0,0
		c0,0,0-0.1,0-0.1c0-0.1,0-0.3,0.1-0.4l0,0l0,0l0,0l0,0l0,0c0-0.2,0.1-0.4,0.1-0.6c0-0.1,0-0.3,0.1-0.4l0,0c0,0.1,0,0.3-0.1,0.4l0,0
		l0,0c0-0.1,0-0.3,0.1-0.4c0-0.3,0.1-0.6,0.1-0.9l0,0l0,0l0,0l0,0l0,0l0,0l0,0l0-0.1c0-0.1,0-0.3,0.1-0.4c0.1-0.4,0.1-0.8,0.2-1.2
		c0-0.2,0-0.3,0.1-0.5c0.1-0.5,0.1-1,0.2-1.4c0-0.2,0-0.3,0.1-0.5c0.1-0.5,0.1-1,0.2-1.4c0-0.1,0-0.3,0.1-0.4l0,0l0,0l0,0l0,0
		c0-0.2,0.1-0.4,0.1-0.5l0,0l0,0l0,0l0,0l0,0c0-0.1,0-0.3,0.1-0.4l0,0c0-0.1,0-0.2,0.1-0.4c0-0.1,0-0.2,0-0.3c0-0.3,0.1-0.6,0.1-0.9
		c0-0.1,0-0.3,0.1-0.4l0,0l0-0.1c0-0.1,0-0.2,0.1-0.4c0-0.3,0.1-0.6,0.1-0.9l0-0.1l0-0.2l0-0.2c0-0.1,0-0.2,0-0.3
		c0.1-0.4,0.1-0.9,0.2-1.3l0-0.2l0,0l0,0l0-0.2c0.1-0.4,0.1-0.7,0.2-1.1c0-0.1,0-0.3,0.1-0.4l0-0.1c0-0.2,0.1-0.4,0.1-0.5
		c0-0.2,0.1-0.4,0.1-0.6c0-0.1,0-0.2,0-0.3c0.1-0.4,0.1-0.7,0.2-1.1l0-0.2c0.1-0.4,0.1-0.8,0.2-1.1l0-0.3c0-0.2,0.1-0.4,0.1-0.6l0,0
		c0-0.1,0-0.2,0.1-0.4l0,0l0,0l0-0.2c0.1-0.3,0.1-0.6,0.2-0.9l0-0.1c0.1-0.3,0.1-0.6,0.2-0.9l0-0.2c0.1-0.3,0.1-0.5,0.2-0.7l0-0.1
		c0-0.1,0.1-0.3,0.1-0.4l0,0l0.1-0.2l0,0l0,0l0,0C166.5,168.3,166.5,168.2,166.6,168"/>
	<path style="fill:#F4F4F5;" d="M161.8,167.1c-0.2,0.3-0.5,1.1-0.8,2.5c1.5-0.4,3.3-0.9,5.5-1.5l0.1-0.2l0-0.1l0.1-0.2l0,0l0.1-0.2
		l0,0l0,0l0-0.1c0-0.1,0.1-0.2,0.1-0.2c1.2-1.6,6.7-6.7,10.9-10.9c0.2-0.2,0.3-0.3,0.5-0.5c0.2-0.2,0.4-0.4,0.6-0.6
		c0.3-0.3,0.5-0.5,0.7-0.7l0.3-0.3c0.3-0.3,0.5-0.5,0.8-0.8l0.1-0.2c0.3-0.3,0.5-0.5,0.7-0.8l0.1-0.1c0.2-0.2,0.4-0.5,0.6-0.7l0,0
		c0.2-0.2,0.3-0.4,0.4-0.6c0.1-0.2,0.4-0.6,0.7-1c-0.1,0-0.2,0-0.4,0C174.6,156.7,163,165.5,161.8,167.1"/>
	<path style="fill:#CCCECF;" d="M183.3,150.1c-0.1,0-0.2,0-0.4,0c-8.3,6.6-20,15.4-21.1,17c-0.2,0.3-0.5,1.1-0.8,2.5
		c1.5-0.4,3.3-0.9,5.5-1.5l0,0l0-0.2c0,0,0,0,0,0l0,0l0,0l0,0l0,0l0,0l0-0.1l0.1-0.2l0,0l0.1-0.2l0,0l0,0l0-0.1l0,0l0,0
		c0-0.1,0.1-0.2,0.1-0.2c0,0,0,0,0,0l0,0l0,0c0,0,0,0,0,0l0,0c0,0,0,0,0,0c1.2-1.6,6.7-6.7,10.9-10.9c0.2-0.2,0.3-0.3,0.5-0.5
		c0.2-0.2,0.4-0.4,0.6-0.6c0.3-0.3,0.5-0.5,0.7-0.7l0.3-0.3c0.3-0.3,0.5-0.5,0.8-0.8l0.1-0.2c0.3-0.3,0.5-0.5,0.7-0.8l0.1-0.1
		c0.2-0.2,0.4-0.5,0.6-0.7l0,0c0.2-0.2,0.3-0.4,0.4-0.6C182.7,150.9,183,150.6,183.3,150.1"/>
	<path style="fill:#A7A9AC;" d="M322.7,80.8c0.2,0,0.4-0.1,0.6-0.1C323.1,80.8,322.9,80.8,322.7,80.8"/>
	<path style="fill:#9A9C9E;" d="M323.3,80.7c-0.2,0-0.4,0.1-0.6,0.1C322.9,80.8,323.1,80.8,323.3,80.7 M323.3,80.7
		C323.3,80.7,323.3,80.7,323.3,80.7C323.3,80.7,323.3,80.7,323.3,80.7"/>
	<path style="fill:#A7A9AC;" d="M325,80.5c0.3,0,0.6-0.1,0.9-0.1C325.6,80.4,325.3,80.5,325,80.5"/>
	<path style="fill:#9A9C9E;" d="M325.4,80.5c-0.1,0-0.3,0-0.4,0C325.2,80.5,325.3,80.5,325.4,80.5 M325.9,80.4c-0.2,0-0.3,0-0.5,0.1
		C325.6,80.4,325.7,80.4,325.9,80.4"/>
	<path style="fill:#A7A9AC;" d="M327,80.3c0.3,0,0.6-0.1,0.9-0.1C327.6,80.2,327.3,80.2,327,80.3"/>
	<path style="fill:#9A9C9E;" d="M327.6,80.2c-0.2,0-0.4,0-0.6,0.1C327.2,80.2,327.4,80.2,327.6,80.2 M328,80.2c-0.1,0-0.2,0-0.3,0
		C327.8,80.2,327.9,80.2,328,80.2"/>
	<path style="fill:#A7A9AC;" d="M322.2,80.9c0.2,0,0.3-0.1,0.5-0.1C322.5,80.9,322.3,80.9,322.2,80.9"/>
	<path style="fill:#9A9C9E;" d="M322.3,80.9c-0.1,0-0.1,0-0.2,0C322.2,80.9,322.3,80.9,322.3,80.9 M322.7,80.8c-0.1,0-0.2,0-0.3,0.1
		C322.4,80.9,322.5,80.9,322.7,80.8"/>
	<path style="fill:#A7A9AC;" d="M323.4,80.7c0.2,0,0.5-0.1,0.7-0.1C323.9,80.7,323.6,80.7,323.4,80.7"/>
	<path style="fill:#9A9C9E;" d="M323.7,80.7c-0.1,0-0.2,0-0.3,0C323.5,80.7,323.6,80.7,323.7,80.7 M324.1,80.6c-0.1,0-0.3,0-0.4,0.1
		C323.8,80.7,324,80.6,324.1,80.6"/>
	<path style="fill:#A7A9AC;" d="M326,80.4c0.3,0,0.6-0.1,0.9-0.1C326.6,80.3,326.3,80.3,326,80.4"/>
	<path style="fill:#9A9C9E;" d="M326.6,80.3c-0.2,0-0.3,0-0.5,0.1C326.2,80.4,326.4,80.3,326.6,80.3 M326.9,80.3c-0.1,0-0.2,0-0.4,0
		C326.7,80.3,326.8,80.3,326.9,80.3"/>
	<path style="fill:#A7A9AC;" d="M324.2,80.6c0.3,0,0.5-0.1,0.8-0.1C324.7,80.5,324.4,80.6,324.2,80.6"/>
	<path style="fill:#9A9C9E;" d="M325,80.5c-0.3,0-0.5,0.1-0.8,0.1C324.4,80.6,324.7,80.5,325,80.5"/>
	<path style="fill:#A7A9AC;" d="M321.9,83.7c-0.3,0.3-0.7,0.6-1,0.9c-0.1,0.1-0.3,0.2-0.4,0.4c-0.3,0.2-0.5,0.4-0.8,0.7
		c-0.2,0.1-0.4,0.3-0.5,0.5c-0.3,0.2-0.5,0.5-0.8,0.7c-0.2,0.2-0.4,0.4-0.6,0.6c-0.3,0.2-0.6,0.5-0.9,0.7c-0.2,0.2-0.4,0.4-0.7,0.6
		c-0.3,0.3-0.6,0.5-0.9,0.8c-0.2,0.2-0.5,0.4-0.8,0.6c-0.3,0.3-0.7,0.5-1,0.8c-0.3,0.2-0.5,0.5-0.8,0.7c-0.3,0.3-0.7,0.6-1,0.8
		c-0.3,0.3-0.6,0.5-0.9,0.8c-0.3,0.3-0.7,0.6-1,0.9c-0.3,0.3-0.6,0.5-0.9,0.8c-0.4,0.3-0.7,0.6-1.1,0.9c-0.3,0.3-0.6,0.5-0.9,0.8
		c-0.4,0.3-0.8,0.7-1.2,1c-0.3,0.2-0.6,0.5-0.9,0.7c-0.4,0.4-0.9,0.7-1.3,1.1c-0.3,0.2-0.5,0.4-0.8,0.6c-0.5,0.4-1,0.8-1.5,1.2
		c-0.2,0.2-0.5,0.4-0.7,0.6c-0.5,0.4-0.9,0.8-1.4,1.2c-0.3,0.2-0.5,0.4-0.8,0.7c-1.9,1.6-3.8,3.1-5.6,4.6c-0.3,0.3-0.6,0.5-1,0.8
		l1.4,2.4l22.4-20.2l6.8-6.2c0,0,1.1,1.3,3,3.4l0,0l-3-7.6l-0.1,0c-0.2,0-0.7,0.1-1.3,0.1l0,0c-0.2,0.1-0.3,0.3-0.5,0.5
		c-2.3,0.8-4.6,1.5-6.9,2.2C317.2,83.8,320.2,83.8,321.9,83.7"/>
	<path style="fill:#9A9C9E;" d="M320.7,81.1L320.7,81.1L320.7,81.1L320.7,81.1L320.7,81.1 M322.1,80.9l-0.1,0
		c-0.2,0-0.7,0.1-1.3,0.1c-0.2,0.1-0.3,0.3-0.5,0.5c-2.3,0.8-4.6,1.5-6.9,2.2c0.1,0,0.1,0,0.2,0c0.6,0,1.3,0,1.9,0c0,0,0,0,0,0
		c0,0,0,0,0,0c2.9,0,5.2,0,6.6-0.1c0,0,0.1,0,0.1,0l0,0l0,0l0,0l0,0l0,0c-0.3,0.3-0.7,0.6-1,0.9c-0.1,0.1-0.3,0.2-0.4,0.4
		c-0.3,0.2-0.5,0.4-0.8,0.7c-0.2,0.1-0.4,0.3-0.5,0.5c-0.3,0.2-0.5,0.5-0.8,0.7c-0.2,0.2-0.4,0.4-0.6,0.6c-0.3,0.2-0.6,0.5-0.9,0.7
		c-0.2,0.2-0.4,0.4-0.7,0.6c-0.3,0.3-0.6,0.5-0.9,0.8c-0.2,0.2-0.5,0.4-0.8,0.6c-0.3,0.3-0.7,0.5-1,0.8c-0.3,0.2-0.5,0.5-0.8,0.7
		c-0.3,0.3-0.7,0.6-1,0.8c-0.3,0.3-0.6,0.5-0.9,0.8c-0.3,0.3-0.7,0.6-1,0.9c-0.3,0.3-0.6,0.5-0.9,0.8c-0.4,0.3-0.7,0.6-1.1,0.9
		c-0.3,0.3-0.6,0.5-0.9,0.8c-0.4,0.3-0.8,0.7-1.2,1c-0.3,0.2-0.6,0.5-0.9,0.7c-0.4,0.4-0.9,0.7-1.3,1.1c-0.3,0.2-0.5,0.4-0.8,0.6
		c-0.5,0.4-1,0.8-1.5,1.2c-0.2,0.2-0.5,0.4-0.7,0.6c-0.5,0.4-0.9,0.8-1.4,1.2c-0.3,0.2-0.5,0.4-0.8,0.7c-1.9,1.6-3.8,3.1-5.6,4.6
		c-0.3,0.3-0.6,0.5-1,0.8l1.4,2.4l22.4-20.2l6.8-6.2c0,0,1.1,1.3,3,3.4l0,0l0,0L322.1,80.9"/>
	<polyline style="fill:#9A9C9E;" points="320.7,81.1 320.7,81.1 320.7,81.1 320.7,81.1 	"/>
	<path style="fill:#A7A9AC;" d="M227.1,256.7l-13.4-74.6c-0.2,0.2-0.5,0.4-0.7,0.7c-0.1,0.1-0.2,0.2-0.3,0.3
		c-0.2,0.2-0.4,0.4-0.6,0.6c-0.2,0.2-0.3,0.3-0.5,0.5c-0.1,0.1-0.3,0.2-0.4,0.4c-0.3,0.3-0.6,0.5-0.8,0.8l0,0
		c-0.1,0.1-0.3,0.2-0.4,0.4l-0.1,0.1c-0.1,0.1-0.2,0.2-0.3,0.3l-0.1,0.1c-0.1,0.1-0.2,0.2-0.3,0.3c-4.4,4.4-26.1,15.4-49.6,26.3
		c-0.1,0.5-0.1,0.9-0.2,1.3c-1.8,0.9-3.7,1.7-5.5,2.5c0,0.3-0.1,0.5-0.1,0.6c-0.5,3.2,5.3,26.2,6,30.3c0.6,3.3,3.5,30.6,4.9,40.8
		h13.3c11.4-7.1,36.6-21.7,45.8-27.1C224.9,259.9,225.9,258.5,227.1,256.7"/>
	<path style="fill:#9A9C9E;" d="M213.7,182.1c-0.2,0.2-0.4,0.4-0.7,0.6c0,0,0,0,0,0c-0.1,0.1-0.2,0.2-0.3,0.3
		c-0.2,0.2-0.4,0.4-0.6,0.6c-0.2,0.2-0.3,0.3-0.5,0.5c-0.1,0.1-0.3,0.2-0.4,0.4c-0.3,0.3-0.6,0.5-0.8,0.8l0,0
		c-0.1,0.1-0.3,0.2-0.4,0.4l-0.1,0.1c-0.1,0.1-0.2,0.2-0.3,0.3l-0.1,0.1c-0.1,0.1-0.2,0.2-0.3,0.3c-4.4,4.4-26.1,15.4-49.6,26.3
		c-0.1,0.5-0.1,0.9-0.2,1.3c-1.8,0.9-3.7,1.7-5.5,2.5c0,0.3-0.1,0.5-0.1,0.6c0,0.1,0,0.3,0,0.5c0,4.6,5.4,25.9,6,29.8
		c0.6,3.3,3.5,30.6,4.9,40.8h13.3c11.4-7.1,36.6-21.7,45.8-27.1c0.8-1.1,1.8-2.6,3-4.3L213.7,182.1"/>
	<path style="fill:#A7A9AC;" d="M160.9,204.4c0,0.4-0.1,0.7-0.1,1.1C160.8,205.2,160.8,204.9,160.9,204.4L160.9,204.4"/>
	<path style="fill:#9A9C9E;" d="M160.9,204.4c0,0.4-0.1,0.7-0.1,1.1C160.8,205.2,160.8,204.9,160.9,204.4L160.9,204.4"/>
	<polyline style="fill:#A7A9AC;" points="160.7,206.1 160.6,206.3 160.6,206.2 160.7,206.1 	"/>
	<polyline style="fill:#9A9C9E;" points="160.7,206.1 160.6,206.2 160.6,206.3 160.7,206.1 	"/>
	<path style="fill:#A7A9AC;" d="M160.6,206.5L160.6,206.5c0,0.2,0,0.4-0.1,0.6C160.5,206.9,160.6,206.7,160.6,206.5L160.6,206.5"/>
	<path style="fill:#9A9C9E;" d="M160.6,206.6c0,0.2,0,0.3-0.1,0.4C160.5,206.9,160.6,206.8,160.6,206.6 M160.6,206.4L160.6,206.4
		L160.6,206.4c0,0.1,0,0.1,0,0.2C160.6,206.6,160.6,206.5,160.6,206.4"/>
	<polyline style="fill:#A7A9AC;" points="161.4,200.5 161.4,200.6 161.4,200.6 161.4,200.5 	"/>
	<polyline style="fill:#9A9C9E;" points="161.4,200.5 161.4,200.6 161.4,200.6 161.4,200.5 	"/>
	<polyline style="fill:#A7A9AC;" points="161.9,196.5 161.9,196.8 161.9,196.5 161.9,196.5 	"/>
	<polyline style="fill:#9A9C9E;" points="161.9,196.5 161.9,196.8 161.9,196.5 161.9,196.5 	"/>
	<path style="fill:#A7A9AC;" d="M162.1,195.6c0,0.3-0.1,0.5-0.1,0.8l0-0.2C162,196,162,195.8,162.1,195.6"/>
	<path style="fill:#9A9C9E;" d="M162.1,195.6c0,0.3-0.1,0.5-0.1,0.8l0-0.2C162,196,162,195.8,162.1,195.6"/>
	<path style="fill:#A7A9AC;" d="M161.4,200.2c0-0.4,0.1-0.7,0.1-1.1c-0.1,0.5-0.1,0.9-0.2,1.4L161.4,200.2L161.4,200.2"/>
	<path style="fill:#9A9C9E;" d="M161.6,199.1c-0.1,0.5-0.1,0.9-0.2,1.4l0-0.2l0,0C161.5,199.8,161.5,199.5,161.6,199.1"/>
	<path style="fill:#A7A9AC;" d="M160.5,207.5c0,0.1,0,0.3-0.1,0.4l0-0.1C160.4,207.8,160.4,207.7,160.5,207.5"/>
	<path style="fill:#9A9C9E;" d="M160.5,207.5c0,0.1,0,0.3-0.1,0.4l0-0.1C160.4,207.8,160.4,207.7,160.5,207.5"/>
	<path style="fill:#A7A9AC;" d="M162.6,191.9c-0.1,0.4-0.1,0.9-0.2,1.3C162.5,192.7,162.5,192.3,162.6,191.9L162.6,191.9"/>
	<path style="fill:#9A9C9E;" d="M162.5,192.8c0,0.1,0,0.3-0.1,0.4C162.4,193,162.4,192.9,162.5,192.8 M162.6,191.9
		c0,0.3-0.1,0.6-0.1,0.9C162.5,192.5,162.5,192.2,162.6,191.9L162.6,191.9"/>
	<path style="fill:#A7A9AC;" d="M162.3,193.7c0,0.2-0.1,0.4-0.1,0.6c0-0.1,0-0.2,0-0.3L162.3,193.7"/>
	<path style="fill:#9A9C9E;" d="M162.3,194.1c0,0,0,0.1,0,0.1C162.2,194.2,162.3,194.2,162.3,194.1 M162.3,193.7
		c0,0.1,0,0.3-0.1,0.4c0-0.1,0-0.1,0-0.2L162.3,193.7"/>
	<path style="fill:#A7A9AC;" d="M161.7,198.1c0,0.2,0,0.4-0.1,0.5c0-0.1,0-0.3,0.1-0.4L161.7,198.1"/>
	<path style="fill:#9A9C9E;" d="M161.7,198.1c0,0.2,0,0.4-0.1,0.5c0-0.1,0-0.3,0.1-0.4L161.7,198.1"/>
	<polyline style="fill:#A7A9AC;" points="163.9,182.7 163.9,182.9 163.9,182.9 163.9,182.7 	"/>
	<polyline style="fill:#9A9C9E;" points="163.9,182.7 163.9,182.9 163.9,182.9 163.9,182.7 	"/>
	<polyline style="fill:#A7A9AC;" points="166.5,168.4 166.4,168.7 166.4,168.7 166.5,168.4 	"/>
	<polyline style="fill:#9A9C9E;" points="166.5,168.4 166.4,168.7 166.4,168.7 166.5,168.4 	"/>
	<path style="fill:#A7A9AC;" d="M166.5,168.2L166.5,168.2c0-0.1,0.1-0.2,0.1-0.3l-0.1,0.2c0,0.1-0.1,0.2-0.1,0.3L166.5,168.2"/>
	<path style="fill:#9A9C9E;" d="M166.6,167.9C166.6,167.9,166.6,167.9,166.6,167.9L166.6,167.9"/>
	<path style="fill:#9A9C9E;" d="M166.6,167.9l0,0.2c0,0.1-0.1,0.2-0.1,0.3l0.1-0.2l0,0C166.6,168.1,166.6,168,166.6,167.9"/>
	<polyline style="fill:#A7A9AC;" points="164.2,181 164.1,181.1 164.2,181 164.2,181 	"/>
	<polyline style="fill:#9A9C9E;" points="164.2,181 164.1,181.1 164.2,181 164.2,181 	"/>
	<path style="fill:#A7A9AC;" d="M163.5,185.3c0,0.2-0.1,0.4-0.1,0.5C163.5,185.7,163.5,185.5,163.5,185.3L163.5,185.3"/>
	<path style="fill:#9A9C9E;" d="M163.5,185.3c0,0.2-0.1,0.4-0.1,0.5C163.5,185.7,163.5,185.5,163.5,185.3L163.5,185.3"/>
	<path style="fill:#A7A9AC;" d="M163.6,184.5c0,0.1,0,0.2-0.1,0.4l0,0C163.6,184.8,163.6,184.6,163.6,184.5"/>
	<path style="fill:#9A9C9E;" d="M163.6,184.5c0,0.1,0,0.2-0.1,0.4l0,0C163.6,184.8,163.6,184.6,163.6,184.5"/>
	<path style="fill:#A7A9AC;" d="M166.9,167.1c0,0.1-0.1,0.1-0.1,0.2l0,0C166.9,167.2,166.9,167.1,166.9,167.1"/>
	<path style="fill:#9A9C9E;" d="M166.9,167.1c0,0.1-0.1,0.1-0.1,0.2l0,0C166.9,167.2,166.9,167.1,166.9,167.1 M166.9,167.1
		C166.9,167.1,166.9,167.1,166.9,167.1C166.9,167.1,166.9,167.1,166.9,167.1"/>
	<polyline style="fill:#A7A9AC;" points="166.7,167.6 166.6,167.8 166.7,167.6 166.7,167.6 	"/>
	<polyline style="fill:#9A9C9E;" points="166.7,167.6 166.6,167.8 166.7,167.6 166.7,167.6 	"/>
	<path style="fill:#939598;" d="M228.4,262.1L228.4,262.1L228.4,262.1c0.2-0.2,0.3-0.4,0.4-0.5l0.2-0.3c0.1-0.2,0.2-0.3,0.4-0.5
		c0.1-0.1,0.2-0.2,0.2-0.3c0.1-0.2,0.3-0.4,0.4-0.6c0.1-0.1,0.2-0.3,0.3-0.4c0.1-0.2,0.3-0.4,0.4-0.6c0.1-0.1,0.2-0.3,0.3-0.5
		c0.2-0.2,0.3-0.4,0.5-0.7c0.1-0.2,0.2-0.3,0.3-0.5c0.2-0.2,0.3-0.5,0.5-0.8c0.1-0.2,0.3-0.4,0.4-0.7c0.2-0.2,0.3-0.5,0.5-0.7
		c0.3-0.5,0.6-1,1-1.5l0,0c0.3-0.4,0.5-0.8,0.8-1.1l0.1-0.1c0.2-0.4,0.5-0.8,0.8-1.1l0.1-0.1c0.3-0.4,0.5-0.8,0.8-1.2l0.1-0.2
		c0.3-0.4,0.5-0.8,0.8-1.2l0.2-0.3c0.3-0.4,0.5-0.8,0.8-1.2l0.2-0.2c0.3-0.4,0.5-0.8,0.8-1.2c0.1-0.1,0.1-0.2,0.2-0.3
		c0.3-0.4,0.5-0.8,0.8-1.2l0.1-0.1l0.2-0.2c0.3-0.4,0.5-0.8,0.8-1.2c0.1-0.1,0.1-0.2,0.2-0.3c0.3-0.4,0.6-0.9,0.9-1.3l0.2-0.2
		c0.3-0.5,0.6-0.9,0.9-1.4l0,0c0.3-0.5,0.7-1,1-1.6c0.1-0.1,0.1-0.2,0.2-0.3c2-3.1,4.1-6.4,6.3-9.7c0.1-0.2,0.2-0.4,0.4-0.6
		c0.2-0.4,0.5-0.8,0.7-1.2c0.1-0.2,0.3-0.4,0.4-0.7c0.3-0.4,0.5-0.8,0.8-1.2c0.1-0.2,0.3-0.5,0.4-0.7c0.2-0.4,0.5-0.8,0.7-1.1
		c0.2-0.2,0.3-0.5,0.5-0.7c0.2-0.4,0.5-0.8,0.7-1.1c0.2-0.3,0.3-0.5,0.5-0.8c0.2-0.4,0.5-0.7,0.7-1.1c0.2-0.3,0.3-0.5,0.5-0.8
		c0.2-0.4,0.5-0.7,0.7-1.1c0.2-0.3,0.3-0.5,0.5-0.8c0.2-0.3,0.4-0.7,0.6-1c0.2-0.3,0.4-0.6,0.6-0.9c0.2-0.3,0.4-0.7,0.6-1
		c0.2-0.3,0.4-0.6,0.6-0.9c0.2-0.3,0.4-0.6,0.6-1c0.2-0.3,0.4-0.6,0.6-1c0.2-0.3,0.4-0.6,0.6-1c0.2-0.3,0.4-0.6,0.6-0.9
		c0.2-0.3,0.4-0.6,0.6-0.9c0.2-0.3,0.4-0.7,0.6-1c0.2-0.3,0.4-0.6,0.5-0.9c0.2-0.4,0.4-0.7,0.7-1.1c0.2-0.3,0.3-0.5,0.5-0.8
		c0.2-0.3,0.4-0.7,0.6-1c0.2-0.3,0.3-0.6,0.5-0.8c0.2-0.3,0.4-0.6,0.6-0.9c0.2-0.3,0.4-0.6,0.5-0.9c0.3-0.5,0.6-0.9,0.8-1.4
		c0.1-0.1,0.2-0.3,0.3-0.4c0.4-0.6,0.7-1.2,1.1-1.7l0-0.1c0.4-0.6,0.7-1.2,1.1-1.8c0.1-0.1,0.1-0.2,0.2-0.3c0.3-0.5,0.6-0.9,0.9-1.4
		c0.1-0.2,0.2-0.4,0.3-0.5c0.2-0.4,0.5-0.8,0.7-1.2c0.1-0.2,0.2-0.4,0.4-0.6c0.2-0.3,0.4-0.7,0.6-1c0.1-0.2,0.3-0.5,0.4-0.7
		c0.2-0.3,0.4-0.6,0.6-0.9c0.1-0.2,0.3-0.5,0.4-0.7c0.2-0.3,0.3-0.6,0.5-0.9c0.1-0.2,0.3-0.5,0.4-0.7c0.2-0.3,0.3-0.6,0.5-0.8
		c0.1-0.2,0.3-0.4,0.4-0.7c0.2-0.3,0.3-0.6,0.5-0.9c0.1-0.2,0.3-0.4,0.4-0.6c0.2-0.3,0.3-0.5,0.5-0.8c0.1-0.2,0.3-0.4,0.4-0.6
		c0.2-0.3,0.3-0.5,0.4-0.8c0.1-0.2,0.2-0.4,0.4-0.6c0.1-0.2,0.2-0.3,0.3-0.5c-0.3-0.6-0.6-1-0.6-1.1l-0.1-0.2
		c-14.6,25.1-47.8,76.3-52.6,82.2L228.4,262.1z"/>
	<polygon style="fill:#939598;" points="160.9,204.3 160.9,204.4 160.9,204.4 160.9,204.5 	"/>
	<polygon style="fill:#939598;" points="160.4,207.9 160.4,207.9 160.4,208 160.4,208 160.4,208.1 	"/>
	<path style="fill:#939598;" d="M160.2,209.6c0,0.1,0,0.3-0.1,0.4l0,0.2c0-0.3,0.1-0.6,0.1-0.8L160.2,209.6z"/>
	<path style="fill:#939598;" d="M270.3,162.3c-0.3-3.8,15.8-44.6,15.8-44.6l6.8-6.1l-1.4-2.4c-10.5,8.6-19.8,16.3-21.2,17.9
		c-2,2.2-20,19.7-36,35.1c-0.3,0.3-0.6,0.5-0.8,0.8c-0.7,0.7-1.4,1.3-2,2c-0.7,0.7-1.5,1.4-2.2,2.2c-0.7,0.7-1.4,1.4-2.1,2
		c-4.6,4.5-8.7,8.5-11.9,11.5c-0.8,0.8-1.5,1.4-2.1,2.1c0.2-0.2,0.4-0.4,0.7-0.7l13.4,74.6l0.4,2.3l49.2-76.6l2.5-6.4
		c-0.9-1.4-2.1-3.2-3.4-5.1c-1.7-2.6-4.8-5.6-5.5-8.5L270.3,162.3"/>
	<path style="fill:#939598;" d="M212.8,183c-0.2,0.2-0.4,0.4-0.6,0.6C212.4,183.4,212.6,183.2,212.8,183z"/>
	<path style="fill:#939598;" d="M211.7,184c-0.1,0.1-0.3,0.2-0.4,0.4C211.5,184.3,211.6,184.1,211.7,184z"/>
	<polygon style="fill:#939598;" points="162.6,191.8 162.6,191.8 162.6,191.9 162.6,191.9 	"/>
	<polygon style="fill:#939598;" points="160.6,206.5 160.6,206.2 160.6,206.3 160.6,206.3 160.6,206.4 160.6,206.5 	"/>
	<path style="fill:#939598;" d="M165.6,172.2c0,0.1,0,0.2-0.1,0.4l0,0C165.6,172.5,165.6,172.4,165.6,172.2L165.6,172.2z"/>
	<path style="fill:#939598;" d="M162,196.2l0,0.2l0,0.1l0,0l0,0C161.9,196.4,162,196.3,162,196.2z"/>
	<path style="fill:#939598;" d="M162.3,194c0,0.1,0,0.2,0,0.3l0,0.1l0,0.1C162.2,194.3,162.3,194.1,162.3,194z"/>
	<path style="fill:#939598;" d="M161.7,197.9L161.7,197.9l0,0.2l0,0.1C161.7,198.2,161.7,198,161.7,197.9z"/>
	<path style="fill:#939598;" d="M161.4,200.2l0,0.2l0,0l0,0C161.4,200.4,161.4,200.3,161.4,200.2L161.4,200.2z"/>
	<path style="fill:#939598;" d="M164.2,181l0,0.1l0,0.2l0,0.1C164.1,181.3,164.1,181.2,164.2,181z"/>
	<path style="fill:#939598;" d="M163.6,184.9L163.6,184.9L163.6,184.9c0,0.2,0,0.3-0.1,0.4l0,0C163.5,185.2,163.6,185,163.6,184.9z"
		/>
	<polygon style="fill:#939598;" points="164.5,179.1 164.5,179.1 164.5,178.9 	"/>
	<path style="fill:#939598;" d="M163.9,182.9L163.9,182.9L163.9,182.9c0,0.2,0,0.3-0.1,0.4C163.8,183.2,163.9,183,163.9,182.9z"/>
	<polygon style="fill:#939598;" points="166.8,167.4 166.8,167.4 166.7,167.6 166.7,167.6 166.7,167.6 	"/>
	<path style="fill:#D1D3D4;" d="M291.5,109.1c0.3-0.3,0.6-0.5,1-0.8c1.9-1.5,3.7-3.1,5.6-4.6c0.3-0.2,0.5-0.4,0.8-0.7
		c0.5-0.4,0.9-0.8,1.4-1.2c0.2-0.2,0.5-0.4,0.7-0.6c0.5-0.4,1-0.8,1.5-1.2c0.3-0.2,0.5-0.4,0.8-0.6c0.4-0.4,0.9-0.7,1.3-1.1
		c0.3-0.3,0.6-0.5,0.9-0.7c0.4-0.3,0.8-0.7,1.2-1c0.3-0.3,0.6-0.5,0.9-0.8c0.4-0.3,0.7-0.6,1.1-0.9c0.3-0.3,0.6-0.5,0.9-0.8
		c0.3-0.3,0.7-0.6,1-0.9c0.3-0.3,0.6-0.5,0.9-0.8c0.3-0.3,0.7-0.6,1-0.8c0.3-0.2,0.6-0.5,0.8-0.7c0.3-0.3,0.7-0.6,1-0.8
		c0.3-0.2,0.5-0.4,0.8-0.6c0.3-0.3,0.6-0.5,0.9-0.8c0.2-0.2,0.5-0.4,0.7-0.6c0.3-0.3,0.6-0.5,0.9-0.7c0.2-0.2,0.4-0.4,0.6-0.6
		c0.3-0.2,0.5-0.5,0.8-0.7c0.2-0.2,0.4-0.3,0.5-0.5c0.3-0.2,0.5-0.5,0.8-0.7c0.1-0.1,0.3-0.3,0.4-0.4c0.4-0.3,0.7-0.6,1-0.9
		c-1.7,0.1-4.8,0.2-8.7,0.1c-28.7,9.2-55,16.7-58,19.1l15.1,24.2C271.7,125.4,281,117.7,291.5,109.1"/>
	<path style="fill:#D1D3D4;" d="M270.3,127l-3,3c-6.2,6.1-20.2,19.7-33,32.1C250.2,146.7,268.2,129.2,270.3,127z"/>
	<path style="fill:#D1D3D4;" d="M231.4,164.9c0.7-0.6,1.3-1.3,2-2C232.8,163.6,232.1,164.3,231.4,164.9z"/>
	<path style="fill:#D1D3D4;" d="M166.5,168.2l-0.1,0.2l0,0l-0.1,0.2l0,0l0,0c0,0.1-0.1,0.2-0.1,0.4l0,0.1c-0.1,0.2-0.1,0.5-0.2,0.7
		l0,0.2c-0.1,0.3-0.1,0.6-0.2,0.9l0,0.1c-0.1,0.3-0.1,0.6-0.2,0.9l0,0.2l0,0c0,0.1,0,0.3-0.1,0.4c0,0.2-0.1,0.4-0.1,0.6l0,0.3
		c-0.1,0.4-0.1,0.7-0.2,1.1l0,0.2c-0.1,0.4-0.1,0.7-0.2,1.1c0,0.1,0,0.2,0,0.3c0,0.2-0.1,0.4-0.1,0.6c0,0.2-0.1,0.4-0.1,0.5l0,0.1
		c0,0.1,0,0.2-0.1,0.4c-0.1,0.3-0.1,0.7-0.2,1.1l0,0.3l0,0l0,0.2c-0.1,0.4-0.1,0.8-0.2,1.3c0,0.1,0,0.2,0,0.3l0,0.1
		c0,0.1,0,0.3-0.1,0.4c0,0.3-0.1,0.6-0.1,0.9c0,0.1,0,0.2-0.1,0.4l0,0.1c0,0.1,0,0.3-0.1,0.4c0,0.3-0.1,0.6-0.1,0.9
		c0,0.1,0,0.2,0,0.3c0,0.1,0,0.2-0.1,0.4c0,0.1,0,0.3-0.1,0.4c0,0.2-0.1,0.4-0.1,0.5c0,0.1,0,0.3-0.1,0.4c-0.1,0.5-0.1,1-0.2,1.4
		c0,0.2,0,0.3-0.1,0.5c-0.1,0.5-0.1,1-0.2,1.4c0,0.2,0,0.3-0.1,0.5c-0.1,0.4-0.1,0.8-0.2,1.2c0,0.1,0,0.3-0.1,0.4l0,0.1l0,0.1
		c-0.1,0.4-0.1,0.8-0.2,1.2c0,0.2-0.1,0.4-0.1,0.6l0,0.2c0,0.1,0,0.3-0.1,0.4c0,0.2-0.1,0.5-0.1,0.7c0,0.2,0,0.3-0.1,0.5
		c0,0.2,0,0.3-0.1,0.5c0,0.1,0,0.3-0.1,0.4l0,0.2c0,0.2-0.1,0.4-0.1,0.6c0,0.2-0.1,0.4-0.1,0.6c0,0.1,0,0.2,0,0.4
		c0,0.1,0,0.3-0.1,0.4c0,0.1,0,0.3-0.1,0.4c0,0.4-0.1,0.7-0.1,1.1c0,0.1,0,0.2,0,0.3l0,0l0,0l0,0c0,0.2,0,0.3-0.1,0.5
		c0,0.3-0.1,0.7-0.1,1c0,0.3-0.1,0.5-0.1,0.8c0,0.3-0.1,0.6-0.1,1c0,0.2-0.1,0.4-0.1,0.6l0,0.2c0,0.3-0.1,0.6-0.1,1
		c0,0.2-0.1,0.4-0.1,0.6l0,0.1l0,0.2c0,0.2-0.1,0.4-0.1,0.6c0,0.2,0,0.3-0.1,0.5c0,0.1,0,0.2,0,0.3l0,0.2l0,0.2
		c0,0.4-0.1,0.7-0.1,1.1c0,0.3-0.1,0.6-0.1,0.8c-0.1,0.8-0.2,1.6-0.3,2.4l0,0c23.5-11,45.2-21.9,49.6-26.3c0.1-0.1,0.2-0.2,0.3-0.3
		l0.1-0.1c0.1-0.1,0.2-0.2,0.3-0.3l0.1-0.1c0.1-0.1,0.2-0.2,0.4-0.4l0,0c0.2-0.2,0.5-0.5,0.8-0.8c0.1-0.1,0.2-0.2,0.4-0.4
		c0.2-0.1,0.3-0.3,0.5-0.5c0.2-0.2,0.4-0.4,0.6-0.6c0.1-0.1,0.2-0.2,0.3-0.3c0.7-0.6,1.4-1.3,2.1-2.1l-8.6-32.1l1.9-8.9
		c-0.9,0.7-1.4,1.1-1.6,1.2c-1.9,1-28.7,16.9-36.9,24.2c-1.3,1.2-2.2,1.7-2.8,1.8c1.5-1.8,6.6-6.7,10.6-10.6
		c-4.2,4.1-9.7,9.3-10.9,10.9c0,0.1-0.1,0.1-0.1,0.2l0,0l0,0.1l0,0l-0.1,0.2l-0.1,0.2l0,0.1C166.6,168,166.6,168.1,166.5,168.2
		L166.5,168.2z"/>
	<path style="fill:#808285;" d="M227.9,260.2c4.9-5.9,38-57.1,52.6-82.2c-0.2-0.4-0.7-1.2-1.3-2.1l-2.5,6.4L227.5,259
		c0,0-1.3,0.7-3.5,2c-9.2,5.3-34.4,20-45.8,27.1h1.1c14.7-8.4,48.1-27.5,48.1-27.5C227.6,260.5,227.7,260.4,227.9,260.2z"/>
	<path style="fill:#939598;" d="M388.4,143.8l0.7-0.1c0,0-0.6,2.3-1.6,6.3c2.2-3.4,4.9-6.6,6.8-6.3l0-0.1c-0.1-0.2-0.7-1.1-1.8-2.6
		C390.8,140.8,389.3,142.5,388.4,143.8z"/>
	<path style="fill:#939598;" d="M325.1,88.5c10.5,11.9,45.1,51.5,48.8,55.1l0.1,0c0,0,0.2,0,0.5-0.1l0,0l0.2,0l0.1,0l0.1,0l0.2,0
		l0.1,0l0.3,0l0.1,0c0.8-0.1,1.8-0.2,2.3-0.2l0,0c0.1,0,0.2,0,0.2,0c0.2,0,0.9,0.6,1.7,1.5l0.2,0l7.7-0.9c-1.6-1.7-7.6-1.9-12-1.3
		c-0.2,0-0.5-0.5-0.5-0.5l-53.1-61.1l0,0L325.1,88.5L325.1,88.5z"/>
	<path style="fill:#BCBEC0;" d="M214.8,112.3L214.8,112.3l0.1-0.1c-0.2,0.1-0.3,0.3-0.5,0.4C214.5,112.5,214.6,112.4,214.8,112.3
		L214.8,112.3z"/>
	<path style="fill:#BCBEC0;" d="M232.1,97.7L232.1,97.7l0.2-0.1c-0.4,0.4-0.9,0.7-1.3,1.1c0.2-0.2,0.4-0.3,0.6-0.5
		C231.7,98.1,231.9,97.9,232.1,97.7z"/>
	<path style="fill:#BCBEC0;" d="M230.4,99.1c-0.5,0.4-1,0.8-1.5,1.3C229.4,99.9,229.9,99.5,230.4,99.1L230.4,99.1z"/>
	<path style="fill:#BCBEC0;" d="M239.1,91.9c-0.4,0.3-0.7,0.6-1.1,0.9l0.2-0.2C238.5,92.3,238.8,92.1,239.1,91.9z"/>
	<polygon style="fill:#BCBEC0;" points="234,96.1 233.9,96.2 233.9,96.2 	"/>
	<path style="fill:#BCBEC0;" d="M218.9,108.8L218.9,108.8c-0.2,0.2-0.5,0.4-0.7,0.6l0.3-0.2C218.6,109.1,218.7,109,218.9,108.8z"/>
	<path style="fill:#BCBEC0;" d="M216.2,111.1L216.2,111.1c-0.2,0.2-0.4,0.4-0.6,0.5l0.1-0.1C215.8,111.5,216,111.3,216.2,111.1z"/>
	<path style="fill:#BCBEC0;" d="M217.5,110c-0.1,0.1-0.2,0.2-0.3,0.3L217.5,110L217.5,110z"/>
	<polygon style="fill:#BCBEC0;" points="247.7,85 247.7,85 247.7,85 	"/>
	<path style="fill:#BCBEC0;" d="M248.6,84.3c-0.2,0.1-0.4,0.3-0.6,0.4l0.1-0.1C248.3,84.5,248.4,84.4,248.6,84.3z"/>
	<path style="fill:#BCBEC0;" d="M250.2,83.1c0.1-0.1,0.2-0.1,0.3-0.2C250.4,83,250.3,83.1,250.2,83.1L250.2,83.1L250.2,83.1z"/>
	<polygon style="fill:#BCBEC0;" points="250.5,82.9 250.5,82.9 250.5,82.9 	"/>
	<polygon style="fill:#BCBEC0;" points="250,83.3 250,83.3 250,83.3 	"/>
	<path style="fill:#BCBEC0;" d="M240.6,90.6L240.6,90.6L240.6,90.6c-0.3,0.3-0.7,0.5-1,0.9l0.2-0.2
		C240.1,91.1,240.3,90.8,240.6,90.6z"/>
	<path style="fill:#BCBEC0;" d="M245.1,87c-0.3,0.2-0.6,0.5-0.9,0.7C244.5,87.5,244.8,87.2,245.1,87L245.1,87z"/>
	<path style="fill:#BCBEC0;" d="M215.2,180.6c3.2-3.1,7.3-7.1,11.9-11.5c0.7-0.7,1.4-1.3,2.1-2c0.7-0.7,1.5-1.4,2.2-2.2
		c0.7-0.6,1.3-1.3,2-2c0.3-0.3,0.6-0.5,0.8-0.8c12.8-12.4,26.8-26,33-32.1l3-3l-15.1-24.2c-0.1,0.1-0.2,0.2-0.4,0.3l-0.1,0.1
		c-0.2,0.1-0.3,0.3-0.5,0.4l-0.1,0.1c-0.2,0.2-0.4,0.3-0.6,0.5l-0.2,0.2c-0.2,0.2-0.5,0.4-0.8,0.6l-0.1,0.1
		c-0.6,0.5-1.4,1.1-2.2,1.7l0,0c-0.4,0.3-0.7,0.6-1.1,0.9c-0.1,0.1-0.2,0.2-0.3,0.2c-0.4,0.3-0.8,0.6-1.1,0.9
		c-0.3,0.3-0.7,0.5-1,0.8c-0.2,0.1-0.3,0.3-0.5,0.4c-0.5,0.4-0.9,0.7-1.4,1.1c-0.1,0.1-0.2,0.2-0.3,0.3c-0.5,0.4-1,0.8-1.6,1.2
		c-2.2,1.7-4.5,3.6-7,5.5l-0.1,0.1c-10.8,8.6-22.8,18.1-27.2,21.4l-1.9,8.9L215.2,180.6z"/>
	<path style="fill:#E6E7E8;" d="M255.2,102.9c3-2.3,29.3-9.8,58-19.1c2.3-0.7,4.6-1.5,6.9-2.2c0.2-0.2,0.4-0.3,0.5-0.5l0,0
		c-0.2,0-0.3,0-0.5,0l0,0c-0.2,0-0.4,0-0.6,0l0,0c-0.2,0-0.4,0-0.6,0l0,0c-0.4,0-0.9,0-1.4,0.1l0,0c-0.5,0-1.1,0-1.6,0.1
		c-12.6,0.4-40.8,0.7-55.5,1l-0.2,0c-0.3,0-0.6,0-0.9,0l-0.2,0c-0.3,0-0.5,0-0.7,0c-0.1,0-0.2,0-0.3,0c-0.2,0-0.4,0-0.6,0
		c-0.1,0-0.2,0-0.3,0c-0.2,0-0.4,0-0.6,0c-0.1,0-0.2,0-0.3,0c-0.2,0-0.4,0-0.5,0c-0.1,0-0.2,0-0.3,0c-0.2,0-0.3,0-0.5,0
		c-0.1,0-0.2,0-0.3,0c-0.2,0-0.3,0-0.4,0l-0.3,0c-0.1,0-0.3,0-0.4,0l-0.2,0c-0.1,0-0.2,0-0.3,0l-0.2,0c-0.1,0-0.2,0-0.3,0l-0.2,0
		l-0.2,0l-0.2,0l-0.2,0l-0.1,0l-0.2,0l-0.1,0l-0.2,0c0.2,0,0.6-0.1,1.3-0.1L255.2,102.9z"/>
	<path style="fill:#E6E7E8;" d="M235.8,118.2c2.4-1.9,4.8-3.8,7-5.5C240.6,114.4,238.2,116.3,235.8,118.2z"/>
	<path style="fill:#E6E7E8;" d="M182.6,151.1c-0.1,0.2-0.3,0.3-0.4,0.6l0,0c-0.2,0.2-0.4,0.4-0.6,0.7l-0.1,0.1
		c-0.2,0.2-0.5,0.5-0.7,0.8l-0.1,0.2c-0.2,0.2-0.5,0.5-0.8,0.8l-0.3,0.3c-0.2,0.2-0.5,0.5-0.7,0.7c-0.2,0.2-0.4,0.4-0.6,0.6
		c-0.2,0.2-0.3,0.3-0.5,0.5c-4,3.9-9.1,8.8-10.6,10.6c0.6,0,1.5-0.5,2.8-1.8c8.2-7.3,35-23.2,36.9-24.2c0.2-0.1,0.8-0.5,1.6-1.2
		c4.4-3.3,16.4-12.8,27.2-21.4c-10.8,8.6-22.8,18.1-27.2,21.4l5.9-27.1c-2.5,2.1-4.3,3.6-5,4.1c-3.3,2.5-20.7,25.9-25.7,32.8
		c-0.2,0.2-0.3,0.5-0.5,0.6C183,150.6,182.7,150.9,182.6,151.1z"/>
	<path style="fill:#E6E7E8;" d="M231.5,98.2c-0.2,0.2-0.4,0.3-0.6,0.5c-0.1,0.1-0.3,0.2-0.4,0.4c0.2-0.1,0.3-0.3,0.5-0.4
		C231.1,98.5,231.3,98.4,231.5,98.2z"/>
	<path style="fill:#E6E7E8;" d="M232.7,97.2L232.7,97.2c-0.2,0.2-0.3,0.3-0.5,0.4l-0.1,0.1C232.3,97.6,232.5,97.4,232.7,97.2z"/>
	<path style="fill:#E6E7E8;" d="M227.1,101.9c1.1-0.9,2.2-1.8,3.3-2.8c-0.5,0.4-1,0.8-1.5,1.2l-0.1,0.1
		C228.2,100.9,227.7,101.4,227.1,101.9c-0.1,0.1-0.2,0.2-0.3,0.3l-0.1,0.1C226.8,102.1,227,102,227.1,101.9z"/>
	<path style="fill:#E6E7E8;" d="M234.3,95.8L234.3,95.8c-0.1,0.1-0.2,0.2-0.4,0.3l-0.1,0C234,96.1,234.2,95.9,234.3,95.8z"/>
	<path style="fill:#E6E7E8;" d="M238,92.8c-0.2,0.1-0.3,0.2-0.5,0.4c-0.6,0.5-1.2,1-1.8,1.5c0.6-0.5,1.2-1,1.8-1.5
		C237.7,93,237.8,92.9,238,92.8z"/>
	<path style="fill:#E6E7E8;" d="M239.1,91.9c0.2-0.1,0.3-0.3,0.5-0.4l0.2-0.2l-0.2,0.2C239.4,91.6,239.3,91.7,239.1,91.9
		c-0.3,0.2-0.6,0.5-0.9,0.7C238.5,92.3,238.8,92.1,239.1,91.9z"/>
	<path style="fill:#E6E7E8;" d="M215.6,111.6L215.6,111.6L215.6,111.6c-0.3,0.2-0.5,0.4-0.7,0.6l0,0
		C215.1,112,215.3,111.8,215.6,111.6z"/>
	<path style="fill:#E6E7E8;" d="M217.5,110c0.3-0.2,0.5-0.4,0.8-0.7l0.2-0.2l-0.3,0.2C218,109.6,217.7,109.8,217.5,110L217.5,110
		L217.5,110z"/>
	<polygon style="fill:#E6E7E8;" points="225.4,103.4 225.4,103.4 225.1,103.6 	"/>
	<path style="fill:#E6E7E8;" d="M241.1,90.2L241.1,90.2c-0.1,0.1-0.3,0.2-0.4,0.3l0,0C240.8,90.5,240.9,90.4,241.1,90.2z"/>
	<polygon style="fill:#E6E7E8;" points="245.1,87 245.1,87 245.1,87 	"/>
	<path style="fill:#E6E7E8;" d="M246.3,86.1c0.1-0.1,0.3-0.2,0.4-0.3C246.5,85.9,246.4,86,246.3,86.1c-0.3,0.2-0.5,0.4-0.8,0.6
		c-0.1,0.1-0.2,0.1-0.3,0.2c0.1-0.1,0.2-0.1,0.3-0.2C245.8,86.5,246,86.3,246.3,86.1z"/>
	<path style="fill:#E6E7E8;" d="M250.7,82.9c0.1-0.1,0.2-0.1,0.3-0.1C250.9,82.7,250.8,82.8,250.7,82.9l-0.1,0.1l0,0L250.7,82.9z"/>
	<polygon style="fill:#E6E7E8;" points="250.2,83.1 250.2,83.1 250,83.3 250,83.3 	"/>
	<polygon style="fill:#E6E7E8;" points="249.4,83.7 249.5,83.6 249.4,83.7 249.1,83.9 	"/>
	<path style="fill:#E6E7E8;" d="M248.6,84.3l0.2-0.1L248.6,84.3c-0.1,0.1-0.3,0.2-0.5,0.4C248.3,84.5,248.4,84.4,248.6,84.3z"/>
	<polygon style="fill:#E6E7E8;" points="247.7,85 247.4,85.2 247.7,85 	"/>
	<path style="fill:#D1D3D4;" d="M235.7,118.3l0.1-0.1c2.4-1.9,4.8-3.8,7-5.5c0.5-0.4,1-0.8,1.6-1.2c0.1-0.1,0.2-0.2,0.3-0.3
		c0.5-0.4,1-0.8,1.4-1.1c0.2-0.1,0.3-0.3,0.5-0.4c0.3-0.3,0.7-0.5,1-0.8c0.4-0.3,0.8-0.6,1.1-0.9c0.1-0.1,0.2-0.2,0.3-0.2
		c0.4-0.3,0.8-0.6,1.1-0.9l0,0c0.8-0.6,1.5-1.2,2.2-1.7l0.1-0.1c0.3-0.2,0.5-0.4,0.8-0.6l0.2-0.2c0.2-0.2,0.4-0.3,0.6-0.5l0.1-0.1
		c0.2-0.2,0.4-0.3,0.5-0.4l0.1-0.1c0.2-0.1,0.3-0.2,0.4-0.3l-2.9-20.2c-0.7,0-1.1,0-1.3,0.1c-0.1,0-0.2,0.1-0.3,0.1l-0.1,0.1l0,0
		l0,0l-0.1,0c-0.1,0-0.2,0.1-0.3,0.2l0,0l-0.2,0.1l0,0l0,0c-0.1,0.1-0.3,0.2-0.4,0.3l0,0l-0.1,0l-0.2,0.1l-0.2,0.2
		c-0.1,0.1-0.2,0.2-0.4,0.3l0,0l0,0l-0.2,0.1c-0.1,0.1-0.3,0.2-0.5,0.4l-0.1,0.1c-0.1,0.1-0.2,0.2-0.3,0.2l0,0l0,0l-0.2,0.2l0,0l0,0
		c-0.2,0.2-0.5,0.4-0.7,0.6l0,0l0,0c-0.1,0.1-0.2,0.2-0.4,0.3c-0.3,0.2-0.5,0.4-0.8,0.6c-0.1,0.1-0.2,0.1-0.3,0.2l-0.1,0.1l0,0l0,0
		c-0.3,0.2-0.6,0.5-0.9,0.7l0,0l0,0l-0.3,0.2l0,0l0,0c-0.4,0.3-0.9,0.7-1.3,1.1l0,0l0,0l-0.2,0.1l0,0l0,0c-0.4,0.3-0.8,0.6-1.2,1
		l0,0c-0.2,0.1-0.3,0.3-0.5,0.4l0,0c-0.3,0.2-0.5,0.5-0.8,0.7l-0.2,0.2c-0.2,0.1-0.3,0.3-0.5,0.4c-0.3,0.2-0.6,0.5-0.9,0.7l-0.2,0.2
		l0,0l0,0c-0.1,0.1-0.3,0.2-0.4,0.4c-0.6,0.5-1.2,1-1.8,1.5c-0.5,0.4-0.9,0.8-1.4,1.1l0,0c-0.1,0.1-0.3,0.2-0.4,0.3l0,0l-0.1,0.1
		c-0.4,0.3-0.7,0.6-1.1,0.9l-0.1,0c-0.2,0.2-0.4,0.3-0.6,0.5l0,0c-0.2,0.2-0.4,0.3-0.6,0.5c-0.2,0.1-0.3,0.3-0.5,0.4
		c-0.2,0.1-0.3,0.3-0.5,0.4l0,0l0,0l0,0c-1.1,0.9-2.2,1.9-3.3,2.8c-0.1,0.1-0.3,0.2-0.4,0.3l0,0l-0.2,0.2c-0.3,0.3-0.7,0.6-1,0.8
		l-0.1,0.1l-0.3,0.2l-0.1,0.1l-0.1,0c-0.4,0.4-0.9,0.7-1.3,1.1l0,0l-0.1,0.1l-0.2,0.1c-0.7,0.6-1.4,1.1-2,1.7
		c-0.6,0.5-1.3,1.1-1.9,1.6c-0.2,0.2-0.4,0.3-0.6,0.5l0,0c-0.1,0.1-0.3,0.2-0.4,0.4l-0.2,0.2c-0.3,0.2-0.5,0.4-0.8,0.7l0,0l-0.2,0.2
		c-0.1,0.1-0.3,0.2-0.4,0.3l0,0c-0.2,0.2-0.4,0.4-0.6,0.5l0,0c-0.2,0.2-0.4,0.3-0.6,0.5l0,0c-0.2,0.2-0.5,0.4-0.7,0.6l-0.1,0.1l0,0
		c-0.1,0.1-0.2,0.2-0.3,0.3v0l-5.9,27.1C212.9,136.4,224.9,126.9,235.7,118.3z"/>
	<path style="fill:#58595B;" d="M325.6,231.6c-0.9-0.2-9,0-11.5,0c-0.1,0-0.2,0-0.3-0.1c0,0.4,0,0.7,0,1
		C314.4,231.5,325.7,232.3,325.6,231.6z"/>
	<path style="fill:#BCBEC0;" d="M330.7,238.3c-0.6-4.5,0.2-23.6-1.5-40.4c0.7-1.1,2.1,10.5,4.2,14.8c1.8,3.7,15.7,22.2,19.5,27.3
		c5.4-24.7,13.5-61.1,17.9-81.4c-1.9-1.5-3.5-2.7-4-2.9l0,0l-0.1-0.1c-0.4-0.1-0.9-0.1-1.5-0.2c-0.4,0-0.8-0.1-1.2-0.2
		c-0.4-0.1-0.7-0.2-1-0.5c-0.1-0.1-0.3-0.3-0.3-0.4c0.2-0.2,0.4-0.5,0.6-0.8c1-1.3,2.3-2.7,3.6-4.1c1.1-1.1,2.2-2.1,3.2-3.1
		c1.5-1.3,2.8-2.3,3.7-2.8c-3.7-3.7-38.3-43.2-48.8-55.1c-1.9-2.1-3-3.4-3-3.4l-0.2,11.3c0.2,8.6,2.8,61.4,1.5,63.5
		c-1.3,2.1-45.9,13.5-47.6,10.9l0,0c1.3,1.9,2.5,3.7,3.4,5.1c0.6,0.9,1.1,1.6,1.3,2.1l0.1,0.2c0.1,0.2,0.3,0.5,0.6,1.1
		c1.4,2.4,4.9,8.1,8.8,14.6c3.6,5.8,7.5,12.3,10.9,17.6c3.9,6.2,6.9,11,7.4,11.6c1.5,1.8,4.2,7.6,5.4,8.4c0.1,0.1,0.2,0.1,0.3,0.1
		c2.6,0,10.7-0.2,11.5,0c0,0.3-2.1,0.3-4.6,0.3c-3.2,0-6.8,0-7.2,0.6l0,0c-0.4,1.2-4.2,12.4-4,13c0.2,0.6,17.8,22.9,18.5,22.9
		C328.3,268.5,331.4,242.8,330.7,238.3"/>
	<path style="fill:#BCBEC0;" d="M344.1,265c0.2,0,0.3,0,0.3,0l0.1,0.2c0.4-0.2,0.9-0.5,1.6-0.9C345.5,264.6,344.9,264.8,344.1,265"
		/>
	<path style="fill:#BCBEC0;" d="M328.9,268.4c-0.4,0.1-0.6,0.1-0.6,0.1C328.4,268.5,328.6,268.5,328.9,268.4"/>
	<path style="fill:#BCBEC0;" d="M347.7,269.8c-0.4-0.4-1.3-1.6-2-2.6C346.4,268.5,347.3,269.8,347.7,269.8z"/>
	<path style="fill:#BCBEC0;" d="M356.4,265.3c1.5-0.9,2.6-1.6,2.6-1.8c0.1-0.5,13.4-53.4,22.1-88.4c-8,30.8-19.5,74.9-23.4,87
		C357.7,263.2,357.9,264.4,356.4,265.3z"/>
	<polygon style="fill:#BCBEC0;" points="379.8,144.7 379.8,144.7 380,144.7 	"/>
	<path style="fill:#FBFBFB;" d="M344.1,265c-2,0.1-12.6,2.9-15.3,3.4C331,268,338.7,266.6,344.1,265"/>
	<path style="fill:#BCBEC0;" d="M348.1,263.3c0.8-4,2.6-12.5,5-23.3c-3.8-5.1-17.7-23.6-19.5-27.3c-2.1-4.3-3.6-15.9-4.2-14.8
		c1.7,16.7,0.8,35.8,1.5,40.4c0.6,4.5-2.4,30.2-2.4,30.2s0.2,0,0.6-0.1c2.6-0.6,13.3-3.3,15.3-3.4c0.7-0.2,1.4-0.4,2-0.6
		C346.8,264,347.5,263.6,348.1,263.3"/>
	<path style="fill:#C1C3C5;" d="M329.4,197.9C329.4,197.9,329.4,197.9,329.4,197.9C329.3,197.9,329.3,197.9,329.4,197.9
		C329.3,197.9,329.3,197.9,329.4,197.9c1.6,16.8,0.7,35.9,1.4,40.4c0.1,0.4,0.1,1.1,0.1,1.8l0,0c0,7.3-2.5,28.4-2.5,28.4
		s0.2,0,0.6-0.1c2.6-0.6,13.3-3.3,15.3-3.4c0.7-0.2,1.4-0.4,2-0.6c0.6-0.4,1.3-0.7,1.9-1c0.8-4,2.6-12.5,5-23.3
		c-3.8-5.1-17.7-23.6-19.5-27.3c0,0,0-0.1,0-0.1c0,0,0,0,0-0.1c0,0,0,0,0,0C331.4,208.4,330.1,197.9,329.4,197.9"/>
	<path style="fill:#D1D3D4;" d="M379.5,165.2c-0.5-0.2-5-3.8-8.5-6.5c-4.3,20.3-12.5,56.7-17.9,81.4c-2.4,10.8-4.2,19.3-5,23.3
		c0.6-0.3,1.1-0.5,1.4-0.5c0.9-0.1,6.8-0.2,8.1-1.2c0,0.2,0,0.4,0,0.5c3.9-12.1,15.4-56.1,23.4-87c0.9-3.3,1.7-6.5,2.4-9.5
		C382.6,165.7,380.1,165.5,379.5,165.2z"/>
	<path style="fill:#D1D3D4;" d="M379.8,144.7c2.3,2.4,6.2,6.8,7,8c0.1-0.5,0.3-1,0.4-1.5c0.1-0.4,0.2-0.8,0.3-1.1
		c1-4,1.6-6.3,1.6-6.3l-0.7,0.1c-0.2,0.2-0.3,0.4-0.4,0.6c-0.1-0.2-0.2-0.3-0.3-0.5l-7.7,0.9L379.8,144.7z"/>
	<path style="fill:#999691;" d="M357.6,262.1c0-0.2,0-0.4,0-0.5c-1.3,1-7.2,1.1-8.1,1.2c-0.3,0-0.8,0.2-1.4,0.5
		c-0.6,0.3-1.3,0.7-1.9,1c-0.6,0.4-1.2,0.7-1.6,0.9l-0.2,0.1c0,0,0.6,0.9,1.3,1.9c0.7,1,1.5,2.2,2,2.6c0.9,0.8,6.8-3.4,8.7-4.5l0,0
		C357.9,264.4,357.7,263.2,357.6,262.1z"/>
	<polyline style="fill:#A7A9AC;" points="292.9,111.5 322.1,85.1 315.3,91.3 292.9,111.5 	"/>
	<path style="fill:#A2A4A6;" d="M322.1,85.1l-6.8,6.2l-22.4,20.2L322.1,85.1 M322.1,85.1L322.1,85.1"/>
	<path style="fill:#939598;" d="M270.3,162.3c-0.1-3,15.8-44.6,15.8-44.6S269.9,158.5,270.3,162.3"/>
	<path style="fill:#9B9DA0;" d="M286.1,117.7c0,0-15.8,40-15.8,44.5c0,0,0,0.1,0,0.1c0,0,0,0,0,0l0,0l0,0
		C270.3,159.2,286.1,117.7,286.1,117.7"/>
	<path style="fill:#939598;" d="M275.8,170.9c-2.5-3.7-5.2-7.6-5.5-8.5C271.1,165.3,274.1,168.3,275.8,170.9"/>
	<path style="fill:#9B9DA0;" d="M270.3,162.4c0.7,2.9,3.7,5.9,5.5,8.4C273.3,167.1,270.6,163.3,270.3,162.4"/>
	<path style="fill:#BCBEC0;" d="M286.1,117.7c0,0-15.9,41.7-15.8,44.6l0,0.1c0.3,0.9,3,4.7,5.5,8.5l0,0c1.7,2.6,46.3-8.8,47.6-10.9
		c1.3-2.1-1.3-55-1.5-63.5l0.2-11.3l-29.2,26.4L286.1,117.7"/>
	<path style="fill:#C1C3C5;" d="M322.1,85.1l-29.2,26.4l-6.8,6.1l0,0c0,0-15.8,41.5-15.8,44.6c0,0,0,0,0,0l0,0.1
		c0.3,0.9,3,4.7,5.5,8.5l0,0c0.2,0.3,0.8,0.4,1.7,0.4c8.5,0,44.7-9.4,45.9-11.3c0.3-0.4,0.4-2.8,0.4-6.5c0-14.8-1.7-50.1-1.9-57l0,0
		l0,0L322.1,85.1"/>
	<path style="fill:#D1D3D4;" d="M344.5,79.1L344.5,79.1l-0.2,0l-0.1,0l-0.2,0l-0.2,0l-0.2,0l-0.1,0c-0.1,0-0.2,0-0.3,0l-0.2,0
		c-0.1,0-0.2,0-0.4,0l-0.2,0l-0.1,0l2.4,0.1L344.5,79.1z"/>
	<path style="fill:#D1D3D4;" d="M338.7,79.2c-0.2,0-0.3,0-0.5,0c-0.1,0-0.3,0-0.4,0c-0.2,0-0.3,0-0.5,0c-0.2,0-0.3,0-0.5,0
		c-0.1,0-0.2,0-0.4,0c-0.2,0-0.4,0-0.6,0.1l-0.3,0c-0.2,0-0.5,0-0.7,0.1l-0.2,0c-0.2,0-0.4,0-0.7,0.1c-0.1,0-0.2,0-0.3,0
		c-0.2,0-0.5,0-0.7,0.1l-0.2,0c-0.3,0-0.5,0-0.8,0.1l-0.2,0c-0.3,0-0.6,0.1-0.8,0.1l-0.1,0c-0.3,0-0.5,0.1-0.8,0.1l-0.1,0
		c-0.3,0-0.5,0.1-0.8,0.1l-0.1,0c-0.4,0-0.7,0.1-1.1,0.1c-0.3,0-0.6,0.1-0.9,0.1l-0.1,0c-0.3,0-0.6,0.1-0.9,0.1l-0.1,0
		c-0.3,0-0.6,0.1-0.9,0.1l-0.1,0c-0.3,0-0.5,0.1-0.8,0.1l-0.1,0c-0.2,0-0.5,0.1-0.7,0.1l-0.1,0c-0.2,0-0.4,0.1-0.6,0.1l-0.1,0
		c-0.2,0-0.3,0.1-0.5,0.1l-0.1,0l53.1,61.1c0,0,0.3,0.6,0.5,0.5c4.5-0.6,10.4-0.4,12,1.3c0.1,0.2,0.3,0.3,0.3,0.5
		c0.1-0.2,0.3-0.4,0.4-0.6c0.9-1.2,2.4-3,4-2.8l0.1,0c0.1,0,0.3,0.1,0.4,0.1c0.9,0.3-47.3-61.3-48.3-61.9l43.3,64.2l-45.9-64.3
		l-0.1,0l-0.2,0c-0.1,0-0.3,0-0.4,0c-0.1,0-0.2,0-0.3,0c-0.1,0-0.3,0-0.4,0c-0.1,0-0.2,0-0.3,0c-0.1,0-0.3,0-0.4,0
		c-0.1,0-0.2,0-0.4,0l0,0c-0.1,0-0.3,0-0.4,0C338.9,79.2,338.8,79.2,338.7,79.2z"/>
	<path style="fill:#D8D9DA;" d="M387,152.9L387,152.9c0-0.1-0.1-0.1-0.1-0.3c-0.8-1.2-4.6-5.6-7-8l0,0c-0.9-0.9-1.5-1.5-1.7-1.5
		c-0.1,0-0.1,0-0.2,0c-0.2,0.2-0.4,0.5-0.6,0.7c0.3,0,0.5,0,0.7-0.1c1.2,0.7,7.6,8,8.3,9.1c-0.6,2.3-1,10.4-1,10.5
		c-0.1,1.3-0.7,1.4-1.4,1.5c-0.1,0-0.2,0-0.3,0.1c-0.1,0-0.2,0-0.4,0c-1.6-5.7-4.9-17.3-6.2-20.7c-3,3.6-7.8,8.9-10,11.4
		c0.5,0.3,2.1,1.5,4,2.9c3.5,2.7,8,6.3,8.5,6.5c0.7,0.3,3.1,0.5,4,0.5c0.1,0,0.2,0,0.3,0c0.6-0.1,2.1,0,2.2-2.2
		c0.1-1.8,0.4-6.9,0.8-9.4c0-0.2,0.1-0.3,0.1-0.5C386.9,153.3,386.9,153.1,387,152.9z"/>
	<path style="fill:#D8D9DA;" d="M375.5,143.4c0.8-0.1,1.8-0.2,2.3-0.2C377.3,143.2,376.4,143.3,375.5,143.4z"/>
	<path style="fill:#D8D9DA;" d="M365.3,155.5c-0.4,0-0.8-0.1-1.2-0.2C364.5,155.4,364.9,155.4,365.3,155.5z"/>
	<path style="fill:#F1F2F2;" d="M383.1,165.1c0.2,0,0.4,0,0.4,0c0.1,0,0.2,0,0.3-0.1c0.7-0.1,1.3-0.2,1.4-1.5c0-0.1,0.4-8.2,1-10.5
		c-0.7-1.1-7.2-8.4-8.3-9.1c-0.2,0-0.4,0-0.7,0.1c-0.1,0.1-0.2,0.3-0.4,0.4C378.2,147.7,381.6,159.4,383.1,165.1z"/>
	<path style="fill:#E6E7E8;" d="M375.5,143.4L375.5,143.4l-0.3,0l-0.1,0l-0.2,0l-0.1,0l-0.1,0l-0.2,0l0,0c-0.3,0-0.5,0.1-0.5,0.1
		l-0.1,0c-0.9,0.4-2.2,1.4-3.7,2.8c-1,0.9-2.1,2-3.2,3.1c-1.3,1.4-2.6,2.8-3.6,4.1c-0.2,0.3-0.4,0.5-0.6,0.8
		c0.1,0.2,0.2,0.3,0.3,0.4c0.3,0.2,0.6,0.4,1,0.5c0.4,0.1,0.8,0.1,1.2,0.2c0.6,0,1.1,0.1,1.5,0.2l0.1,0.1l0,0c2.2-2.5,7-7.8,10-11.4
		c0.1-0.1,0.2-0.3,0.4-0.4c0.2-0.2,0.4-0.5,0.6-0.7l0,0C377.3,143.2,376.4,143.3,375.5,143.4z"/>
	<polygon style="fill:#BCBEC0;" points="344.7,79.2 342.3,79 342.1,79 342.1,79.1 388,143.4 	"/>
</g>
</svg>
