<?xml version="1.0" encoding="utf-8"?>
<!-- Generator: Adobe Illustrator 19.1.0, SVG Export Plug-In . SVG Version: 6.00 Build 0)  -->
<svg version="1.1" xmlns="http://www.w3.org/2000/svg" xmlns:xlink="http://www.w3.org/1999/xlink" x="0px" y="0px"
	 viewBox="0 0 723 511.5" enable-background="new 0 0 723 511.5" xml:space="preserve">
<g id="Layer_1" display="none">
	<path display="inline" fill="none" stroke="#000000" stroke-width="0.5" stroke-linecap="round" stroke-linejoin="round" d="
		M373.6,329.9c0,0-21.3-14.3-27.7-11"/>
	<path display="inline" fill="none" stroke="#000000" stroke-width="0.5" stroke-linecap="round" stroke-linejoin="round" d="
		M337,324.1c0,0-15,48.5-13.7,54c1.7,1,3.3,0.2,4-4.2c1.5-10,13.1-43.8,13.1-43.8"/>
	<path display="inline" fill="none" stroke="#000000" stroke-width="0.5" stroke-linecap="round" stroke-linejoin="round" d="
		M345.7,326.4c0,0,6.9-3.1,33.9,24.8"/>
	<path display="inline" fill="none" stroke="#000000" stroke-width="0.5" stroke-linecap="round" stroke-linejoin="round" d="
		M425.7,299.9c0,0-0.7-7.3,9.3-9.3s21.5-5.8,23.3-7.2"/>
	<path display="inline" fill="none" stroke="#000000" stroke-width="0.5" stroke-linecap="round" stroke-linejoin="round" d="
		M603.1,398.8c-0.1,0.7-0.1,1.1-0.1,1.1c13.5,14,17.4,3.7,21.5,8.8c3.6,4.5,18.1,42.1,23,42.7c2.6,0.3,5.1,4.2,3.9,5.3
		c-3.2-0.8-6.5-2-8.9-5.5c-7.8-11.5-17.3-38.6-22.5-37.1c-6.7,2-44.2-2.9-49.2-18c-5.6-16.8-35.1-11.8-45.9-14.8"/>
	<path display="inline" fill="none" stroke="#000000" stroke-width="0.5" stroke-linecap="round" stroke-linejoin="round" d="
		M468.7,332.5c-3.1-3.7-3.9-11.8-3.4-25.1s-4.3-21-6.5-23.5c-2.3-2.5-31.7-14.2-35.2-15.7s-5.1-7.4-2.6-8.4s43.8,1.4,43.8,1.4
		l11.2-46.5l-5,48.7c0,0,19,9.8,25.8,28.5c6.7,18.7,9.7,21.7,14.2,25c4.5,3.2,11.4,13.8,17.8,18c17.5,11.8,51.2,12.2,65.2,24
		c0,0,27-13.5,48,16.5s39.3,29.5,39.3,23.8s-8.8-7.8-9.5-1c-0.8-2.5,0-7.2,5.7-8c9.5-1.2,15.3,15.1,3.8,16c-2,2,7.1,3.9,5.8-1.4
		c3.6,9.1-11.4,15.1-23.6,2.8c-19.3-19.6-30.5-58.7-66.5-44.2c0,0,6.1,3.7,7,23c0.1,1.7-0.2,5-0.5,8"/>
	<path display="inline" fill="none" stroke="#000000" stroke-width="0.5" stroke-linecap="round" stroke-linejoin="round" d="
		M479.1,268.8c0,0,14.7-11.8,22.7-21.5s24-17.2,39.5-7.5s33.2-5.6,34.7-10.1s52.2,13.5,53.4-3.2c-2-0.8-3.2,0-4.8,1.8
		c-1.5,1.7-18.4,6-47.7-6c-0.8-0.3-1.6-1.2-2.4-1c-2.7,0.6-1.2,4.8-5.7,6.5s-8.8,2.8-11-4.8c-2.3-7.5-4.3-20-13.5-23.5
		c-2.3-1.8,2.5-2.9,5-3.5c44.7-10.8,18.6-48.9-8.3-26.5c-2.7,2.2-11,3.8-13.7-2.2c-2.8-6,3.2-8.9,8-4.2c0.7-2.1-2.5-6.1-5.5-6.3
		s-15.3,3.2-6.8,15.8"/>
	<path display="inline" fill="none" stroke="#000000" stroke-width="0.5" stroke-linecap="round" stroke-linejoin="round" d="
		M338.5,230c-2.2-2-7.2-5.2-12.5-5.7c-5.2-0.5-2.5-30.8-18-45.5s-35.7-11-44.5,7.8c-3-0.8-46.2-15.8-46.2-15.8l44.7,21.5
		c0,0-2.2,30-2.2,32s4.5,1.2,7.5-2.8s13.2-21.2,16.5-20.8c3.2,0.3,3.2,11.4,2.2,20.6c-1,9.8,1,23.2,2.3,27.8
		c1.2,4.5-5.1,16.7-1.9,25.1"/>
	<path display="inline" fill="none" stroke="#000000" stroke-width="0.5" stroke-linecap="round" stroke-linejoin="round" d="
		M520.2,164.9c0,0-6.4,10.1,4.6,14c11,4,17.8-12.5,29-14c14.3-1.9,21.8,9.7,14.3,18.5s-25.5,11-30.2,11.5c-4.8,0.5-20.5-4-42,6.2
		c-13.3,6.3-48,31.3-55.5,34.5s-22,3.8-32.3,1.2c-10.2-2.5-48.2-20.7-83.5-0.9c-1.6-1.8-30-36.7-30-36.7l25.1,41.7
		c-1.1,1.3-20.4,25.9-20.5,28.6c-0.1,2.8,2.7,4.7,8.2,1.1c4.1-2.7,24.4-11.9,33-15.3c2.9-1.2,20.8-3.7,25.2,4"/>
	<path display="inline" fill="none" stroke="#000000" stroke-width="0.5" stroke-linecap="round" stroke-linejoin="round" d="
		M528.5,363.4c-2.5-2-4.4-2.6-5-1.5c3.7,7.8,1.5,21.8-1,31.8s4,19,12.5,20.2c8.3,1.2,10.6-18.1,26.6,59.6c0.3,1.6,1.8,3.9,0,6
		c-1,1.2-1.3,1.8-3.8-4.9c-3.2-8.6-9.8-54-19.8-55.2c0,0-18-0.2-24.7-3.8c-6.8-3.5-10.3-3.5-17.3-18s-21.5-18.5-28.7-19.2
		c-7.3-0.8-37.8-3.2-51.5-14.5c-13.8-11.2-19.8,5.8-20.8,6.8c0,0-16.7-4-28.2-9.5s-25-9.4-23.8-7c7.1,13.2,36.5,48.2,38.3,52.5
		c0.1,0.3,1.5,6.8-2.5,3s-41.5-52.2-41.5-56.8s3.2-7,10-5.8c6.7,1.2,30,7.8,31.7,5.8c1.8-2-2.7-8.5-4.7-15.5s3.5-50.5-27.3-41.5
		c-1.2,5.8-0.7,31.8-1.7,33.5s-3,5.5-7-2.8s-15.3-23.5-14.5-36c-4.5-2-53.4-20.8-53.4-20.8l55.2,15.1c-0.1-1.9,26.9-63.1,93.4,9.4
		c4,3.8,8.8,6.2,13.3,12.8s12.2,22.3,45.2,27c15.6,2.2,31.2,8,43.5,18.2c0,0,46.8,43.3,86.2,42.2c0,0,8-0.8,10.7-2.3
		c0,0,3.5-4.1,8-3.1s5-2.3,4.2-3c-0.8-0.7,3.8,4-2,5.7c0.9-0.3,7.7-4,12.7-0.3c3.9,2.9,5.7,4.8,5.3,4.5c-9.4-6.1-8.1,4.2-22.6,5.2
		C600.8,402.7,552,382.4,528.5,363.4z"/>
	<path display="inline" fill="none" stroke="#000000" stroke-width="0.5" stroke-linecap="round" stroke-linejoin="round" d="
		M498.3,402.1c-7,5.4-16.4,7.6-22.3,7.2c-8.2-0.6-10.2,16.6-3.5,16.4c3.3-0.1,5.4,2.8,5.7,3.7c1,3.4-43.8,18.6-44.8,21.5
		c-1.7,4.8-2.9,5.6-3.7,6.2c-5.2,3.8-3.1-9.3,2.3-11.5c13.9-5.7,30.8-11.7,33.6-14.8c2.8-3.2-22.6-10.3-18.9-19.6
		c3.7-9.3,10.8-16.9,15.6-21.7c1.8-1.8-0.9-6.1-5.7-11"/>
	<path display="inline" fill="none" stroke="#000000" stroke-width="0.5" stroke-linecap="round" stroke-linejoin="round" d="
		M567.7,238c0.8,10.5,9.8,10.3,11.3,3.7c0.5-2.1,3.4-1.3,4.2,3.3c2,10.8,2.9,35.3,7.1,40.8c3,3.9,3.2,6.5,2.8,8.3
		c-0.4,1.8-1.2,2.9-4.8-1.6c-1.2-1.6-3.2-4.3-4.1-7.2c-3.9-13.5-2.3-35.8-5.2-34.7c-1.2,0.5-4.5,6.5-11.9,10.5
		c-7.9,4.2-22.1,4.1-25.7-6c-3.8-10.7-10.5-7.8-19.9-2.7c-9.4,5.1-21.4,12.6-35.9,11.1"/>
	<path display="inline" fill="none" stroke="#000000" stroke-width="0.5" stroke-linecap="round" stroke-linejoin="round" d="
		M430.8,238c-0.6,0.1-7.3-4.8-9.3-14.6s-19.5-23-23.2-24.5c-3.8-1.5-32-0.8-37.8-1.2c-5.7-0.5-4-5-2.7-6c1.2-1,28.4-12.7,28.4-12.7
		l-26.6-38.5c0,0,31.8,35.9,32.6,37c0.5,0.6,24.4-2.7,47.1,11.8c15.4,9.8,28.3,18.6,38.5,19.6c0.9,0.1-0.7-0.1,4.6,0.3"/>
	<path display="inline" fill="none" stroke="#000000" stroke-width="0.5" stroke-linecap="round" stroke-linejoin="round" d="
		M365.1,188.2c1-2.5-4.5-9.5-5.3-10.9c-2.7-4.7-3.6-16.1-13.5-51.1c9.7-9.6,40.4-41.5,39.9-41.1c-0.5,0.4-40.7,35.6-41.8,36.6
		c-1-1-2.9-5.1-5.4-8.6s-8.6-16.4-10-16.5c-1.4-0.1-3.1,0.9-3.4,3.2c-0.2,2-1.4,26.7,1.9,34.5c5.4,12.9-21.2,39,0.3,90"/>
	<path display="inline" fill="none" stroke="#000000" stroke-width="0.5" stroke-linecap="round" stroke-linejoin="round" d="
		M374.8,197.9c8,3.3,18.2,7,28.9,4.5"/>
	<path display="inline" fill="none" stroke="#000000" stroke-width="0.5" stroke-linecap="round" stroke-linejoin="round" d="
		M331.8,274.3c0,0-11.2,6.2-22.1,6.4"/>
	<path display="inline" fill="none" stroke="#000000" stroke-width="0.5" stroke-linecap="round" stroke-linejoin="round" d="
		M286.1,273.4c-23.2-14.8-42.3-46.7-74.8-41.5c-8-6-40.4-30.8-40.4-30.8L205,236c0,0-29.2,16.9-31.5,21.6c-2.2,4.8,2.3,4.2,6.8,3.8
		s24.5-6.1,27.2-6.5c9.8-1.5,25,7.3,22.5,18.5"/>
	<path display="inline" fill="none" stroke="#000000" stroke-width="0.5" stroke-linecap="round" stroke-linejoin="round" d="
		M333.7,318.4c-4.2,0.5-24.9-4.8-34.2-13.5c-9.2-8.8-30-24.8-36-27.3"/>
	<path display="inline" fill="none" stroke="#000000" stroke-width="0.5" stroke-linecap="round" stroke-linejoin="round" d="
		M258.8,276.8c-6.1-3.2-38.5-7.7-60.5,7.1c-3-1.5-51.9-26.8-51.9-26.8l43.6,31.3c0,0-22.2,24.5-22.4,26c-0.2,1.5,0.8,5.5,5.5,4
		c4.7-1.5,20.2-10.1,34-12.9c16.5-3.3,35.7-1.7,42.8,19.7"/>
	<path display="inline" fill="none" stroke="#000000" stroke-width="0.5" stroke-linecap="round" stroke-linejoin="round" d="
		M222.8,304.3c0,0,7.6,7.3,19,7.6"/>
	<path display="inline" fill="none" stroke="#000000" stroke-width="0.5" stroke-linecap="round" stroke-linejoin="round" d="
		M354.3,370.1c7.9-4.2,11.7-8.7,13-8.8"/>
	<path display="inline" fill="none" stroke="#000000" stroke-width="0.5" stroke-linecap="round" stroke-linejoin="round" d="
		M334.4,332.8c-2.6,1.8-5.2,3.2-7.9,4.1c-2.1,0.7-7.2-0.8-10-1.4c-6.9-1.6-25.6-44.1-47.2-46.6c-3-5.8-27.7-55-27.7-55l21.7,54
		c0,0-30.2-1.2-31.1,0.5c-0.9,1.8-1.1,5,2.9,7s22.3,9.5,26,11.2c3.8,1.8,15,9,16,25.8s5.3,30.5,8.3,35.2s0.2,18.5,6,24.8
		c5.7,6.2,22.2,17,16.2,103c-0.2,1.8,2.8,1.5,3.5,0.8c0.2-0.2,2.5-5.1,2.5-7.1c-0.3-9.4,2.7-31.1-3-75.9
		c-1.2-9.9-1.9-25.8,12.7-29.9c9.9-2.8,19.1-6.9,26.7-10.7"/>
	<path display="inline" fill="none" stroke="#000000" stroke-width="0.5" stroke-linecap="round" stroke-linejoin="round" d="
		M339.5,328.9"/>
	<path display="inline" fill="none" stroke="#000000" stroke-width="0.5" stroke-linecap="round" stroke-linejoin="round" d="
		M350.2,318.6"/>
	<path display="inline" fill="none" stroke="#000000" stroke-width="0.5" stroke-linecap="round" stroke-linejoin="round" d="
		M368.3,302.6c-4.3,1.1-10.7,8.3-18,16"/>
	<path display="inline" fill="none" stroke="#000000" stroke-width="0.5" stroke-linecap="round" stroke-linejoin="round" d="
		M287.2,378.5c0,0-20.5,11.9-32.5,18.5c-12,6.7-53.7,32.3-57.7,37.3c2.7,1.6,5.1,1.2,7.4,0c2.8-1.4,45-29.7,49.6-31
		c4.7-1.3,34.9-15,34.9-15"/>
	<path display="inline" fill="none" stroke="#000000" stroke-width="0.5" stroke-linecap="round" stroke-linejoin="round" d="
		M320.7,168.4c-5.1-3.5-20.4-47-66.4-34c-4-3.3-38.7-43-38.7-43l32.3,47.5c0,0-20.5,22.5-20.8,23.8c-0.8,3.4,5.2,4.3,14.3-0.3
		c9.1-4.7,34.5-18,37.8,8.3"/>
	<path display="inline" fill="none" stroke="#000000" stroke-width="0.5" stroke-linecap="round" stroke-linejoin="round" d="
		M345.9,81.1c8.3,4.7,10.4-2.3,10.6-4.7c0.1,2-5.8,5.3-9.1,2c-3.3-3.3,4.9-13.4,12.4-10c25.2,11.4-4.8,42.6-25.4,36.7"/>
	<path display="inline" fill="none" stroke="#000000" stroke-width="0.5" stroke-linecap="round" stroke-linejoin="round" d="
		M354.8,80.8c13.9,1.7,5,21.5-6,16.9c7.7-0.6,6.7-6.2,3-6c-2.9,0.2-6.7,0.3-10.1-2c-8.7-6.1,0-30.3,18.1-24.3
		c28.2,9.4,4.5,48.3-22.2,45.4"/>
	<path display="inline" fill="none" stroke="#000000" stroke-width="0.5" stroke-linecap="round" stroke-linejoin="round" d="
		M325.3,153.3c0.3-4.4-7.9-8.6-10.8-10.5c-7.7-5.1-16.9-49.5-43-54.3c0.8-8.2,12.9-53.9,12.9-53.9"/>
	<path display="inline" fill="none" stroke="#000000" stroke-width="0.5" stroke-linecap="round" stroke-linejoin="round" d="
		M284.3,35.1l-20.4,51.5c0,0-25.8-6.8-30-5.2c-4.2,1.6,0.6,6.4,2.1,7.8c1.5,1.4,20.9,16.1,23.4,18.2c2.5,2.1,12.5,8.9,10.8,24.5"/>
	<path display="inline" fill="none" stroke="#000000" stroke-width="0.5" stroke-linecap="round" stroke-linejoin="round" d="
		M290.9,101.1"/>
	<path display="inline" fill="none" stroke="#000000" stroke-width="0.5" stroke-linecap="round" stroke-linejoin="round" d="
		M290.9,101.4c9.6-1.5,21-1,34.7,3.6"/>
	<path display="inline" fill="none" stroke="#000000" stroke-width="0.5" stroke-linecap="round" stroke-linejoin="round" d="
		M290.9,101.4"/>
	<path display="inline" fill="none" stroke="#000000" stroke-width="0.5" stroke-linecap="round" stroke-linejoin="round" d="
		M264.3,111.9"/>
	<path display="inline" fill="none" stroke="#000000" stroke-width="0.5" stroke-linecap="round" stroke-linejoin="round" d="
		M243.6,123c5.7-0.5,12.1-5.8,20.7-11"/>
	<path display="inline" fill="none" stroke="#000000" stroke-width="0.5" stroke-linecap="round" stroke-linejoin="round" d="
		M86.8,111c7.1,0.8,11.4,2.2,16.5,2.2c6.9,0,17.5,1.3,18.6,2.7"/>
	<path display="inline" fill="none" stroke="#000000" stroke-width="0.5" stroke-linecap="round" stroke-linejoin="round" d="
		M75.5,103.1c-5.3,2.5-6.5,7.4,1.4,8.9c2.1,0.4,4.2,0.1,5.4-0.3"/>
	<path display="inline" fill="none" stroke="#000000" stroke-width="0.5" stroke-linecap="round" stroke-linejoin="round" d="
		M238.5,125.5c-4.6,2.2-16.5,0.7-21.5-0.6c-13.2-3.5-56.9-40.5-104.1-33.5c-1.5-8.5-10.2-65.1-10.2-65.1l4.4,66.4
		c0,0-25.4,7.5-28.9,9.5"/>
	<path display="inline" fill="none" stroke="#000000" stroke-width="0.5" stroke-linecap="round" stroke-linejoin="round" d="
		M226.5,107.3c-11.4-4.4-22.3-9.4-23.9-13.9c-2.6-7.2-2.9-13.2-14.6-23.2c-5.5-4.6-32.8-47.8-72.7-25.9c-1.4-0.5-4.3-1.7-10-3.9"/>
	<path display="inline" fill="none" stroke="#000000" stroke-width="0.5" stroke-linecap="round" stroke-linejoin="round" d="
		M254.3,118.6c-1.6-1.8-12-5.3-23-9.4"/>
	<path display="inline" fill="none" stroke="#000000" stroke-width="0.5" stroke-linecap="round" stroke-linejoin="round" d="
		M104.6,55.6c-3.4,5-8,10.8-10.1,14c-3.4,5.1,1.1,10.7,11.3,3.1"/>
	<path display="inline" fill="none" stroke="#000000" stroke-width="0.5" stroke-linecap="round" stroke-linejoin="round" d="
		M105.6,45.1l6,2.6c0,0-3,1.5-4.7,5.6"/>
	<path display="inline" fill="none" stroke="#000000" stroke-width="0.5" stroke-linecap="round" stroke-linejoin="round" d="
		M103.6,39.8c-13.3-5.1-32.7-12.6-32.7-12.6L104.1,44"/>
	<path display="inline" fill="none" stroke="#000000" stroke-width="0.5" stroke-linecap="round" stroke-linejoin="round" d="
		M109.7,70.6c0,0,21.3-14.2,29.6-8.1c5.8,4.3,6.9,10.1,6.7,13.9c-0.1,3.8-6,10.3-2,16"/>
	<path display="inline" fill="none" stroke="#000000" stroke-width="0.5" stroke-linecap="round" stroke-linejoin="round" d="
		M243,144.4c0,0-4.2,0.2-11.7-0.8c-24.6-3.1-70.9-58.9-128.9-17c-4.1-3.7-41.1-41.9-41.5-41.9l36.7,46.1c0,0-4.9,6.4-5.5,7.6"/>
	<path display="inline" fill="none" stroke="#000000" stroke-width="0.5" stroke-linecap="round" stroke-linejoin="round" d="
		M90.3,140.1c0,0-16.6,18.6-16.6,22.6s4.6,2.9,7.4,1.7c2.8-1.1,23-11.9,23-11.9"/>
	<path display="inline" fill="none" stroke="#000000" stroke-width="0.5" stroke-linecap="round" stroke-linejoin="round" d="
		M107.6,150.9c0,0,27.9-16.5,39.5-3.3"/>
	<path display="inline" fill="none" stroke="#000000" stroke-width="0.5" stroke-linecap="round" stroke-linejoin="round" d="
		M285.1,226c-1.9,0.2-9-1.8-15.4-7.9"/>
	<path display="inline" fill="none" stroke="#000000" stroke-width="0.5" stroke-linecap="round" stroke-linejoin="round" d="
		M260.7,210.2c-3-3.8-21.9-35-60-32c-3.5-7-24.3-51.6-24.3-51.6l18,53.4c0,0-29.5,12.8-31.7,14c-2.2,1.2-4,7.3,4.1,7.2
		c8.1-0.2,16.5-0.8,16.5-0.8"/>
	<path display="inline" fill="none" stroke="#000000" stroke-width="0.5" stroke-linecap="round" stroke-linejoin="round" d="
		M186.9,200.6c0,0,40-7.3,40.4,30.7"/>
	<path display="inline" fill="none" stroke="#000000" stroke-width="0.5" stroke-linecap="round" stroke-linejoin="round" d="
		M287.9,247.7c-1.9,1.2-9.5,7.1-28.4,3.6"/>
	<path display="inline" fill="none" stroke="#000000" stroke-width="0.5" stroke-linecap="round" stroke-linejoin="round" d="
		M174.8,214.5c-6-0.4-12.3-0.4-19,0.2"/>
	<path display="inline" fill="none" stroke="#000000" stroke-width="0.5" stroke-linecap="round" stroke-linejoin="round" d="
		M185.2,215.7c-1.4-0.2-2.9-0.4-4.3-0.6"/>
	<path display="inline" fill="none" stroke="#000000" stroke-width="0.5" stroke-linecap="round" stroke-linejoin="round" d="
		M229.4,232.8c-2.8-2.6-16.9-11.4-37.9-15.9"/>
	<path display="inline" fill="none" stroke="#000000" stroke-width="0.5" stroke-linecap="round" stroke-linejoin="round" d="
		M194.4,180.1c-1.2-1.2-8-6.5-13.9-9c-6.3-2.6-22.4-41.7-62.8-13.2c-4.2-3-38.2-28.5-38.2-28.5"/>
	<path display="inline" fill="none" stroke="#000000" stroke-width="0.5" stroke-linecap="round" stroke-linejoin="round" d="
		M79.9,129.7l33.7,32c0,0-8.3,29.3-8.9,31.8c-0.6,2.5-0.9,7.7,1.3,7.6c2.3,0,9.8-5.1,13.6-11.2"/>
	<path display="inline" fill="none" stroke="#000000" stroke-width="0.5" stroke-linecap="round" stroke-linejoin="round" d="
		M121.7,187.5c0,0,8.8-11.9,14-12c25.2-0.4,15.6,32.9,17.8,38.2"/>
	<path display="inline" fill="none" stroke="#000000" stroke-width="0.5" stroke-linecap="round" stroke-linejoin="round" d="
		M178.3,208.7l-8.1,13.4c0,0-14-7.1-18.4-9.4c-4.4-2.3-12.6-6.8-14.8-7c-2.2-0.2-5.9,1-4.5,4c1.4,3,9.8,10.8,11,12.5
		s15.6,17.2,17.1,18.3c1.5,1.1,8.5,15.9,7.2,27.5"/>
	<path display="inline" fill="none" stroke="#000000" stroke-width="0.5" stroke-linecap="round" stroke-linejoin="round" d="
		M182.9,210.3c5.6-13.5,11.5-30.2,11.5-30.2l-15.3,27.3"/>
	<path display="inline" fill="none" stroke="#000000" stroke-width="0.5" stroke-linecap="round" stroke-linejoin="round" d="
		M190,245.3c-0.9-1.9-7.9-14.6-13.7-18.9c0.6-1.7,2.9-7.3,5.7-14"/>
	<path display="inline" fill="none" stroke="#000000" stroke-width="0.5" stroke-linecap="round" stroke-linejoin="round" d="
		M167.5,272c0,3.2-5.3,27.3-4.1,32.7"/>
	<path display="inline" fill="none" stroke="#000000" stroke-width="0.5" stroke-linecap="round" stroke-linejoin="round" d="
		M198.6,257.1c10.5,4.9,5.2,16.7,11.8,20.8"/>
	<path display="inline" fill="none" stroke="#000000" stroke-width="0.5" stroke-linecap="round" stroke-linejoin="round" d="
		M195.2,258c3.5,6.4,3.5,19.9,8.7,22.7"/>

		<polyline display="inline" fill="none" stroke="#000000" stroke-width="0.5" stroke-linecap="round" stroke-linejoin="round" points="
		132.4,207.5 113.7,172.7 132.4,218.8 111.3,226 	"/>
	<path display="inline" fill="none" stroke="#000000" stroke-width="0.5" stroke-linecap="round" stroke-linejoin="round" d="
		M110.7,226.4c0,0-14.3,5.4-15.7,6.8c-1.4,1.3-3.3,5.5,2.7,6.6c6,1.1,14.3,0.6,16.7,1"/>
	<path display="inline" fill="none" stroke="#000000" stroke-width="0.5" stroke-linecap="round" stroke-linejoin="round" d="
		M117.7,240.7c3.4,0,14.7-2,22.6-1.5c11.7,0.8,20.4,4.5,22.6,6.1"/>
	<path display="inline" fill="none" stroke="#000000" stroke-width="0.5" stroke-linecap="round" stroke-linejoin="round" d="
		M277.8,340.8c-1.9,0.1-12-3.2-15.9-5.8c-3.8-2.7-7.7-4.4-6.5-3.5c19.1,14.9,8.4,37,17.2,37c3.6,0,4.7-3.7,6.2-4.5
		c1.5-0.8,4.4,0.8,5.2,1.3"/>
	<path display="inline" fill="none" stroke="#000000" stroke-width="0.5" stroke-linecap="round" stroke-linejoin="round" d="
		M170.9,318.4c2.9,4.9,5.6,8.7,7.8,10.9c14,14,35.4,0.1,47-3.4c27.2-8.3,41.8,11.8,51.7,11.2"/>
	<path display="inline" fill="none" stroke="#000000" stroke-width="0.5" stroke-linecap="round" stroke-linejoin="round" d="
		M286.9,374.7c0,0-2.7-3.5-5.9-2.9c-3.2,0.6-11.6,13-26.3,12.4c-14.8-0.6-12.9-17-18.5-18.3c-5.6-1.3-13.4-0.2-27,10.2
		c-13.6,10.4-42.5,11.3-45.8,10.8s-8.2,3.5-9.8,5.1c-1.5,1.6-44.6,0.3-46.3,1.1c-5.8,2.9,42,26.3,44.6,27.9c0.6,0.4,6.3,1.3,6.3,5.7
		c0,0.3-6.3,0.8-7.9,0c-4.6-2.1-50.1-28.6-50.6-31.7c-0.5-3.1,0.5-7.7,4.3-8.2c3.8-0.5,36.2-5,36.2-5.9c0-0.9-7.7-7.6-6.1-15.5
		c1.6-8,5.2-14.4,2.7-20.2c-2.5-5.8-3.8-39.7-3.8-39.7c-2.1-16.7-39.2-18-43.7-20.5c-2.9-1.6-3.4-4.3-2.3-6.4
		c1.8-3.3,34.7-6.7,34.7-6.7L110,222.7c0,0,15.8,40.4,18.3,47.2c18.8,2.9,29.5,25.1,39.9,43.5"/>
	<path display="inline" fill="none" stroke="#000000" stroke-width="0.5" stroke-linecap="round" stroke-linejoin="round" d="
		M136.4,356.9c-2.7,2.1-35.9-12.8-37.8-10.9c0,0-24.7,28.3-31,43.3c-1.3,3-1.3,4.3-1.2,7.1c4,0,5.5-2,7.4-7.8
		c1-3.1,23.3-36.7,27.7-37.2c3.2-0.4,30.6,21.4,33.3,21"/>
	<path display="inline" fill="none" stroke="#000000" stroke-width="0.5" stroke-linecap="round" stroke-linejoin="round" d="
		M620.2,401.2c-1.6,2.3-3.8,4.8-7.3,5.6"/>
	<path display="inline" fill="none" stroke="#000000" stroke-width="0.5" stroke-linecap="round" stroke-linejoin="round" d="
		M634,397.8c10.3,9.8,27.9,27.8,30.3,29.2c3.5,0,5,1.8,5.5,2.3c2.3,2.6-3.5,0.8-6.7,1.2c-1.7,0.2-23.5-21.5-33.6-30.5"/>
	<path display="inline" fill="none" stroke="#000000" stroke-width="0.5" stroke-linecap="round" stroke-linejoin="round" d="
		M597,363.4c0,0,12,8.2,12.8,19.6c0.4,5.4-0.7,9.1,3.1,10.6"/>
	<path display="inline" fill="none" stroke="#000000" stroke-width="0.5" stroke-linecap="round" stroke-linejoin="round" d="
		M554.5,211.6c3.2,3.5,7.8,10.1,10.3,5.4c2.5-4.6,4.2-11.9,6.8-11.4s34.4-0.1,39.4-1.3c5-1.2,4.5-1.5,6-2.6c1.1-0.9,2.8-1,4.5-0.3
		c3.5,1.2-1.8,2.8-7.2,6.2c-5.1,3.2-36.2,0.3-40.2,3.6s-1.5,12.3-3.3,15.3"/>
	<path display="inline" fill="none" stroke="#000000" stroke-width="0.5" stroke-linecap="round" stroke-linejoin="round" d="
		M580.7,254.1c-5.2-0.6-7.4,6.9-16.7,10.2c-28.5,10.2-29.5-11.9-39.1-13.7"/>
	<path display="inline" fill="none" stroke="#000000" stroke-width="0.5" stroke-linecap="round" stroke-linejoin="round" d="
		M580.7,254.1"/>
	<path display="inline" fill="none" stroke="#000000" stroke-width="0.5" stroke-linecap="round" stroke-linejoin="round" d="
		M584.6,255.7"/>
	<path display="inline" fill="none" stroke="#000000" stroke-width="0.5" stroke-linecap="round" stroke-linejoin="round" d="
		M583.4,246.3c0.8,0.5,1.5,1.3,2.1,2.3c6.1,10.5,27.4,34.1,34.7,33.6c3-0.2,5.6,2,6.8,3.8c1.7,2.5,0.5,2.7-6.8,1.5
		c-12.3-2-32.9-29.9-35.6-31.7"/>
	<path display="inline" fill="none" stroke="#000000" stroke-width="0.5" stroke-linecap="round" stroke-linejoin="round" d="
		M573.9,232.8c8.9-1.5,39,47.8,60.3,20.8c-25.9,27-45.4-24.9-58.3-23.9"/>
	<path display="inline" fill="none" stroke="#000000" stroke-width="0.5" stroke-linecap="round" stroke-linejoin="round" d="
		M607.5,257.5c11.1,2.1,17.5-8.8,21.2-8.8c5.5-2.3-2.2,3.6-2.2,4.5c7.7-5.3,14.3-6.7,22.4,0c-4.3-3.8-7.6,2.4-11.4,4.3
		c-4.3,1.9-8.3,3-12.6,3"/>
</g>
<g id="Layer_4" display="none">
	<rect x="-103.8" y="-25.3" display="inline" fill="#CA2D00" width="772" height="516.7"/>
</g>
<g id="Layer_5" display="none">
</g>
<g id="Layer_3">
	<path fill="#58595B" d="M646.7,251.8c-6-0.5-8.9,8.1-20.8,8.4c2.7-1.4,8.6-6.6,8.5-6.7c-0.1-0.1-10.3,7.7-15.4,7.7
		c-0.1,0-0.2,0-0.4,0c-3.5-0.1-6.8-1.3-10.1-3.3c6.8,0.8,11.8-3.1,15.5-6.1c4.7-3.8,7.9-3.2,7.5-2.8c-3,0.9-5.2,3.8-5.2,4.2
		c0,0.1,0.1,0.2,0.1,0.2c0.1,0,0.2,0,0.3,0C634.4,248.1,640.3,247.6,646.7,251.8z"/>
	<path fill="#58595B" d="M626.8,286c0.5,0.8,0.7,1.3,0.6,1.5c-0.4,0.6-3.8,0.2-7.2-0.4c-9.2-1.5-23.1-17.6-30.6-26.3
		c-2.4-2.8-4.1-4.7-4.8-5.2c-0.4-3.2-0.7-6.2-1.1-8.8c0.6,0.5,1.1,1.1,1.5,1.8c6.3,10.8,27.2,33.7,34.7,33.7c0.1,0,0.2,0,0.2,0
		C623.3,282.2,625.8,284.6,626.8,286z"/>
	<path fill="#414042" d="M622.3,202.3c0,0.6-1.8,1.5-3.7,2.5c-1.4,0.7-2.9,1.5-4.5,2.5c-2.5,1.6-11.5,1.6-20.3,1.7
		c-9.2,0.1-17.9,0.2-20,1.9c-2.5,2-2.5,6.1-2.6,9.8c0,2.3-0.1,4.4-0.7,5.6c-0.5,0.5-1.1,0.9-1.9,1.2c-2.4,0.9-5,1.8-7.1,0.8
		c-1.6-0.8-2.7-2.5-3.6-5.4c-0.3-1.1-0.6-2.2-1-3.5c-0.6-2.2-1.2-4.6-2-6.9c0.2,0.3,0.4,0.5,0.7,0.8c2.3,2.7,5,5.8,7.2,5.6
		c0.9-0.1,1.6-0.7,2.2-1.7c0.8-1.5,1.5-3.2,2.2-4.9c1.4-3.4,2.8-6.7,4.3-6.4c2.6,0.5,34.4-0.1,39.5-1.3c4.2-1,4.6-1.4,5.5-2.2
		c0.2-0.1,0.3-0.3,0.6-0.5c1-0.8,2.5-0.9,4.3-0.3C622.2,202,622.3,202.2,622.3,202.3z"/>
	<path fill="#58595B" d="M591.5,242.3c5.3,6,11,12.5,17.3,16.3c-7.5-3.8-14.7-10.5-21-16.3c-5.7-5.3-10.4-9.6-13.3-9.8
		c0.8-1,1.4-1.8,1.7-2.5C580.5,229.8,585.6,235.6,591.5,242.3z"/>
	<path fill="#58595B" d="M590.1,285.9c3.1,4.1,3.1,6.6,2.8,8.1c-0.2,0.8-0.4,1.3-0.7,1.3c-0.4,0.1-1.4-0.3-3.6-3.1
		c-1.5-1.9-3.3-4.4-4-7.1c-2-6.8-2.5-15.8-3-23c-0.4-7.2-0.7-11.1-1.8-11.8c-0.2-0.1-0.5-0.2-0.7-0.1c-0.4,0.2-1,0.8-1.9,1.9
		c-1.9,2.2-5,5.9-10,8.6c-5.3,2.8-12.7,3.4-18,1.4c-3.6-1.4-6.1-3.9-7.3-7.3c-1.4-3.8-3.2-6.1-5.5-7c-3.9-1.5-9,1-14.8,4.2
		c-0.7,0.4-1.4,0.8-2.1,1.2c-9,5-20.1,11.1-33.2,9.9c4.9-4.3,11.4-10.4,15.8-15.7c8.4-10.2,24.2-16.8,39.2-7.4
		c7.3,4.6,14.7,3.4,19.7,1.7c2.4-0.9,4.6-2,6.7-3.3c0.6,5.7,3.6,8,6.1,8.2c2.7,0.2,5-1.8,5.7-4.8c0.1-0.6,0.5-0.9,0.9-0.9h0
		c0.8,0,2.2,1.1,2.8,4.2c0.7,3.5,1.2,8.5,1.8,13.8C585.9,269.7,587.2,282.1,590.1,285.9z"/>
	<path fill="#58595B" d="M580.4,253.8c-2.6-0.1-4.4,1.6-6.7,3.8c-2.3,2.2-5.2,4.9-9.7,6.5c-19.2,6.9-25.8-1.1-31.1-7.4
		c-2.4-2.8-4.4-5.3-7.3-6.1c4.1-2,7.7-3.2,10.5-2.2c2.2,0.8,3.9,3,5.2,6.7c1.2,3.5,3.9,6.1,7.6,7.6c5.4,2.1,13,1.5,18.4-1.4
		c5.1-2.8,8.3-6.5,10.2-8.7c0.8-0.9,1.4-1.6,1.7-1.7c0.1,0,0.2,0,0.2,0C579.9,251.1,580.2,252.2,580.4,253.8z"/>
	<path d="M640.7,391.6c-2.6-2-6.4-2.1-10.8-0.3c-0.4,0.3-1,0.5-1.7,0.7c-0.1,0-0.3,0-0.3-0.2c0-0.1,0-0.3,0.2-0.3
		c0.1,0,0.2-0.1,0.5-0.2c0.3-0.1,0.7-0.3,1.2-0.5c1.2-0.7,1.5-1.8,1-3.2c-0.1,0.3-0.3,0.6-0.5,0.9c-0.4,0.5-1.2,1-2.6,1
		c-0.5,0-1-0.1-1.6-0.2c-0.5-0.1-0.9-0.1-1.4-0.1c-3.6,0-6.4,3.1-6.4,3.1c0,0,0,0.1-0.1,0.1c-1.2,0.6-3.2,1.1-5.2,1.5h0
		c-2.8,0.5-5.4,0.8-5.6,0.8c-0.6,0-1.1,0-1.6,0c-9.7,0-19.8-2.6-29.5-6.5c-29.2-11.8-54.9-35.4-55.3-35.7
		c-11.4-9.4-26.4-15.7-43.4-18.1c-30.4-4.3-39.4-18-44.2-25.4c-0.4-0.6-0.8-1.2-1.2-1.8c-3.1-4.5-6.3-7-9.4-9.5
		c-1.4-1.1-2.6-2.1-3.9-3.3c-21.5-23.4-41-35.3-58-35.3c-9.5,0-18,3.7-25.2,10.9c-6.8,6.8-9.8,14.2-9.8,14.8c0,0.1,0,0.1-0.1,0.2
		c-0.1,0.1-0.1,0.1-0.2,0.1l-50.4-13.8c12.3,4.7,45.1,17.3,48.7,19c0.1,0,0.2,0.1,0.1,0.2c-0.6,9.5,5.9,20.7,10.7,29
		c0.9,1.6,1.7,3,2.5,4.4c0,0,0,0,0,0c0.5,0.9,0.9,1.7,1.3,2.5c1.6,3.3,3,5,4.2,5c1,0,1.8-1.3,2.3-2.2l0-0.1
		c0.5-0.8,0.6-7.7,0.7-14.3c0.2-7.6,0.3-16.1,1-19.1c0-0.1,0.1-0.2,0.2-0.2c2.8-0.8,5.4-1.2,7.8-1.2c6.6,0,10.9,3.2,13.7,8
		c0,0,0.1,0.1,0.1,0.1c0,0,0,0,0,0c4.6,7.9,5.1,19.8,5.4,27.5c0.1,3.3,0.2,6,0.6,7.3c0.8,2.7,1.9,5.3,2.9,7.6
		c0.9,2.2,3.3,6.7,1.8,8.1c-0.3,0.3-0.9,0.5-1.9,0.5c-4,0-13.6-2.3-21.4-4.2c-3.6-0.9-6.8-1.6-8.7-2c-1.1-0.2-2.2-0.3-3.2-0.3
		c-4.2,0-6.5,2.1-6.5,5.8c0,4.1,36.8,52.2,41.4,56.6c1,0.9,1.5,1.1,1.8,1.1c0.2,0,0.3-0.1,0.4-0.2c0.6-0.8,0-3.4-0.1-3.6
		c-0.7-1.7-6.3-9-12.8-17.4c-9.5-12.2-21.2-27.3-25.4-35.1c-0.2-0.3-0.1-0.5,0-0.7c0.2-0.3,0.5-0.4,1.2-0.4c3.1,0,13.2,3.1,22.6,7.6
		c0.1,0.1,1.3,0.6,1.5,0.7c10.7,4.9,25.2,8.5,26.9,8.9c0.1-0.2,0.3-0.6,0.5-1c1.5-2.9,5.1-9.6,11.5-9.6c2.8,0,5.8,1.3,9,3.9
		c13,10.6,40.9,13.4,50.1,14.3l1.3,0.1c4.8,0.5,21.2,3.4,28.9,19.4c0.8,1.6,1.5,3.1,2.2,4.4c0,0,0,0,0,0c0,0,0,0.1,0,0.1
		c4.7,8.5,7.9,10,12.3,12.2c0.8,0.4,1.6,0.8,2.5,1.2c6.6,3.4,24.4,3.7,24.6,3.7c7.5,0.9,13,25.7,16.7,42.1c1.4,6.2,2.5,11,3.3,13.3
		c1,2.7,2.1,5.5,2.7,5.5c0.2,0,0.4-0.3,0.7-0.6l0-0.1c1.3-1.6,0.8-3.2,0.3-4.7c-0.1-0.4-0.2-0.8-0.3-1.1
		c-10.5-50.8-15.1-60.7-19.7-60.7c-0.8,0-1.7,0.3-2.6,0.6c-1,0.4-2.1,0.7-3.3,0.7c-0.3,0-0.6,0-0.8-0.1c-4.2-0.6-8-3.1-10.4-6.8
		c-2.7-4-3.5-8.9-2.3-13.8c2.1-8.2,4.9-23.3,1-31.6c0-0.1,0-0.2,0-0.2c0.7-1.2,2.7-0.7,5.4,1.5c11.9,9.6,29.5,19.2,47,26.3
		c9.5,3.9,19,7,27.5,9c0,0,0,0,0,0s0,0,0,0c6.7,1.6,12.8,2.5,17.8,2.5c0.9,0,1.8,0,2.6-0.1c6.7-0.5,9.9-2.9,12.5-4.8
		c1.8-1.3,3.2-2.4,5.1-2.4c1,0,2.2,0.3,3.5,1C643.8,394,642.5,392.9,640.7,391.6z"/>
	<path d="M495.8,397.8c0.8,1.6,1.5,3,2.2,4.3c-7.2,5.4-16.4,7.4-21.9,7c-2.3-0.2-4.3,1-5.8,3.3c-2.2,3.4-2.6,8.7-1,11.6
		c0.8,1.4,2,2,3.4,2c3.3-0.1,5.2,2.8,5.5,3.5c0.5,1.7-14.3,7.7-25.1,12.1c-11.9,4.9-19.2,7.9-19.7,9.2c-1.6,4.6-2.8,5.4-3.6,6
		l-0.1,0c-0.5,0.4-1.3,0.8-1.8,0.6c-0.5-0.3-0.8-1.2-0.7-2.5c0.2-2.9,2.1-7.9,5.1-9.2c3.7-1.5,7.6-3.1,11.4-4.6
		c10.9-4.3,20.2-8,22.3-10.3c0.2-0.3,0.3-0.5,0.3-0.9c-0.2-1.3-3-2.9-6.6-5c-6.2-3.5-14.7-8.4-12.5-13.8
		c3.7-9.2,10.7-16.8,15.6-21.6c1.8-1.8-0.3-5.9-5.7-11.3c0-0.1-0.1-0.1-0.2-0.1l0.1-0.8c3.8,0.5,7,0.8,9.2,1l1.3,0.1
		C472,379.1,488.2,382,495.8,397.8z"/>
	<path fill="#58595B" d="M478.2,209.1c0.1,0,0.4,0,2.9,0.2c-5.9,3.7-12.5,8.1-18.6,12.1c-10.2,6.7-19,12.6-22.4,14
		c-2.5,1.1-5.7,1.8-9.4,2.3c-0.8-0.1-7.1-5-9-14.4c-1.5-7.2-11.3-16.2-17.9-21.2c0,0-0.1-0.1-0.1-0.1c-2.4-1.8-4.4-3.1-5.4-3.4
		c-2.4-1-14.4-1-25-1.1c-5.8,0-10.8,0-12.9-0.2c-2-0.2-3.3-0.9-3.7-2.1c-0.4-1.3,0.4-2.9,1.1-3.5c0.4-0.3,3.3-1.6,7.2-3.4
		c0,0,0,0,0,0c6.3-2.8,15.3-6.8,21.1-9.2c0.1,0,0.1-0.1,0.1-0.2c0-0.1,0-0.1,0-0.2l-24.3-35.1c7.8,8.8,29.2,33,29.9,33.9
		c0.1,0.2,0.4,0.2,2.4,0.2c6.4-0.1,26-0.3,44.8,11.7c1.5,1,3,1.9,4.5,2.9c13.3,8.5,24.8,15.9,34.1,16.8
		C478.1,209.1,478.1,209.1,478.2,209.1z"/>
	<path fill="#414042" d="M624.9,228.4c-1.8,2.1-19,5.9-48-5.9c-0.3-0.1-0.6-0.3-0.8-0.5c-0.5-0.3-1-0.6-1.5-0.5
		c-1,0.2-1.4,1.1-1.8,2.2c-0.6,1.4-1.3,3.2-3.9,4.3c-2.4,0.9-5.2,1.9-7.5,0.8c-1.7-0.8-3-2.7-3.8-5.7c-0.3-1.1-0.6-2.2-1-3.5
		c-2-7.5-4.6-16.9-12.4-19.9c0,0,0,0-0.1,0c-0.5-0.4-0.8-0.9-0.7-1.3c0.3-1.2,3-2,5.8-2.6c20-4.8,23.3-14.2,23.9-18.1
		c0.7-5.2-1.9-10.1-6.9-12.8c-3.6-2-8.8-2.8-14.7-1c-3.3,1-6.8,2.9-10.3,5.8c-1.7,1.4-5.6,2.5-8.9,1.8c-2.4-0.6-4.2-2-5.2-4.1
		c-1.4-3.1-0.5-5.2,0.8-6.1c1.6-1.1,4.5-1.1,7.2,1.4c0.4-1.5-7.4-9.3-13.9-1.2c-3.2,4-0.6,8.8,1.9,10.2c-2.8-0.4-4.3-3.4-4-6
		c-2.8,8.6,2.7,12,5.8,13.1c6,2.2,10.8-2,15.8-6.3c3.5-3,7-6.1,11.2-7.3c0.6-0.2,1.2-0.3,1.8-0.4c8.8-1.1,14.2,2.6,16.3,6.6
		c2.1,3.9,1.5,8.5-1.8,12.3c-7.1,8.3-23.6,10.9-30.4,11.6c-1,0.1-2.6,0-4.5-0.2c-7.2-0.6-20.5-1.6-37.4,6.4
		c-3.3,1.6-18.3,10.8-20.6,12.3c-4.1,2.7-8.4,5.5-12.5,8.2c-10.2,6.8-19,12.6-22.5,14.1c-2.5,1.1-5.8,1.9-9.5,2.3c0,0,0,0,0,0
		s0,0,0,0c-7.3,0.9-16,0.6-22.9-1.1c-1.5-0.4-3.6-1.1-6.2-1.9c-15.3-5.1-47.1-15.8-77.1,1c-0.1,0-0.2,0-0.3-0.1
		c-1.4-1.5-21-25.6-27.8-34l23.3,38.7c0.1,0.1,0,0.2,0,0.3c-1.7,1.9-20.3,25.9-20.4,28.5c-0.1,1.1,0.4,2,1.2,2.4
		c1.5,0.8,3.9,0.2,6.6-1.6c4-2.6,24.1-11.8,33-15.3c3.2-1.3,20.9-3.6,25.4,4c16,2,34,13.8,53.5,35.1c1.2,1.1,2.5,2.1,3.8,3.2
		c0.8,0.6,1.6,1.3,2.4,2c0.1-1.8,1-7.3,9.5-9c9.4-1.9,20.3-5.4,22.8-6.9c-4.3-2.8-22.4-10.2-30.5-13.5c-1.9-0.8-3.2-1.3-3.8-1.6
		c-2.5-1.1-4-4.1-3.9-6.4c0-1.3,0.5-2.1,1.4-2.5c2.5-1,40.1,1.1,43.7,1.3l11.2-46.3c0-0.1,0.1-0.1,0.1-0.1c0,0,0.1-0.1,0.2,0
		c0.1,0,0.2,0.1,0.2,0.3l-5,48.6c0.7,0.4,3.9,2.1,7.8,5.2c1.4-1.2,15-12.2,22.5-21.4c8.5-10.3,24.6-17.1,39.8-7.5
		c7.1,4.5,14.4,3.3,19.2,1.6c8.3-3,14.3-9.2,15.1-11.6c0.6-1.7,5.7-0.9,15.5,0.9c12.4,2.2,29.4,5.2,35.6,0.4
		c1.4-1.1,2.2-2.5,2.3-4.3C627.4,226,626.3,226.8,624.9,228.4z"/>
	<path fill="#231F20" d="M379.1,351.1c0.1,0.7,0,1.3-0.3,1.6c-0.1,0.1-0.4,0.3-1.5,0.3c-4,0-13.6-2.3-21.3-4.1
		c-3.6-0.9-6.8-1.6-8.7-2c-1.2-0.2-2.3-0.3-3.3-0.3c-4.5,0-7,2.2-7,6.3c0,1.8,5.5,9.9,12.4,19.6c-9.5,4.8-18.1,8.2-26.3,10.6
		c-14.4,4.1-14.2,19.2-12.9,30.2c4.3,34.4,3.6,54.9,3.1,67.1c-0.1,3.7-0.2,6.6-0.2,8.8c0.1,1.8-2.1,6.5-2.4,6.9
		c-0.4,0.5-1.9,0.7-2.6,0.3c-0.4-0.2-0.5-0.5-0.4-0.9c5.6-80.8-8.4-95.1-15.1-102c-0.4-0.4-0.8-0.8-1.2-1.2
		c-3.3-3.6-3.8-9.8-4.2-15.2c-0.3-4-0.5-7.5-1.8-9.5c-2.2-3.5-5.7-13.2-7.4-26.7c0,0,0,0,0,0c0,0,0,0,0,0c-0.3-2.7-0.6-5.5-0.8-8.4
		c-1.1-18.5-14.6-25.2-16.1-26c-1.6-0.7-5.9-2.6-10.4-4.5c-6.2-2.6-13.3-5.6-15.6-6.8c-1.6-0.8-2.6-1.9-3-3.1c-0.5-1.6,0-3,0.3-3.5
		c0.7-1,16.4-1,30.9-0.4c0.1,0,0.2,0,0.2-0.1c0-0.1,0.1-0.1,0-0.2l-19.3-48c0,0,0,0,0.1,0c4.5,8.9,13.1,26.2,19,37.8c0,0,0,0,0,0
		c2.8,5.6,5,9.9,5.8,11.4c0,0.1,0.1,0.1,0.2,0.1c13.9,1.6,26.6,19.9,35.8,33.2c5.2,7.4,8.9,12.8,11.4,13.4c0.5,0.1,1,0.2,1.6,0.4
		c2.8,0.7,6.7,1.7,8.5,1c2.3-0.8,4.7-2.1,7.3-3.8c-4.3,14.4-11.8,40.8-10.9,44.9c0,0.1,0,0.1,0.1,0.2c0.5,0.3,0.9,0.4,1.4,0.4
		c0.3,0,0.6-0.1,0.8-0.2c1.1-0.5,1.8-2.1,2.2-4.7c1.4-9.3,11.6-39.4,12.9-43.3c0.8,0.9,1.6,1.4,2.3,1.4c1.3,0,2.2-1.5,2.7-2.4l0-0.1
		c0.2-0.3,0.3-1.3,0.4-2.9C347,326.4,354.9,326.1,379.1,351.1z"/>
	<path d="M377,345.2c0.8,1.9,1.6,3.7,1.9,5c-23.2-23.8-31.2-24.4-33-24.1c0.1-1.8,0.2-4.1,0.2-7c1-0.5,2.4-0.5,4-0.2c0,0,0,0,0,0
		c4.1,0.7,9.5,3.3,14.2,5.8c4.6,2.5,8.4,5,9,5.4c0,0,0,0,0,0c0.1,3.4,0.2,6,0.6,7.4C374.8,340.2,376,342.8,377,345.2z"/>
	<path fill="#231F20" d="M368.1,302.9c4.4,7.6,4.9,18.9,5.3,26.5c-2.4-1.6-14.7-9.5-22.6-11c0.9-1,1.8-1.9,2.7-2.8
		C359.4,309.4,364.5,304,368.1,302.9z"/>
	<path fill="#E6E7E8" d="M359.7,65.6c9.7,3.2,14.1,10.4,12.1,19.8c-2.9,13.3-18.1,26.8-34.1,25.2c-0.8-1.4-1.8-3.1-2.7-4.9
		c0-0.1-0.1-0.2-0.1-0.2c1.6,0.4,3.2,0.6,4.9,0.6c12,0,25.3-9.8,28.9-19.8c2.8-7.7-0.4-14.3-8.8-18.1c-1-0.4-1.9-0.6-2.9-0.7
		l0.5-2.4C358.2,65.2,358.9,65.4,359.7,65.6z"/>
	<path fill="#231F20" d="M366.6,361.3c-0.6,0.3-1.3,0.9-2.3,1.7c-2.1,1.7-5.4,4.3-10.1,6.8c-0.1,0-0.1,0.1-0.1,0.2
		c-4.7-6.3-8.7-12.1-10.8-16c-0.1-0.1-0.1-0.2-0.1-0.2c0,0,0.1-0.1,0.8-0.1C347.1,353.7,357.4,356.9,366.6,361.3z"/>
	<path fill="#58595B" d="M354.7,294.9c6.3,0,10.4,3.1,13.1,7.5c-3.7,1.2-8.8,6.6-14.8,12.8c-1,1-1.9,2-2.9,3.1
		c-1.5-0.2-2.9-0.2-3.9,0.2c0-1.1,0.1-2.3,0.1-3.5c0.2-7.4,0.3-15.8,0.9-18.9C349.9,295.3,352.4,294.9,354.7,294.9z"/>
	<path fill="#6D6E71" d="M365,259.1c-1.4-0.1-2.8-0.2-4.2-0.2c-12.6,0-21.4,6.6-26.5,12.1c-1,1-1.9,2.1-2.7,3.2
		c-0.8,0.5-11.6,6.1-21.9,6.3l-23.1-6.3c-1.8-4.9-0.3-11.3,0.9-16.5c0.8-3.6,1.6-6.6,1.1-8.5c-1.3-4.8-3.2-18.1-2.2-27.6
		c0.8-8,1-17.5-1.2-20.1c-0.4-0.5-0.8-0.7-1.3-0.8c0,0-0.1,0-0.1,0c-2.5,0-7.7,7.6-13.4,16.2c-1.4,2-2.5,3.8-3.2,4.8
		c-2.2,3-5.3,4-6.5,3.6c-0.4-0.1-0.6-0.4-0.6-0.7c0-2,2.2-31.7,2.2-32c0-0.1-0.1-0.2-0.1-0.2l-40.8-19.6
		c10.9,3.8,39.7,13.7,42.1,14.3c0.1,0,0.2,0,0.3-0.1c4.2-8.9,11-14.7,19.3-16.3c8.5-1.6,17.3,1.4,24.8,8.6c9.4,9,12.1,24,13.9,34
		c1.2,6.8,2,11.4,4.2,11.6c4.9,0.5,9.7,3.3,12,5.3c-4.5,1.4-9,3.2-13.4,5.7c-2.6-3-29.6-36.2-29.9-36.6c-0.1-0.1-0.2-0.1-0.3,0
		c-0.1,0.1-0.1,0.2-0.1,0.3l25,41.6c-1.9,2.3-20.3,25.9-20.4,28.7c-0.1,1.3,0.5,2.3,1.4,2.9c0.4,0.2,1,0.4,1.8,0.4
		c1.2,0,3-0.5,5.3-2c4-2.6,24-11.7,32.9-15.3C343.4,254.4,360.4,252.3,365,259.1z"/>
	<path fill="#E6E7E8" d="M361.3,85.7c1,3.1-0.4,7.3-3.3,10c-2.4,2.2-5.3,3-8.1,2.2c3.6-0.6,5.1-2.3,5-4c-0.1-1.4-1.4-2.5-3.1-2.3
		c-3.3,0.2-6.8,0.2-9.9-2c-3.9-2.7-4.4-9.4-1.3-15.7c2.8-5.5,8.6-10.5,16.9-8.8l-0.5,2.4c-3.6-0.2-7.5,1.9-9.2,5
		c-4.2,7.5,4.8,11.3,7.5,6.5c-0.4,1.4-2.2,6.2-8.4,2.4c2.5,3.1,6.4,2.6,8.4-0.3C359.5,81.7,360.7,83.9,361.3,85.7z"/>
	<path d="M338,326.8c0.7,1.4,1.4,2.6,2,3.4c-0.7,2.1-11.6,34.1-13,43.7c-0.3,2.4-1,3.9-1.9,4.3c-0.5,0.2-1,0.2-1.6-0.2
		c-1-5.5,11.9-47.8,13.5-53.2C337.4,325.5,337.8,326.1,338,326.8z"/>
	<path fill="#414042" d="M336.7,324.2c-0.2,0.8-1.2,3.9-2.6,8.4c-2.8,1.9-5.3,3.2-7.7,4c-1.7,0.6-5.5-0.4-8.3-1
		c-0.6-0.1-1.1-0.3-1.6-0.4c-2.3-0.5-6.2-6.1-11.1-13.2c-9.3-13.4-22-31.7-36.1-33.4c-0.8-1.5-2.8-5.5-5.4-10.6
		c6.7,3.3,26.5,18.7,35.3,27c8.7,8.2,28.2,13.6,33.7,13.6c0.2,0,0.3,0,0.5,0c0.2,0.4,0.5,0.8,0.7,1.2
		C335.2,321.4,336,322.9,336.7,324.2z"/>
	<path fill="#58595B" d="M333.3,318.2c-5,0.2-24.8-5.1-33.6-13.5c-9.1-8.6-29.8-24.7-36-27.4c-5.7-11.3-14.1-27.9-18.6-37
		c7.3,4.8,14.1,10.9,20.7,16.9c6.8,6.1,13.1,11.9,20,16.3c0,0.1,0.1,0.2,0.1,0.4l-15.5-4.2c-0.1,0-0.3,0-0.3,0.2
		c0,0.1,0,0.3,0.1,0.3c0.5,0.2,47.9,18.4,53.2,20.7C323.1,299.7,328.7,310.1,333.3,318.2z"/>
	<path fill="#58595B" d="M330.9,275c-3.3,4.5-5.1,8.5-5.4,9.7l-14.2-3.9C319.7,280.2,328.1,276.4,330.9,275z"/>
	<path fill="#808285" d="M288,249.2c0.5,1.7-0.2,4.8-1.1,8.2c-1.1,4.7-2.5,10.5-1.3,15.3c-6.7-4.4-12.9-10-19.5-15.9
		c-1.9-1.7-3.9-3.5-5.8-5.2c3.6,0.6,7,0.9,10.2,0.9c7,0,12.7-1.5,17.2-4.6C287.8,248.5,287.9,248.9,288,249.2z"/>
	<path fill="#939598" d="M287.6,247.5l-0.2,0.1c-6.6,4.4-15.9,5.6-27.8,3.4c-4.8-4.2-9.8-8.2-15-11.6c-1.7-3.4-2.8-5.6-2.9-5.7
		c-0.1-0.1-0.2-0.2-0.3-0.1c-0.1,0.1-0.2,0.2-0.1,0.3l1.8,4.6c-4.3-2.6-8.8-4.7-13.7-6c-0.4-0.3-1-0.9-2-1.5
		c-0.2-10.8-3.5-18.9-10-24.2c-11.1-9.1-27.9-6.9-30.4-6.6c4-10.4,7.4-20,7.5-20.1c0,0,0,0,0-0.1c0,0,0,0,0-0.1c0,0,0,0,0,0
		L178,130.8c5.2,11.1,19.6,41.9,22.5,47.6c0,0.1,0.1,0.2,0.2,0.1c23.2-1.8,43,8.4,58.8,30.5c0.4,0.6,0.7,1,1,1.3
		c-0.5,6.8-0.9,13.2-0.9,14.1c0,0.6,0.3,1,0.9,1.2c1.6,0.5,4.8-0.9,7-3.8c0.5-0.7,1.3-1.9,2.2-3.3c5.9,5.6,12.5,7.7,14.9,7.8
		c0.1,0,0.6,0.1,0.9,0C285.4,234,286.6,242.8,287.6,247.5z"/>
	<path fill="#231F20" d="M286.9,378.9c0.3,3.2,0.6,6.5,1.7,9.4c-2.6,1.2-30.3,13.6-34.7,14.9c-3.2,0.9-24.1,14.5-37.8,23.4
		c-6.2,4-11,7.2-11.9,7.6c-2.5,1.3-4.6,1.3-6.9,0.1c5-5.5,46-30.7,57.4-37C265.8,391.2,284.2,380.5,286.9,378.9z"/>
	<path d="M285.1,367.8c0.9,1.4,1.2,3.6,1.5,6.2c-0.9-1-3.1-2.9-5.7-2.4c-1,0.2-2.4,1.3-4.3,2.9c-4.4,3.7-11.6,9.9-22,9.5
		c-9.1-0.4-11.8-6.8-13.9-12.1c-1.3-3.1-2.3-5.8-4.5-6.3c-4.5-1.1-12.3-1.2-27.2,10.3c-13.4,10.3-42.4,11.3-45.6,10.8
		c-3.4-0.5-8.5,3.6-10,5.2c-0.9,0.8-16.7,0.8-28.3,0.7c-11,0-17.2-0.1-17.9,0.3c-0.5,0.3-0.6,0.6-0.6,0.9c0,3.5,20,14.4,39.6,24.5
		c3,1.6,5.2,2.7,5.6,3c0.1,0.1,0.4,0.2,0.8,0.3c1.6,0.5,5.3,1.7,5.4,5c-0.9,0.3-6.1,0.6-7.6-0.1c-5-2.3-50-28.6-50.4-31.5
		c-0.3-1.8,0-4.5,1.2-6.2c0.7-1,1.7-1.5,2.8-1.7c2.1-0.3,11.1-1.5,19.5-2.8c16.9-2.6,16.9-3,16.9-3.4c0-0.3-0.3-0.7-1.1-1.7
		c-2-2.5-6.2-7.8-5-13.8c0.5-2.3,1.1-4.5,1.7-6.6c1.5-5.1,2.8-9.5,0.9-13.8c-2.4-5.7-3.7-39.3-3.7-39.7
		c-1.6-12.9-23.1-16.6-35.9-18.9c-3.9-0.7-7-1.2-8-1.8c-1.3-0.7-2.2-1.7-2.5-2.9c-0.3-1.1-0.2-2.2,0.4-3.2c1.4-2.6,25.3-6,34.3-7.4
		c0.1,0-10.4-45.2-10.4-45.2c3.9,9.9,14.9,38.3,17,43.8c0,0.1,0.1,0.1,0.2,0.2c17.1,2.6,27.7,21.8,37.1,38.7
		c0.9,1.5,1.7,3.1,2.6,4.6c-0.4,0.5-0.6,0.9-0.7,1.1c-0.1,0.9,0.1,2.7,1.4,3.8c0.5,0.4,1.2,0.8,2.2,0.8c2.7,4.6,5.4,8.3,7.6,10.5
		c11.3,11.3,27.4,4.6,39.2-0.3c2.9-1.2,5.7-2.4,8.1-3.1c18-5.5,30.5,1.5,39.7,6.6c4.6,2.6,8.3,4.6,11.6,4.6c0,0,0.1,0,0.2,0
		c0.1,1.1,0.2,2.1,0.3,3.2c-2.4-0.2-11.8-3.2-15.4-5.8c-1.3-0.9-6.6-4.3-7.1-3.7c-0.2,0.2,0.1,0.5,0.3,0.6
		c11.1,8.7,12,19.6,12.7,27.6c0.5,5.5,0.8,9.5,4.7,9.5h0c2.6,0,3.9-1.7,5-3.1c0.5-0.6,0.9-1.2,1.4-1.4c1.3-0.7,3.8,0.6,4.9,1.3
		C284.2,366.4,284.7,367.1,285.1,367.8z"/>
	<path fill="#BCBEC0" d="M284.7,201.6c2,2.5,1.9,11.8,1.1,19.7c-0.1,1.5-0.1,4.4-0.1,4.4c0,0-0.8,0-1,0c-2.3-0.1-8.8-2.2-14.6-7.7
		c0.2-0.4,0.5-0.7,0.7-1.1c4-6,10.7-16.2,13-15.9C284.1,201.1,284.4,201.3,284.7,201.6z"/>
	<path fill="#414042" d="M277.6,341.1c1.3,9.9,3.6,18.5,5.9,23.6c-1.4-0.8-3.5-1.6-4.8-0.9c-0.5,0.3-1,0.9-1.5,1.6
		c-1,1.3-2.2,2.9-4.5,2.9h0c-3.4,0-3.7-3.6-4.2-9c-0.6-7.4-1.6-18.5-12-27.2c1.2,0.6,3.2,1.7,5.3,3.2
		C265.5,337.8,275.2,340.9,277.6,341.1z"/>
	<path fill="#BCBEC0" d="M279.1,171.1c-6.7,2.4-12.1,7.7-15.7,15.3c-4.3-1.2-45.6-15.5-46-15.7c-0.1,0-0.3,0-0.3,0.1
		c-0.1,0.1,0,0.3,0.1,0.3l44.6,21.4c-0.1,1.4-0.7,9.4-1.2,17c-0.2-0.2-0.4-0.5-0.6-0.8c-15.8-22.2-35.7-32.5-59.1-30.7
		c-3.7-7.4-24.1-51-24.2-51.4c-0.1-0.1-0.2-0.2-0.3-0.1c-0.1,0-0.2,0.2-0.1,0.3l17.7,52.6c-2.2-1.9-8.1-6.3-13.3-8.4
		c-1.2-0.5-2.9-2.6-5.1-5.2c-4.3-5.2-10.7-13-20.1-16.5c-2.6-1-5.3-1.6-8.1-1.8c-10.8-12.2-35.6,1-39.3,3
		c-4.8-3.6-15.6-11.8-15.6-11.8c0.6-1.2,5.5-7.8,5.5-7.9c0.1-0.1-34.3-43.1-34.3-43.1c3.4,3.4,9.4,9.5,15.3,15.5
		c10,10.1,23,23.9,23.1,23.8c41.8-30.2,78.1-9.7,104.1,5.3c9.9,5.7,18.5,10.7,25.3,11.6c5.5,0.7,9.3,0.8,10.9,0.8c0.1,0,0.2,0,0.3,0
		c-6.2,6.8-15.2,17-15.4,18c-0.2,1,0.1,1.8,0.8,2.3c1.8,1.4,6.8,1.2,13.8-2.4l0.4-0.2c6.6-3.4,20.4-10.5,29.3-5.8
		c4.1,2.2,6.7,6.7,7.7,13.6C279.1,170.4,279.2,171,279.1,171.1z"/>
	<path fill="#414042" d="M277.1,336.9c-3.2,0.1-6.9-2-11.5-4.6c-4.4-2.4-9.5-5.3-15.5-7c0,0,0-0.1,0-0.1c-1.9-5.8-4.8-10.1-8.2-13.3
		c0-0.1-0.1-0.1-0.1-0.1c-5.4-5-12.1-7.1-19-7.6c-0.1,0-0.1,0-0.2,0c-5.3-0.4-10.7,0.2-15.7,1.2c-9.7,1.9-20.2,6.8-27.2,10
		c-3.1,1.4-5.5,2.5-6.9,2.9c-0.6,0.2-3,0.6-3.9-0.4c-1.1-0.9-1.4-2.5-1.2-3.3c0.2-1.1,13.5-16.1,22.4-25.9c0,0,0.1-0.1,0.1-0.2
		c0-0.1-0.1-0.1-0.1-0.2l-22.4-16c0,0,0-0.1,0-0.1c0-0.1-0.1-0.2-0.2-0.2c-0.1,0-0.1,0-0.2,0.1l-18-13c10.8,5.6,46.3,24,48.9,25.2
		c0.1,0,0.2,0,0.2,0c11.9-8,26.2-10,36.1-10.3c11.8-0.3,21.2,1.6,24.1,3.2l4.3,10.7c-5.9-0.2-30.1-1.1-31,0.7
		c-0.3,0.6-0.9,2.1-0.3,3.9c0.5,1.4,1.6,2.6,3.3,3.4c2.3,1.2,9.4,4.1,15.6,6.8c4.5,1.9,8.8,3.7,10.4,4.5c1.5,0.7,14.8,7.4,15.9,25.5
		C276.9,333.9,277,335.4,277.1,336.9z"/>
	<path fill="#E6E7E8" d="M264.3,112.3c3.3,3.8,6.7,10,5.6,19.5c-4.9,0.1-10.1,0.8-15.5,2.3c-1.3-1.1-4.8-4.9-9.8-10.4
		c2.9-0.9,5.8-2.7,9.5-5c0.1,0,3-1.9,4.4-2.8C260.4,114.7,262.3,113.5,264.3,112.3z"/>
	<path fill="#58595B" d="M243.5,239.3l14.8,36.9c-3.9-1.7-15.1-3.8-28.1-2.8c0,0,0,0,0,0c1.1-5.1-1.4-9.1-3.7-11.5
		c-4.7-5.1-12.9-8.2-19.1-7.2c-1.1,0.2-4.9,1.1-9.3,2.3c-6.8,1.7-15.2,3.9-17.9,4.2c-2.9,0.3-6,0.7-6.8-0.5
		c-0.4-0.6-0.3-1.5,0.3-2.9c1.2-2.8,16.4-12.4,16.4-12.5c7.5-4.8,14.8-9,15-9.1c0.1,0,0.1-0.1,0.1-0.2c0-0.1,0-0.2-0.1-0.2
		l-31.7-32.4c8,6.1,31.1,23.8,37.6,28.7c0.1,0,0.1,0.1,0.2,0.1C223.7,230.1,234.1,233.6,243.5,239.3z"/>
	<path fill="#F2F2F2" d="M253.8,118.4c-3.8,2.3-6.5,3.9-9.6,4.8c-3.6-4-8.1-9.1-12-13.5C238.4,114.4,250.1,118.7,253.8,118.4z"/>
	<path fill="#808285" d="M421.3,223.4c1.7,8.1,6.6,13,8.7,14.4c-7,0.8-15.3,0.4-21.9-1.2c-1.5-0.4-3.6-1.1-6.2-1.9
		c-13-4.4-37.8-12.7-63.3-5c-1.9-1.8-6.1-4.3-10.5-5.3c0-0.1,0-0.1,0-0.2c-13.9-33.1-7.6-55.7-2.9-70.9c0,0.1,0.5-1.7,0.6-2
		c2.3-7.4,3.8-12.9,2-17.1c-2.4-5.7-2.4-20.8-2.1-29c0.1,0,0.1-2.9,0.1-3.7c0-0.8,0.1-1.4,0.1-1.6c0.2-2.1,1.8-3.2,3.1-3
		c0.7,0.1,3.5,5.2,5.6,9c1.7,3.1,3.2,6,4.3,7.4c1.3,1.8,2.4,3.8,3.4,5.4c0.9,1.5,1.5,2.7,2,3.2c0.1,0,0.1,0.1,0.2,0.1
		c0.1,0,0.1,0,0.2-0.1c0.9-0.9,27.8-24.5,37.9-33.3c-8.2,8.6-28.9,30.1-36.4,37.4c-0.1,0.1-0.1,0.2-0.1,0.2
		c5.1,17.9,7.8,29.7,9.6,37.5c1.8,7.6,2.6,11.3,4,13.7c0.1,0.3,0.5,0.7,0.9,1.3c1.6,2.4,5,7.3,4.4,9.2c-3.9,1.7-6.8,3.1-7.2,3.4
		c-0.8,0.6-1.7,2.4-1.2,4c0.3,1,1.2,2.2,4.1,2.5c2.1,0.2,7.1,0.2,12.9,0.2c0.4,0,0.9,0,1.3,0c6.8,2.8,14,5.3,21.5,5.3
		c2.4,0,4.9-0.3,7.3-0.8C410.1,207.5,419.8,216.3,421.3,223.4z"/>
	<path fill="#E6E7E8" d="M327.3,134.5c1.7,4.1,0.2,9.5-2.1,16.9c-1.3-3.1-6-6-9-7.8c-0.6-0.4-1.1-0.7-1.6-1c-2.4-1.6-5-7.2-8.3-14.4
		c-3.9-8.4-8.6-18.6-14.9-26.6c10.6-1.6,21.6-0.4,33.8,3.6C324.9,113.4,324.9,128.7,327.3,134.5z"/>
	<path fill="#A7A9AC" d="M327.5,224.4c-0.5-0.1-1-0.2-1.5-0.2c-1.8-0.2-2.7-5-3.8-11.2c-1.8-10-4.5-25.2-14.1-34.3
		c-7.6-7.2-16.6-10.3-25.2-8.7c-1.1,0.2-3.3,0.8-3.3,0.8s-0.1-0.7-0.1-1c-1-6.8-3.7-11.4-7.9-13.6c-9.1-4.8-23.1,2.3-29.8,5.8
		l-0.3,0.2c-6.9,3.5-11.6,3.8-13.3,2.5c-0.6-0.4-0.8-1.1-0.6-1.9c0.3-1,12.5-14.7,20.7-23.7c0.1-0.1,0.1-0.2,0-0.3l-21.5-31.6
		c0,0,0,0,0,0l-8.5-12.6c8.3,9.4,32.6,37.2,36,39.9c0.1,0.1,0.1,0.1,0.2,0.1c37.2-10.5,53.9,15.7,62,28.3c1.8,2.9,3.2,5,4.2,5.7
		c0,0,0,0,0.1,0C318,182.7,317.6,200.9,327.5,224.4z"/>
	<path fill="#D1D3D4" d="M315.9,144c3.1,1.9,8.2,5,9,8.2c-1.4,4.6-3,9.9-4.2,15.9c-0.9-0.7-2.2-2.7-3.9-5.4
		c-4-6.4-10.2-15.9-20.1-22.9c-7.8-5.4-16.6-8.1-26.3-8.1c1.1-9.8-2.4-16.1-5.9-20c0,0,0,0,0,0c-1.6-1.9-3.3-3.2-4.3-4.1
		c-0.2-0.2-0.5-0.4-0.7-0.5c-1.2-1-6.5-5.1-11.6-9.1c-5.4-4.2-11-8.5-11.7-9.2c-1.2-1.1-4.1-4-3.7-5.9c0.1-0.7,0.6-1.1,1.5-1.5
		c4.1-1.6,42.7,8.4,42.9,8.4c0.1,0,25-58.1,25-58.1c-1.7,15.2-19.4,60.3-19.4,60.7c4.3,2.8,6.1,6.1,8.2,8.8l0,0
		c0,0.1,0.1,0.1,0.1,0.2c6.4,8,11.2,18.2,15.1,26.8c3.3,7.2,6,12.9,8.5,14.6C314.8,143.3,315.3,143.6,315.9,144z"/>
	<path fill="#E6E7E8" d="M238.7,125.7l9,13.3c-0.7,0.8-2.5,2.8-4.8,5.3c-0.6,0-4.8,0.1-11.6-0.8c-6.8-0.9-15.3-5.8-25.1-11.5
		c-22-12.7-50.7-29.4-84.3-16.3c-1.8-1.5-12.3-2.7-18.6-2.7c-2.9,0-5.6-0.5-8.8-1c-2.2-0.4-4.7-0.8-7.6-1.2
		c-2.5-2.6-5.2-5.3-7.7-7.8c-0.2-0.2-0.5-0.5-0.7-0.7c4.3-2.2,28.3-9.2,28.6-9.3c0.1,0,0.2-0.1,0.2-0.3L106,72.8
		c0.1-0.1,0.1-0.2,0-0.3c0,0,0,0,0,0l-1.1-16.9c0,0,0,0,0,0l-0.8-11.3c0,0,0,0,0.1,0c0.1,0,0.2,0,0.2-0.1c0.1-0.1,0-0.3-0.1-0.3
		l-0.2-0.1l-0.2-3.8c0,0,0,0,0-0.1c0-0.1,0-0.2-0.1-0.2l-0.5-7.7c2.3,14.5,8.2,52.7,9.4,59.5c0,0.1,0.2,0.2,0.3,0.2
		c35-5.2,68.3,14,88.1,25.4c7,4,12.4,7.2,15.9,8.1c3.3,0.9,9.1,1.8,14.2,1.8C234.1,126.9,236.9,126.6,238.7,125.7
		C238.6,125.7,238.7,125.7,238.7,125.7z"/>
	<path fill="#6D6E71" d="M241.6,312.2c3.3,3.1,6.1,7.3,8,12.9c-6.7-1.9-14.6-2.3-24,0.5c-2.4,0.7-5.1,1.9-8.1,3.1
		c-11.6,4.8-27.6,11.4-38.6,0.4c-2.1-2.1-4.7-5.7-7.4-10.2c0.5,0,1-0.1,1.6-0.3c1.4-0.5,3.9-1.6,6.9-3c7-3.2,17.5-8,27.1-9.9
		c4.9-1,10.3-1.5,15.6-1.2C223.7,305.5,231,311.8,241.6,312.2z"/>
	<path fill="#F1F2F2" d="M226.3,107.5l12.1,17.8c0,0,0,0,0,0c-4.5,2.2-16.1,0.8-21.3-0.6c-3.4-0.9-8.9-4-15.8-8
		c-13.9-8-34.2-19.7-57.1-24.3c-2.6-3.7-0.8-7.7,0.7-11.3c0.7-1.8,1.4-3.3,1.4-4.6c0.1-3.3-0.6-9.5-6.8-14.1c-8-5.9-27.4,6.5-29.7,8
		c-0.9-5.4-1.8-11.3-2.7-16.9c1.6-3.9,4.5-5.3,4.5-5.4c0.1,0,0.1-0.1,0.1-0.2c0-0.1-0.1-0.2-0.2-0.2l-5.8-2.6
		c-0.2-1.5-0.5-3-0.7-4.4c0,0,0,0,0.1,0c5.7,2.2,8.7,3.3,10,3.9c0.1,0,0.2,0,0.2,0c34.2-18.8,59.5,10.8,68.9,22
		c1.6,1.9,2.7,3.2,3.5,3.9c9.9,8.4,11.6,13.9,13.4,19.8C201.5,90.7,211.1,101.6,226.3,107.5z"/>
	<path fill="#808285" d="M223.5,304.7c6.3,0.6,12.5,2.6,17.5,7C232,311.1,225.5,306.3,223.5,304.7z"/>
	<path fill="#808285" d="M226.2,262.2c2.2,2.4,4.6,6.2,3.6,11.1c0,0.1,0,0.1,0,0.2c-6.3,0.5-12.9,1.7-19.3,4
		c-2.7-1.7-3.3-4.9-3.9-8.3c-0.8-4.3-1.7-9.2-7.2-12.1c3.9-1,7.2-1.8,8.2-2C213.6,254.2,221.6,257.3,226.2,262.2z"/>
	<path fill="#808285" d="M227.2,231.4c0.5,0.3,0.8,0.6,1.2,0.8c-5.3-1.3-10.9-1.6-17-0.6c-3.4-2.6-11-8.4-18.8-14.3
		C210.1,221.3,222.2,228,227.2,231.4C227.1,231.4,227.1,231.4,227.2,231.4z"/>
	<path fill="#A7A9AC" d="M217.2,207.2c6.3,5.2,9.6,13.1,9.8,23.5c-5.3-3.5-17.6-10.3-35.4-14.1c-2.9-2.2-5.8-4.4-8.5-6.5
		c1.3-3,2.6-6.2,3.8-9.4C187.5,200.7,205.6,197.6,217.2,207.2z"/>
	<path fill="#808285" d="M185,215.9l19.6,20c-1.5,0.9-7.9,4.6-14.6,8.9c-1.5-3-7.9-14.3-13.4-18.5c0.5-1.5,2-5.2,4.4-10.9
		C182.4,215.5,183.8,215.7,185,215.9z"/>
	<path fill="#6D6E71" d="M198,267.9c1.2,5.3,2.4,10.7,5.3,12.7c-1.7,0.9-3.4,1.9-5.1,3c-2.2-1.1-17.1-8.8-30.3-15.7
		c1.3-11.9-5.7-26.5-7.3-27.6c-1.5-1.1-15.9-16.7-17-18.3c-0.4-0.6-1.8-2-3.4-3.7c-2.8-2.9-6.7-6.9-7.6-8.8c-0.4-0.8-0.4-1.6,0-2.2
		c0.8-1.1,2.7-1.6,4.2-1.5c1.8,0.1,33,16.2,33.2,16.3c0.1,0.1,0.3,0,0.3-0.1l7.9-13.1l3.3,3.4c-2.2,5.3-4.9,11.9-5.6,13.8
		c0,0.1,0,0.2,0.1,0.3c5.5,4.1,12.1,15.8,13.4,18.5c-7.5,4.8-15.1,10.1-16.3,12.5c-0.7,1.5-0.8,2.6-0.3,3.4c1,1.4,4.1,1.1,7.3,0.7
		c2.3-0.3,8.7-1.9,14.8-3.4C196.4,260.8,197.2,264.4,198,267.9z"/>
	<path fill="#939598" d="M193.8,180.6l-11,19.6c-1.5,0.1-6.4,0.4-11.9,0.6c0,0,0,0,0,0c-1.3,0.1-2.7,0.1-4.1,0.1
		c-3.1,0.1-5.1-0.9-5.6-2.6c-0.4-1.6,0.5-3.5,1.6-4.1C164.8,193.2,189.4,182.5,193.8,180.6z"/>
	<path fill="#6D6E71" d="M179.4,207.3l13.7-24.5c-1.9,5.3-6.2,17.1-10.4,27.1C181.6,209,180.5,208.1,179.4,207.3z"/>
	<path fill="#6D6E71" d="M167.7,272.7l21.9,15.7c-2.6,2.9-17.4,19.2-21.3,24.4c-0.8-1.4-1.6-2.9-2.4-4.4c-0.7-1.3-1.4-2.6-2.1-3.8
		c-0.8-3.6,1.2-15.2,2.7-23.7C167,277.2,167.6,274.2,167.7,272.7z"/>
	<path fill="#CCCCCC" d="M182,212.9l2.4,2.5c-1-0.2-2.1-0.3-3.3-0.4C181.5,214.2,181.7,213.6,182,212.9z"/>
	<path fill="#A7A9AC" d="M182.5,200.8L179,207c-3.6-2.7-6.3-4.8-7.4-5.7C176.4,201.1,180.8,200.9,182.5,200.8z"/>
	<path fill="#808285" d="M174.3,214.8l-4.2,7c-1.3-0.6-8.1-4.1-13.4-6.8C162.6,214.4,168.5,214.4,174.3,214.8z"/>
	<path fill="#808285" d="M160.4,240.8c0.4,0.3,1.4,1.9,2.4,4.2c-2.4-1.6-10.9-5.2-22.5-6c-5.2-0.4-22,1-23.2,1
		c-0.7-1.6-4.1-10.5-5.4-13.8l20.8-7.1c0.1,0,0.1-0.1,0.1-0.1c0-0.1,0-0.1,0-0.2l-17-41.8l16.5,30.6c-0.3,0.5-0.4,1.3,0.1,2.4
		c0.9,2,4.7,5.8,7.7,8.9c1.6,1.6,2.9,3,3.3,3.6C144.5,224.1,158.7,239.6,160.4,240.8z"/>
	<path d="M136,357.3c-0.1,0.5-1.7,5.8-2.1,8.1c-0.5,2.4-0.1,4.7,0.6,6.8c-1.9-0.5-9-5.5-15.3-9.9c-9.6-6.8-16-11.2-17.6-11
		c-4.9,0.6-27.2,35-27.9,37.4c-1.9,5.8-3.4,7.5-6.9,7.6c-0.2-2.6-0.1-3.9,1.2-6.8c6.2-14.8,30.7-42.9,30.9-43.2
		c0.8-0.8,9.9,2.5,17.2,5.2C126.4,355.2,133.7,357.7,136,357.3z"/>
	<path fill="#A7A9AC" d="M166.8,201.5c-4.6,0.1-5.8-1.8-6.1-3c-0.5-1.8,0.6-3.9,1.8-4.6c2.1-1.1,27.9-12.4,31.3-13.9
		c-1.8-1.6-8-6.4-13.6-8.7c-1.3-0.6-3-2.6-5.3-5.3c-5.6-6.7-14.2-17.1-27.8-18.2c-0.1,0-0.1,0-0.2,0c-7.9-0.6-18,2.2-29.6,10.5
		c-0.2,0-28.5-21.5-34.1-25.8c1.1,1,31.1,29.1,31.1,29.2c0,0.1-1.4,4.6-3.1,10.2c-2.6,8.7-6,20.1-6.4,21.6c-0.5,2.1-0.7,5.7,0.3,6.9
		c0.2,0.3,0.5,0.4,0.8,0.4c2.2,0,10.2-5.9,14-11.9l-6.5-16.1c0-0.1,0-0.2,0-0.2c0,0,0.1-0.1,0.1-0.1c0.1-0.1,0.3,0,0.3,0.1l7.8,14.5
		c1.4-1.9,9.1-11.7,14-11.8c5.4-0.1,9.7,1.4,12.7,4.5c6.2,6.4,5.6,18.4,5.1,26.3c-0.2,3.2-0.3,5.9,0.1,7.2c0.7,0.4,1.5,0.8,2.3,1.2
		c6.2-0.6,12.5-0.7,18.7-0.2l3.4-5.6l-7.2-7.4C169.5,201.4,168.1,201.4,166.8,201.5z"/>
	<path fill="#808285" d="M110.7,226.7l3.3,13.8c-1-0.1-2.5-0.1-4.4-0.2c-3.4,0-8.2-0.1-11.9-0.8c-2.2-0.4-3.4-1.2-3.8-2.4
		c-0.4-1.4,0.6-3.1,1.3-3.7C96.3,232.3,105.8,228.5,110.7,226.7z"/>
	<path fill="#F1F2F2" d="M104.4,56.4l1.1,16.2c-5.7,4.2-9.4,4.1-11,2.6c-1.3-1.2-1.2-3.4,0.2-5.5c1-1.5,2.5-3.5,4.2-5.7
		C100.6,61.6,102.6,58.9,104.4,56.4z"/>
	<polygon fill="#F1F2F2" points="103.3,39.9 103.5,43.4 75.4,29.1 	"/>
	<path fill="#BCBEC0" d="M103.7,152.6c-2.3,1.2-20.2,10.7-22.7,11.7c-1,0.4-4.5,1.7-6.1,0.6c-0.6-0.4-0.9-1.1-0.9-2.1
		c0-3.9,16.4-22.3,16.6-22.5C90.6,140.3,103.7,152.6,103.7,152.6z"/>
	<path fill="#E6E7E8" d="M75.4,103.4l6.5,8.1c-1.2,0.3-3,0.5-4.9,0.2c-3.3-0.6-5.2-1.9-5.4-3.6C71.3,106.5,72.8,104.7,75.4,103.4z"
		/>
	<g>
		<path fill="#E6E6E6" d="M339,112.1c0.3,0.5,0.6,0.9,0.8,1.2c1.3,1.8,4.2,7,4.7,7.8c0,0,2.3-2,4.1-3.6
			C345.3,114.7,342,113.8,339,112.1z"/>
		<path fill="#E6E6E6" d="M371.1,153.2c0.9-2.6,1.5-5.4,2.1-7.9c0.9-4,1.7-7.2,2.9-7.7c0.3-0.1,0.6-0.1,0.9,0
			c2.8,1.3,9,9.2,16.2,18.4c2.5,3.2,5.1,6.5,7.6,9.6c2.1,2.6,7.4,3,10.3,2.3c1.3-0.3,2.1-0.8,2.2-1.4c0.1-0.6-0.5-1.2-1.1-1.6
			l-0.1,0c-0.8-0.6-1.9-1.5-6.8-1.7c-1.4-0.1-6.4-6.2-14.5-16.2c-7.3-9.1-17.3-21.5-18.8-20.6c-0.7,0.4-2.9,3.1-1.8,6.2
			c0.4,1.4,0.1,2.7-1,3.8c-1.2,1.3-9.2-6.9-17.9-14.6c-1.7,1.7-3.2,3.2-4.4,4.4c-0.1,0.1-0.1,0.2-0.1,0.2c4.4,15.5,7,26.3,8.8,34
			c2.8,0.4,5.5,0.6,7.8,0.9c3.1,0.3,4.9-1.5,6.4-5.1c0,0-8.7-12.7-8.8-13.7C362,143,368,149.6,371.1,153.2z"/>
	</g>
	<polygon fill="none" points="342.1,118.7 342.1,118.7 342.1,118.7 	"/>
	<path fill="#CCCCCC" d="M360.9,178.5c2.5,3.6,4.7,7.2,4.5,9.2c6.1-2.7,14.1-6.2,18.4-8.1c-2.3-0.6-4.9-1-7.6-1.1
		c-5.8-0.2-12-2.9-18.2-6.7c0.7,2.4,1.2,4.1,1.9,5.3C360.2,177.5,360.5,177.9,360.9,178.5z"/>
	<path fill="#CCCCCC" d="M376.1,198.1c6,2.5,13,4.8,20.2,4.8c2.3,0,4.5-0.3,6.8-0.7c-2.1-1.5-4-2.7-4.8-3.1
		C396,198.3,385.5,198.2,376.1,198.1z"/>
	<g>
		<path fill="#231F20" d="M673,474.6c-0.8-0.1-1.7-0.9-2.7-2.2c-3.8-4.7-9.4-16.6-16-31.1c-3.9-8.6-7.4-16.1-8.9-18.1
			c-1.8-2.2-3.5-1.9-5.8-1.5c-4.1,0.7-20.1-9.2-20.1-9.2c0,0,0.6-6.2,0.9-11c-4.8-0.1-10.5-0.9-17.2-2.5h-0.4l0-0.1
			c-8.3-2-17.7-5.1-27.2-8.9c-18.5-7.5-35.7-17.1-47.1-26.3c-1.7-1.4-3.3-2.1-4.1-2c-0.2,0-0.3,0.1-0.5,0.3c1.5,3.3,2,7.7,1.9,12.1
			c-0.2,6.4-1.5,11.9-1.9,15.6c3.6,0.9,11.3,1.7,17.3,2c9.8,0.5,21.2,1,29.5,4.9c5,2.4,8.9,5.9,10.7,11.4
			c5.9,17.7,50.5,23.8,58.7,21.4c4-1.2,9.6,10.3,16,23.6c3.8,7.8,7.7,15.8,11.2,21c2.8,4.2,6.6,5.6,10.3,6.4c0.3-0.4,0.1-1.1,0-1.5
			C677,477,674.9,474.8,673,474.6z"/>
		<path fill="#231F20" d="M720.8,420.6c-0.3,1-1.1,1.5-1.7,1.8c-2.1,0.9-4.6-1-6-1c6.9-2.1,9.5-10.9,5.4-15.8
			c-2.4-3.3-5.9-4.9-9.4-4.4c-2.7,0.3-4.6,1.5-5.8,3.3c-0.9,1.4-1.2,3.1-1.1,4.4c0.9-2.9,3.4-3.9,5.4-3.8c3.1,0.2,6.3,2.7,6.3,6.6
			c0,1.6-1.1,2.9-3.1,3.6c-6.8,2.2-23-3.5-40.9-26.9c-1.2-1.6-2.4-3.2-3.6-5c-12.9-18.5-27.8-22.8-38-23.3
			c-11.1-0.4-19.1,3.5-19.2,3.6c-0.1,0.1-0.2,0-0.3,0c-8.6-7.2-23.2-10.8-38.6-14.6c-3.8-0.9-31.7-6.8-41.4-13.9
			c-3.5-2.5-7.3-6.8-10.7-10.6c-2.6-3.1-5.1-6-7.1-7.4c-4.4-3.2-7.5-6.1-14.3-25.1c-6.6-18.4-25.5-28.3-25.6-28.4
			c-0.1,0-0.1-0.1-0.1-0.2l4.6-45.1L465,261.2c0,0.1-0.1,0.2-0.2,0.2c-14.3-0.8-41.7-2.2-43.7-1.4c-0.9,0.4-1.1,1.4-1.1,2
			c0,2.1,1.4,5,3.6,5.9c0.6,0.3,2,0.8,3.8,1.6c13.4,5.5,27.2,11.3,30.8,13.7c0.1,0,0.2,0,0.2,0.1c0,0,0,0.1,0,0.1
			c0.2,0.1,0.4,0.3,0.5,0.4c0.7,0.8,7.1,8.4,6.6,23.7c-0.5,14,0.5,21.4,3.4,24.9c0.6,0.2,1.3,0.3,2,0.4c0.1,0,0.1,0,0.2,0
			c0.6,0.1,1.2,0.2,1.8,0.4c0.2,0,0.4,0.1,0.6,0.1c0.6,0.1,1.2,0.2,1.8,0.3c0,0,0.1,0,0.1,0c0.7,0.1,1.4,0.2,2.2,0.3
			c5.3,0.8,10.5,1.9,15.4,3.4c0.1,0,0.2,0.1,0.3,0.1c0.8,0.3,1.7,0.5,2.5,0.8c0.4,0.1,0.7,0.3,1.1,0.4c0.5,0.2,1.1,0.4,1.6,0.6
			c0.6,0.2,1.2,0.5,1.7,0.7c0.3,0.1,0.6,0.3,1,0.4c0.7,0.3,1.5,0.6,2.2,0.9c0.1,0.1,0.3,0.1,0.4,0.2c0.9,0.4,1.7,0.8,2.5,1.2
			c0,0,0,0,0,0c5.4,2.7,10.4,5.9,14.8,9.5c0.3,0.3,26.1,23.9,55.1,35.6c10.7,4.3,20.5,6.5,29.3,6.5c0.5,0,1.1,0,1.6,0
			c0.7-0.1,3.1-0.3,5.5-0.8l0.1,0c2.3-0.5,4-0.9,4.9-1.4c0.3-0.3,1.1-1.1,2.3-1.9c-1.8-15.9-6.9-20.4-7.7-21c-0.1,0-0.1-0.1-0.1-0.1
			c0,0,0,0,0,0c0,0-0.1-0.1-0.1-0.1c0,0,0,0,0-0.1c0,0,0,0,0,0c0,0,0-0.1,0-0.1c0,0,0,0,0,0h0c0,0,0.1-0.1,0.1-0.1
			c27-10.9,42.5,3.3,55.8,21.1c2.6,3.4,5.1,7,7.5,10.6c5.3,7.5,10.7,15.3,16.7,21.4c8.8,9,19.2,10,24.8,6.3
			C720,426.1,721.2,423.5,720.8,420.6z"/>
	</g>
	<g>
		<path fill="#1A1A1A" d="M624.6,388.7c0.5,0,1,0.1,1.5,0.2c0.3,0.1,0.7,0.1,1,0.2c-1.9-8.1-8.1-14.5-11.9-17.7
			c3.4,6.2,5.1,12.5,5.8,18.3C622,389.1,623.2,388.7,624.6,388.7z"/>
		<path fill="#1A1A1A" d="M699.5,448c-1.8-2.2-4.5-2.7-6.3-2.7c-0.1,0-0.1,0-0.2,0c-1.8-1-9.8-9-19.2-18.3
			c-4.6-4.6-9.3-9.2-13.5-13.3c-3.5-3.7-6-6.5-6.5-7.3c-0.9-1.5-4.7-0.1-8.8,1.4c-2,0.7-4,1.5-5.9,2c-1.3,0.3-2.4,0.2-3.2-0.5
			c-1-0.9-3.4-2.3-5.4-4.5c0,0,0,0,0.1,0c-0.1,0-0.1-0.1-0.2-0.1c-1-1.2-1.9-2.5-2.4-4.1c-1.3,0.3-2.8,0.6-4.5,0.7
			c-0.7,0.1-1.5,0.1-2.3,0.1c-0.3,5.2-1,9.1-0.9,10.6c3.5,2.1,12.2,7.3,16.7,8.6c1.3-0.7,2.6-1.3,4.1-2.6c3.1-2.8,6.6-6,10.3-5.5
			c0.2,0,0.5,0.1,0.8,0.2c0,0-0.1,0-0.1,0.1c4.5,4,10.9,10,17,15.9c1.5,1.4,3.1,3,4.7,4.5c3.6,3.7,6.9,7,9.5,8.9
			c0.1,0,0.1,0.1,0.2,0.1c4.3,3.9,7.6,6.7,8.2,6.7c1.4-0.2,3.2,0,4.7,0.1c1.5,0.1,3.5,0.3,3.7-0.1C700,449,700.1,448.8,699.5,448z"
			/>
	</g>
</g>
</svg>
