<?xml version="1.0" encoding="utf-8"?>
<!-- Generator: Adobe Illustrator 19.1.0, SVG Export Plug-In . SVG Version: 6.00 Build 0)  -->
<svg version="1.1" id="Layer_1" xmlns="http://www.w3.org/2000/svg" xmlns:xlink="http://www.w3.org/1999/xlink" x="0px" y="0px"
	 viewBox="0 0 1000 822.2" enable-background="new 0 0 1000 822.2" xml:space="preserve">
<g>
	<path fill="#9EB7B5" d="M274.1,299.8c-1.2,35.4-14.5,76.6-27.9,85.3c-9.5,6.2-34.2,2.9-32.5-35.4c1.7-38.3,11-70.2,20.3-92.8
		s12.8-18,16.2-10.4s-7,27.3-9.9,37.1c-2.9,9.9-12.8,65.6,0,61.5s22.1-41.8,22.1-44.7C262.5,295.2,275.3,264.5,274.1,299.8z"/>
	<path fill="#9EB7B5" d="M288,432.2c0,0,4.1,25.5,15.1,21.5s16.2-6.4,15.1-27.3c-1.2-20.9,2.3-57.1,28.6-33.1
		c10.8,9.8,4.4,106.2-8.3,123.6c-12.8,17.4-48.2,38.9-74.3,6.4c-26.1-32.5-1.2-87.6,6.4-92.3C278.2,426.3,288.6,428.1,288,432.2z"/>
</g>
<g>
	<path fill="#9EB7B5" stroke="#767676" stroke-miterlimit="10" d="M767.5,256.9c-9.3-22.6-12.8-18-16.2-10.4"/>
</g>
<path fill="#9EB7B5" d="M372.8,691.5c0,0-2.3-29,13.9,30.2c7.6,27.7,59.2,54.5,59.2,47.6s-29-32.5-31.3-52.2
	c-2.3-19.7,0-69.6-12.8-70.8C371.7,643.5,375.1,678.8,372.8,691.5z"/>
<g>
	<path fill="#9EB7B5" stroke="#767676" stroke-miterlimit="10" d="M234.5,256.9c9.3-22.6,12.8-18,16.2-10.4"/>
</g>
<g>
	<path fill="#9EB7B5" d="M727.9,299.8c1.2,35.4,14.5,76.6,27.9,85.3c9.5,6.2,34.2,2.9,32.5-35.4s-11-70.2-20.3-92.8
		s-12.8-18-16.2-10.4s7,27.3,9.9,37.1c2.9,9.9,12.8,65.6,0,61.5s-22.1-41.8-22.1-44.7C739.5,295.2,726.7,264.5,727.9,299.8z"/>
	<path fill="#9EB7B5" d="M714,432.2c0,0-4.1,25.5-15.1,21.5c-11-4.1-16.2-6.4-15.1-27.3c1.2-20.9-2.3-57.1-28.6-33.1
		c-10.8,9.8-4.4,106.2,8.3,123.6c12.8,17.4,48.2,38.9,74.3,6.4s1.2-87.6-6.4-92.3C723.8,426.3,713.4,428.1,714,432.2z"/>
</g>
<g>
	<path fill="#9EB7B5" stroke="#767676" stroke-miterlimit="10" d="M234.5,256.9c9.3-22.6,12.8-18,16.2-10.4"/>
</g>
<path fill="#9EB7B5" d="M629.2,691.5c0,0,2.3-29-13.9,30.2c-7.6,27.7-59.2,54.5-59.2,47.6s29-32.5,31.3-52.2
	c2.3-19.7,0-69.6,12.8-70.8C630.3,643.5,626.9,678.8,629.2,691.5z"/>
<g>
	<path fill="#9EB7B5" stroke="#767676" stroke-miterlimit="10" d="M767.5,256.9c-9.3-22.6-12.8-18-16.2-10.4"/>
</g>
<path fill="#BED3C7" d="M317.8,441.2l-10.3-10.8c0,0-1.1,15-4.1,18c3.3,8.4,16.5-2.8,15.7-4.9C318.8,443,317.8,441.2,317.8,441.2z"
	/>
<path fill="#BED3C7" d="M684.2,441.2l10.3-10.8c0,0,1.1,15,4.1,18c-3.3,8.4-16.5-2.8-15.7-4.9C683.2,443,684.2,441.2,684.2,441.2z"
	/>
<path fill="#ACDEDF" stroke="#9EB7B5" d="M769.9,171c-87.4-133.1-253.6-69.4-269.1,0.6C482.2,100,319.1,38,231.7,171
	c-30.2,42.4-32.5,134.6,48.7,229c81,94.1,175.3,163.4,220.1,190.3l0.2,0.1l0.2-0.1c44.8-26.9,139.1-96.2,220.1-190.3
	C802.4,305.7,800.1,213.4,769.9,171z"/>
<path fill="#D4EDED" stroke="#ADC6B9" stroke-width="3" d="M743.8,160c-52.2-82.6-179.1-64.1-219.1-21.4l-2.5,2.5
	c-10.5,9.7-18,20.6-21.4,31.7c-3.3-11-10.8-21.9-21.2-31.5l-2.5-2.6C437.1,96,310.1,77.4,257.9,160c-19.7,33.1-35.7,105.3,39,192.1
	s163,150.1,204.1,174.7l0,0c40.2-24,128.5-87.3,203.7-174.7C779.4,265.3,763.5,193.1,743.8,160z"/>
<g>
	<path fill="#7E9998" d="M350.9,390.9C350.6,390.6,350.6,390.7,350.9,390.9L350.9,390.9z"/>
</g>
<path fill="#BED3C7" d="M260.1,179.7c6.4,30.2-2.9,52.3-9.1,82c-6.8,32.5-14.9,70.5-14.1,96.7c0.5,17.3,3.8,26.9,9.3,26.4
	c4.2-0.3-34.1,21.6-34.1-25.1c0-47,22.1-122.6,24.2-129C244.9,205.3,258,169.5,260.1,179.7z"/>
<path fill="#9EB7B5" d="M372.8,399.7c0,0-31.4-19-31.7-8.9c-0.4,10.1,45.5,121.7,43.8,142.6c-1.7,20.9,1.4,45.6,10.7,44.1
	c9.3-1.5,21.3-50.7,21.3-50.7s-3.8-84.3-18.4-102.2C383.9,406.6,372.8,399.7,372.8,399.7z"/>
<path fill="#BED3C7" d="M259,296.6c23.3,41.7-20.8,149-4.9,206.6c15.4,55.8,53,37.9,57.7,33.9c22.2-18.8,10-86.8,7.4-93.7
	c1-0.8-11.7-11.8-11.7-11.8s-4,18.7-7.3,18.3c-10.2-1.2-8.5-13.1,2.2-64.5C319.2,305.4,255.9,291,259,296.6z"/>
<path fill="#BED3C7" d="M432.9,739c-28-46.5-11.7-117.6-2.6-168.5c16.1-90.1-34.8-154.1-49.8-166.9c-6.4-5.5-15.6-10.5-20.7-10.8
	c64,57.4,50.9,137.6,39.3,164.2c-8.3,19,31.2-85.4-47.6-165.1c-0.1-0.1-3.1-8.5-24.4-13.1c-1.3-0.3-3.3-0.5-4.7-0.7
	c2.8,3.5,3,3.2,3,3.2c21.8,32.2,11.5,128.5-8.8,202.6C280.7,715.2,382.3,805,422.2,806c12,0.3-0.2-5.8-6.5-15.1
	c-7.7-11.4-41.1-58-10.9-121.9c-19.8,67,25.4,95.4,38,101.7c8.7,4.3,15.9,5,17.7,1.6C462,769.6,444.7,764.1,432.9,739z M350.9,390.9
	C350.6,390.7,350.6,390.6,350.9,390.9L350.9,390.9z"/>
<g>
	<path fill="#9EB7B5" d="M302,448.7c0.5-0.7,0.9-1.7,1.4-3.2C303,446.5,302.5,447.6,302,448.7z"/>
	<path fill="#9EB7B5" d="M302,448.7c-2.3,3.4-5.4-2.2-6.5-11.6c-0.5-4.4-0.6-9.6-0.1-15.1c0.1-0.9,0.5-2.3,0.6-3.2
		c0.4-3-0.2-1.4-0.8,0c-0.5,1.1-1.2,2.7-1.7,3.7c-14.6,35.2-4.9,39.5-6.5,40.2c-3.9,1.6-8.6,0.7-12.9-5.6c0,8.7,17.3,14.4,25-3.3
		C300.2,452.2,301.1,450.4,302,448.7z"/>
</g>
<g>
	<path fill="#7E9998" d="M651.1,390.9C651.4,390.6,651.4,390.7,651.1,390.9L651.1,390.9z"/>
</g>
<path fill="#BED3C7" d="M741.9,179.7c-6.4,30.2,2.9,52.3,9.1,82c6.8,32.5,14.9,70.5,14.1,96.7c-0.5,17.3-3.8,26.9-9.3,26.4
	c-4.2-0.3,34.1,21.6,34.1-25.1c0-47-22.1-122.6-24.2-129C757.1,205.3,744,169.5,741.9,179.7z"/>
<path fill="#9EB7B5" d="M629.2,399.7c0,0,31.4-19,31.7-8.9c0.4,10.1-45.5,121.7-43.8,142.6c1.7,20.9-1.4,45.6-10.7,44.1
	c-9.3-1.5-21.3-50.7-21.3-50.7s3.8-84.3,18.4-102.2C618.1,406.6,629.2,399.7,629.2,399.7z"/>
<path fill="#BED3C7" d="M743,296.6c-23.3,41.7,20.8,149,4.9,206.6c-15.4,55.8-53,37.9-57.7,33.9c-22.2-18.8-10-86.8-7.4-93.7
	c-1-0.8,11.7-11.8,11.7-11.8s4,18.7,7.3,18.3c10.2-1.2,8.5-13.1-2.2-64.5C682.8,305.4,746.1,291,743,296.6z"/>
<path fill="#BED3C7" d="M541.5,772.3c1.8,3.4,9,2.7,17.7-1.6c12.6-6.3,57.8-34.7,38-101.7c30.2,63.9-3.2,110.5-10.9,121.9
	c-6.3,9.3-18.5,15.4-6.5,15.1c39.9-1,141.6-90.8,105.5-222.3c-20.3-74.1-30.6-170.4-8.8-202.6c0,0,0.2,0.3,3-3.2
	c-1.4,0.2-3.4,0.4-4.7,0.7c-21.4,4.6-24.3,13.1-24.4,13.1c-78.8,79.8-39.3,184.1-47.6,165.1c-11.6-26.6-24.7-106.8,39.3-164.2
	c-5.2,0.3-14.4,5.3-20.7,10.8c-14.9,12.8-65.9,76.8-49.8,166.9c9.1,51,25.4,122-2.6,168.5C557.3,764.1,540,769.6,541.5,772.3z
	 M651.1,390.9C651.4,390.6,651.4,390.7,651.1,390.9L651.1,390.9z"/>
<g>
	<path fill="#9EB7B5" d="M700,448.7c-0.5-0.7-0.9-1.7-1.4-3.2C699,446.5,699.5,447.6,700,448.7z"/>
	<path fill="#9EB7B5" d="M700,448.7c2.3,3.4,5.4-2.2,6.5-11.6c0.5-4.4,0.6-9.6,0.1-15.1c-0.1-0.9-0.5-2.3-0.6-3.2
		c-0.4-3,0.2-1.4,0.8,0c0.5,1.1,1.2,2.7,1.7,3.7c14.6,35.2,4.9,39.5,6.5,40.2c3.9,1.6,8.6,0.7,12.9-5.6c0,8.7-17.3,14.4-25-3.3
		C701.8,452.2,700.9,450.4,700,448.7z"/>
</g>
<path fill="#C3D4CA" d="M257.4,136.8c0,0,271.6,152,503.7-12.8c-1.2,38.3,4,16.3-8.8,39.5c-12.8,23.2-256.5,271.6-509.5-5.8
	C278.8,175.1,257.4,136.8,257.4,136.8z"/>
<path fill="#9EB7B5" d="M411.4,242.5c-0.1,0.8-0.9,3.8-2.7,8.8c-1.2,3.3-2,5.2-2.2,5.5c-1.2,2.1-2.8,2.5-4.7,2.2
	c-5.8-1-49.5-17.9-51.3-23.4c-0.2-0.6,0.3-2.4,0.9-5.1c0.2-0.9,0.3-2.2,0.4-4c0.1-1.8,0.2-3,0.3-3.9c0.8-7.1,1.1-12.2,1.7-15.6
	c1.1-6.8,2.4-14.6,2.6-15.6c0.8-3.3,3.8-4.3,8.5-2.9c1.9,0.6,4.9,1.4,8.8,2.4c4,1,8.1,1.7,10,2.2c2.6,0.7,1.4,7.8,1.4,7.9
	c0.2,0.3-0.2,6.4-0.4,9.1c-0.3,6.1-3.9,30.8-3.9,30.9c-0.2,1.2,0.5,2.1,2,2.7c1.2,0.5,9.2,4.6,10.3,5c4.1,1.7,7.1,1.6,8.9-0.3
	c0.9-1,1.6-3.1,2.2-6.2c0.4-2.5,1.2-3.7,2.2-3.5c0.4,0.1,1,0.2,1.6,0.4C410.4,239.9,411.5,241,411.4,242.5z"/>
<path fill="#9EB7B5" d="M503,243.5c0.1,12.3-5.3,21.1-16.4,25.4c-10.3,4-22.1,4.5-33.2,3.4c-11.9-1.2-21.1-4.6-27.3-10.4
	c-7.3-6.8-10.1-15.6-9-26c1.1-11.1,6.5-18.3,16.2-22.2c8.7-3.5,18.3-4.7,29.1-3.8c10.2,0.8,19.1,3.4,27.1,8.3
	C498.3,223.6,503,231.9,503,243.5z M467.7,241.5c0.3-5.8,0.3-10.2-0.1-13.1c-0.9-7.4-3.1-11.1-6.5-11.3c-3.3-0.3-5.9,3-8.1,10.3
	c-0.9,3.2-1.6,7.4-2.1,12.6c-0.4,5-0.4,9.5,0,13.4c1,7.9,3.5,11.8,7.6,12.1c3.3,0.3,5.9-3.4,7.7-11.7
	C467,251.1,467.4,247,467.7,241.5z"/>
<path fill="#9EB7B5" d="M572.7,208.1c0.2,1.2-0.3,3.5-1.7,6.7c-0.9,2.3-2,4.6-3,6.9c-2.3,5.6-4.5,11.7-7,17.8
	c-4,10-8,18.1-11.5,23.5c-4.7,7.5-8.8,10.9-11.8,11.1c-2.3,0.2-8-5.8-16.1-20.3c-5.7-10.1-10.1-19.4-13.5-27.1
	c-2.8-6.5-4.2-10.1-4.2-11.2c0-1.4,1.5-2,4.6-2.1c2.3-0.1,5.9-0.1,10.6-0.3c4.7-0.2,8.2-0.4,10.5-0.6c2.3-0.2,3.9,0.1,4.9,0.9
	c0.8,0.6,1.7,2,2.7,4.3c4.4,10.2,8.3,18.7,11.6,24.1c0.7,1.2,1.2,1.8,1.4,1.7c0.5-0.1,3.4-6.1,8.1-17.3c4.8-11.5,7.4-17.2,8.5-18.1
	c0.5-0.4,1.1-0.7,1.8-0.8C571.1,207,572.5,207.2,572.7,208.1z"/>
<path fill="#9EB7B5" d="M650.2,225.1c0.6,1.5,0.9,3.1,0.9,5c0.1,2.6-0.7,4.1-2,4.8c-16.1,8.3-34.8,16.6-54.3,22.8
	c-2.7,1.1-4.6,1.4-5.8,0.9c-1.2-0.5-2-1.9-2.4-4.2c-0.6-3.1-1.6-7.7-3.1-13.9c-1.5-6.2-2.5-10.9-3-14c-1-5.7-1.6-9.6-1.7-11.5
	c-0.3-5.4,0.5-8.9,2.5-10.6c1.4-1.2,3.8-2.1,7.3-2.8c2-0.4,5.1-1,9.3-1.8c4.2-0.8,7.3-1.5,9.3-2c1-0.3,2.6-0.7,4.7-1.2
	c2.1-0.6,3.7-1,4.7-1.3c10.7-3,18.1-3.5,19.2-1.8c0.7,1.1,1.2,3.4,1.5,4.9c0.3,1.4-1.1,2.7-3.7,3.5c-0.6,0.2-1.5,0-2.7-0.6
	c-1.6-0.8-3-1.3-4.4-1.4c-2.3-0.3-5.1,0.1-8.4,1c-0.4,0.1-1,0.2-1.7,0.4c-0.8,0.2-1.4,0.4-1.7,0.5c-3.5,1-5.1,2.3-4.6,4
	c0.1,0.4,3.3,9,3.3,9s2.9,2.5,6.9,1.1c0.8-0.3,1.9-0.8,3.4-1.6c1.5-0.8,2.6-1.3,3.4-1.6c1.4-0.5,2.7-0.5,3.9,0
	c1.2,0.4,2,1.2,2.4,2.2c0.4,0.9,0.2,1.9-0.4,2.9c-0.7,1-1.6,1.8-3,2.2c-1.2,0.4-3.2,0.8-5.9,1c-2.7,0.2-4.8,0.6-6.1,1.1
	c-0.6,0.5-0.9,0.8-1.5,1.3c1.4,7.7,2.3,12.6,2.7,14.2c0.2,0.7,0.8,1.6,1.4,1.7c1.1,0.3,4.6-1.2,8.9-3c4.4-1.9,7.5-3.8,9.2-5.8
	c0.3-0.4,1.2-2,2.4-4.5c0.8-1.6,2.2-2.7,4.4-3.5C647.6,221.7,649.2,222.5,650.2,225.1z"/>
<path d="M810.3,450.5C810.3,450.5,810.3,450.5,810.3,450.5c2.1-7.2,5.7-16.7,9-25.5c-2,2.7-6.4,2.6-6.5,2.6
	c-1.2,11.8-26.7,73.7-34.4,90.5c-4.2,9.1-11.2,22.7-17.9,35.8c-7.8,15.1-15.1,29.4-16.8,34.3c-3.1,8.7-5.5,20.5,0.4,27.9
	c7.8-16.3,16.3-34.7,24.4-53.2C790.6,512.2,809.9,451.5,810.3,450.5z M817.3,244.4c-5.7-6.3-4.9-15.7-1.8-24.2c-0.5-1.1-4.8-3-9.4-5
	c-10.4-4.6-27.6-12.1-36-25.1c0,0,0,0,0,0h0c-0.7,2-4.7,5.7-9.2,4.2c-0.8,1.9-2.3,3.3-3.9,4c-1,0.5-2,0.7-3,0.7
	c-1.5,0-2.9-0.5-3.9-1.5c-0.9,1.3-2.4,2.3-4.2,2.6c3.5,4.1,5.6,9.8,3.9,18.3c2.2,2.7,4,5.8,5.1,9.2c2.3,6.7,2.2,13-0.9,18.9
	c4.7,14.6-0.6,25-0.7,25.2c0,0,11.4,27,1.8,38.4c0,0,2.7,10.8-4,21.2c-0.5,0.8,8.1,28.2-3.5,45.5c0,0-1.1,11.8-7,15.2
	c-0.3,0.2-0.9-0.3-0.8-0.7c9.9-36.2-13.8-76.1-34.7-111.3c-5.3-9-10.4-17.5-14.6-25.5c-17.4-32.8-22.7-46.3-24-54.1
	c-0.2,0.3-0.3,0.5-0.5,0.6c-0.2,0.2-0.5,0.3-0.8,0.3c-0.1,0-0.2,0-0.4,0l-0.3-0.1l-0.1-0.3c-17.3-79.3-1.5-96.7,6.1-100.4
	c7-3.5,18.7-2.4,22.7,7.7c3.8,9.5,12.8,18.5,16,18c-17.6-26.1-14.1-46.9-12.3-50.3c0.4-0.7,0.4-1.6,0.3-1.9
	c-10.5-20.6-2-31.8-0.5-33.6c-0.5-2.2-3.6-14.7-3.9-16.2c-0.1-0.6,0.3-0.8,0.4-0.8c0.7-0.3,0.7-0.3,6.5,9.7c0.7,1.1,1.3,2.3,1.9,3.2
	c-0.4-1.8-1-4.1-1.5-6.3c-1.9-7.6-3.1-12.7-2.9-13.8c0-0.3,0.2-0.6,0.5-0.7c1-0.4,3.2,1.1,9.3,6c2.1,1.7,4.1,3.4,5.2,4
	c0.4,0.1,0.7,0.2,1,0.2c10.8,0.8,36.7,5.8,43,35.8c3.8,18.1,12.5,19.4,16.1,19.2c5.3-0.4,9.5-4.5,9.7-7.9c0.2-2.8-2.1-4.8-6.3-5.7
	c-9.7-2-16.3-9.4-16-18c0.2-6.9,5.6-15.6,20-17.5c21.1-2.8,37,4.2,51.1,10.4c10.9,4.8,21.3,9.4,32.7,9.1c0,0-2.2,4-7.1,4.2
	c68.7,36.6,62.9,89.4,130,127.3c2.4,2.4-3.9,3.8-9.4,1.3c-1,2.7-11.6-0.3-16.4-2.8c-1.8,2.5-12,0-26.1-9.1
	c-7.3,3.3-20.4-7.2-30.3-16.5c-2.4-0.1-11.3-1.2-21.8-11.4c-0.9,0.1-1.8,0.2-2.6,0.2c-11.6,0-19.9-9.7-24.8-15.7
	c-1.9,2.4-11.1-3.1-17.3-11.5c-0.8,1.9-2.2,3.1-3.8,3.2c0.2,1.3,0,2.4-0.3,3.3c-1,3-3.7,5.3-6,6c17.3,17.7,34.1,40.3,42.6,63.9
	c3.1,6.2,7.2,11.1,11.2,16c7.9,9.5,15.3,18.4,11,33.8c2.6,8.1,3.2,15.8-0.9,21.3c0.7,5.6,0.1,10.7-2.2,14.9
	c0.9,8.4,4.1,19.7,7.5,31.6c6.7,23.1,13.6,47.1,3.3,53.1c4.3,17.4,8.7,33.3,11.8,43.4c5.8,18.7,6.7,29.7,2.8,32.8
	c-0.7,0.6-1.6,0.9-2.7,0.9c-1.3,0-2.8-0.4-4.5-1.3c4.6,18.8,5,43.3-1.7,51.2c-0.3,6.6,1,26.4,2.1,43.8c0.7,11,1.4,21.3,1.7,28.1
	c0.1,1.5,0.2,3.5,0.3,5.8c1.1,19.7,3.7,65.9-11.5,79.2c-2.8,2.5-6.2,3.7-9.9,3.7c-0.9,0-1.9-0.1-2.8-0.2c-0.5,1.5-1.1,3-1.6,4.5
	c-4.5,11.8-9.3,26.5-13.8,40.7c-8.8,27.5-14,43.2-17.6,43.2c0,0-0.1,0-0.1,0c-0.8-0.1-1.4-0.5-2-1.3c-6.5-9.1,3-72.4,10.3-103.9
	c0.8-3.6,1.8-7.6,2.9-12c9.3-37.8,24.7-100.8,15.2-169.8c-4-14.6-7-32.8-8.2-54.5c-9.2-13.1-1.3-69.4-1.3-69.4
	c-3.5-4.3-5.2-11.8-2.9-18.8c-0.3-2.7-0.7-5.8-1-9.2c-0.2,0.2-0.4,0.3-0.7,0.5c-0.5,0.2-1.1,0.3-1.7,0.3c-0.7,0-1.4-0.2-1.9-0.5
	c0.1,10.5-0.1,18.1-0.8,19l-0.2,0.3l-0.4-0.1c-0.6-0.2-1.3-0.5-2.1-1c4.5,21,3.6,70.6-4.8,78.6c-3.8,34.4-14.2,65.3-26.2,81.8
	c0,0-0.7,0.9-1.8,2.2c-7,49.9-63.4,196.4-114.9,229.1c-1.7,1.3-2.1-0.5-2.1-0.9c0-1.5,0-2.9,0-4.3c0.1-13.2,21.2-58.8,35.3-88.4
	c-6.6-7.8-4.1-20.3-0.9-29.5c1.8-5,9.1-19.3,16.9-34.4c6.7-13.1,13.7-26.8,17.9-35.8c8.2-17.9,35.6-82.3,34.3-90.6
	c-0.9-0.6-1.5-1.5-1.5-2.6c0-2.8,2.6-11.8,6.3-24.2c3-10.1,6.4-21.7,9.3-33.1c-8.3-12.7-4.4-30-0.6-46.8c3.3-14.5,6.7-29.6,2.4-41.8
	l0,0c-0.6-1.5-1.5-4.3-1.5-4.3C816.5,268.4,815.2,256.8,817.3,244.4z M910.8,119.7c21.7,41,62.5,67.4,73.6,63.3
	c-68.3-42.2-59.3-90.3-130.9-128c-0.4,0-4.5-1.8-6.2-2.3c0,0,4.7,0.6,6.5,1.2c3.7,0.4,7.1-1.4,6.8-2c-10.7-0.3-20.4-4.6-30.6-9.2
	c-14.6-6.5-29.7-13.2-50.5-10.4c-13.7,1.8-18.8,9.7-19,16.4c-0.3,8,5.9,14.9,15.1,16.8c6.9,1.4,7.3,5.3,7.2,6.9
	c-0.3,4.4-5.4,8.7-10.8,9c-0.2,0-0.5,0-0.8,0c-4.2,0-12.8-2.3-16.5-20.1c-6.1-29.2-31.4-34.1-41.9-34.9c-0.4,0-0.8-0.1-1.3-0.2v0
	c0,0,0,0-0.1,0c-0.8-0.2-1.6-0.4-2.3-0.6c-0.6-0.2-1.4-0.4-1.8-0.5c0,0.5,0.2,1.6,0.3,2.5c2,9.7,2.3,15.4,0.9,17
	c-0.8,1-1.8,1.4-2.8,1.4c-1.5-0.1-2.8-1.3-3.6-2.4c-0.8-1.1-3.4-2.2-4.7-2.6c-1.5,1.7-9.3,12.1,0.4,31.6c0.9,1.7,1.9,3.5,3,5.4
	c-0.2-0.1-1.5-1.1-2.8-2.5c-1.2,1.9-5.6,13.9,5.2,37.8c0.7,1.6,6,12.4,9.3,11.6c3.5-0.8,4.5-11.5,4.5-11.5
	c0.2,28.3-18.5,9.1-24.7-4.7c-4.2-9.3-14.8-10.6-21.3-7.4c-4.7,2.3-10.7,8.9-12.6,26.9c-1.9,17.5,0.5,41.6,7,71.7
	c0.7-0.9,1-4.3,1-6.6c0,0,1.1,2.3,0.9,4c0.2,5.7,2.4,15.4,24.2,56.6c4.2,8,9.3,16.5,14.6,25.5c20.6,34.7,44,73.9,35.4,110
	c2.7-1.1,4.2-9.8,4.6-12c7.2-32-6.9-60.5-17.1-82.5c-6.6-14.2-13.6-22.5-12.1-23.2c0.6-0.3,9.8,15.4,13.4,22.6
	c18.5,36.9,20.3,62.3,17.9,75.5c-0.1,0.7-0.3,4.6,0.1,3.7c11.6-22.3-4.4-62.6-7.5-72.1c5.3,4.8,9.3,28.4,10.4,26.3
	c3.4-6.3,7.4-24.2-15.6-62.8c0.5,0.6,16.2,20.7,18.8,43.8c9.1-16.6-5.7-46.9-19.9-69.5c0.5,0.5,9.1,8.8,17.5,30.3
	c7.3-24-10.1-43.4-13-45.9c12.8,10,14.2,21.2,14.4,20.9c4.1-8.7,1.7-25.5-14.6-34.8c3.1-0.2,10,6.8,10.1,6.5
	c3.4-17.4-16.2-23.3-16.8-25.5c0.3-0.5,9.4,4.7,12.7,8.1c1.9-0.2,3.5-1,4.3-2.3c0.8-1.3,1.8-3.3,1-5.5c1.3,0.4,1.4,2.7,0.5,5.1
	c1.3,1.5,3.6,1.5,6,0.8c4.2-1.2,4.2-7.4,4.7-9.5c0.5,0.4,0.5,3.6,0.1,5.1c0.9,0.7,3.8,0.7,6-1.5c3.6-3.6,0.7-11-0.9-13.5
	c2.1,0.2,3.7,6.7,3.9,9c9.7-2.8,0.8-17.8-0.6-18.3c0.6-1.6,4.4,4.4,5.4,6.7c4.1-5.3-0.9-14.3-3.7-15.8c4.1,0.4,9.9,10.7,4.2,17.3
	c1,3.3,1.5,10-5.2,11.9c8,13.2,25.5,20.9,36,25.5c5.1,2.2,8.1,3.6,9.4,4.8c1.6-4,11.5-19.2,10.2-23.7c3.8,7.7-21.1,31.9-8.7,47.7
	c3-20.1,16.5-39.6,14.2-46.3c1.9,4.8-2.4,13-3.4,15.3c-7.1,18.7-19,49.8-2.4,60.8c-1.3-9.1,0.3-18.8,4.5-30.2
	c5.8-15.5,8.1-24,8.6-32.2c-0.1,3.9,1.4,8.2-7.6,32c-3.3,8.8-5.2,16.6-5.2,23.7c0,4.3,0.7,8.3,2.2,12.1c0,0,0,0.1,0,0.1
	c1.8,4.6,5.3,8.9,11.1,13c-0.4-2-0.6-4-0.5-6c0.2-6.9,1.8-16.9,3.4-27.4c5.5-37.3,5.8-39.1,4.2-46.5c0.2,0.5,1.9,5.4,1.2,12.7
	c-0.9,10.7-2.5,22.9-4.2,34c-1.6,10.5-3.2,20.5-3.3,27.3C840,302,854.9,317,859.6,319c1.2-5.4-1.2-89-1.2-89s10,85.8,10.2,87.6
	c5-4.7,12.5-17.8,13.1-31.1c0.6-13.6-19.2-77.1-20.1-80c5.7,14.7,19.5,62.3,21.1,77.9c6.8-4.4,8.5-11.7,7.6-20c0,0-0.1-0.4-0.1-0.5
	c-1.6-12.5-8.7-27.5-14.6-38.9c-3.3-6.5-5.9-11.1-7.1-14.4c0.3,0.5,4.4,7.8,7.6,14c5.7,11.1,13.1,25.4,15.1,37.9
	c7.4-12.5-7-35.7-15.2-48.3c-3.6-5.6-4.8-8.8-4.1-9.7c-0.8,3.6,9.1,15.3,11.2,19c3.2,5.4,6.3,11.5,8.5,17.4
	c3.1-13.8-3.5-21.8-11.2-31c-2-2.4-4.1-4.9-6-7.6c-1.9-2.7-3.8-5.5-5.4-8.7c-15.1-42-56.7-80.8-80.1-93.9
	c0.8,0.3,13.4,4.9,37.6,28.6c1.8-0.2,4.9-2.4,5.9-5.4c0.6-1.7,0.7-5.5-2.1-8.8c2.5,1.6,2.9,3.2,3.3,4.7c1.3,0,2.5-1.1,3.1-2.8
	c1.8-5-2.8-10.7-2.8-10.7c2.1,0.9,3.4,3.9,4,5.7c4.2-9.9,4-24.6-18.1-41.5c-0.4-0.3-0.7-0.5-0.9-0.7c1.6,0.9,31.1,17.6,19.4,44.2
	c0,0.8,0,1.6-0.2,2.3l0.1,0c5.3,7.5,13.1,13.7,16.1,11.9c0.6-1.2-0.9-2.9-1.2-3.2c1.4,1.1,2.2,2.1,2.4,2.9
	c4.9,6,13.7,16.8,25.9,15.8c-4.5-4.6-9.1-10.8-13.7-19.3c1,1.7,17.6,28.4,35.2,30.4c-13.6-13.6-19-29.6-19-29.6
	c6.2,13.3,13.6,22.9,21,29.8h0l0,0c15.4,14.5,24.3,18.5,28.7,16.8c-6.8-4.1-15.4-10.9-22.8-18.8c-5-5.3-9.6-11.1-12.8-16.7
	c-1.6-2.8,7.7,10,12.3,14.9c17.5,18.5,42.8,33.3,49.2,30c-41.9-21.4-54.8-51.6-55.9-53.8c5.5,10.8,13.3,20.4,21.7,28.6
	c0.1,0.1,0.3,0.3,0.4,0.4c20.1,19.4,43.9,30.3,50.3,27.4C955.9,177.5,921.1,145.4,910.8,119.7z M913.9,439.2
	c3.5-2.7,2.3-13.9-3.2-31.6c-6.2-19.9-17.4-62.8-22.5-94.2c-1.1,4.6-2.9,7.3-3.9,8.1c-0.4,0.3-0.8,0.5-1.1,0.6
	c-1.6,20.1,9.3,60.8,18,93.6c2.2,8.2,4.2,15.7,5.9,22.4C910.2,439.9,912.5,440.3,913.9,439.2z M897.6,646.9
	c14.7-13,12.2-58.7,11.1-78.3c-0.1-2.3-0.2-4.3-0.3-5.9c-0.3-6.7-1-17.1-1.7-28c-1.1-17.2-2.3-35-2.2-42.6c-0.5,0.4-1.1,0.8-1.7,0.9
	c-0.4,0.1-0.8,0.2-1.2,0.2c-1.4,0-2.9-0.7-4.4-2c2.1,24,3.9,112.3-11.3,159C890.5,650.8,894.4,649.7,897.6,646.9z M902.9,491.8
	c15.9-21.3-0.7-67.7-2.8-75.7c-8.8-33-19.7-73.9-18-94.2c-0.5-0.3-1.3-0.6-1.6-1.2c0.3,4-0.1,7.2-1.9,9c-1,1-2.3,1.6-3.9,1.6
	c-0.4,0-0.7,0-1.1-0.1c-4.9,51.5-1.2,91.4,6,119.1c0,0,0.5,1.5,0.6,2.3c4.3,15.8,9.7,27.5,15.2,34.8c0.5,0.6,3.1,3.9,6.1,4.7
	c3.6-5.9,2.2-18.3,1-24.1C902.4,468,906.9,483.8,902.9,491.8z M899.7,362.7c9-5.9,2.3-29.1-4.1-51.6c-3.3-11.3-6.3-22-7.4-30.4
	c-0.8,1.2-1.9,2.3-3.1,3.3c4.8,10.9,4.5,19.8,3.7,26C891.2,325.8,895.4,344.9,899.7,362.7z M882.9,655.4
	c17.6-45.5,15.3-142.9,13-165.4c-0.5-0.5-1-1.1-1.5-1.8c-4.7-6.3-9.4-15.8-13.4-28.4c7.5,66.4-7.2,126.5-16.2,163.1
	c-1.1,4.4-2.1,8.4-2.9,12c-7.1,30.4-16.7,94.2-10.5,102.9c0.4,0.5,0.7,0.8,1.2,0.8c0,0,0,0,0.1,0c2.9,0,10.1-22.5,16.4-42.4
	C873.7,681.9,878.4,667.2,882.9,655.4z M883.6,320.7c2.3-1.5,9.6-18.1,0.6-35.9c-0.4,0.3-1.3,1.4-1.3,1.7
	c0.4,14.4-9.3,28.6-14.3,32.7c0,0-1.1,0.4-1.2-2.5c-2.1,4.1,1.7,12.1,5.8,13.2c8.3,2.3,6.4-13,6.4-13
	C879.7,317.3,881.4,322.1,883.6,320.7z M872.4,330.9c-0.2-0.1-0.4-0.2-0.6-0.3c-0.6-0.3-1.1-0.6-1.5-1c-1.4,9.5-5.9,52.2,0.4,66
	C869.6,376.6,870.1,355,872.4,330.9z M865.2,299l0.2,0c-1.8-15.7-4.1-36.9-5.6-51.6c0.6,15.5,1.3,37,1.5,52.6l0.2-0.2
	c0.6,0.6,2,0.8,3,0.3C864.9,300,865.2,299.6,865.2,299z M854.7,316.9c2.1,9.9,1.6,16.3-1.4,18.8c-0.4,0.3-0.9,0.6-1.4,0.8
	c3.1,19.6,3.3,40.1,1.3,59.5C861.4,383.5,861.2,321.5,854.7,316.9z M852.5,334.8c1.9-1.6,3.6-6.2,0.7-18.9c0,0-11.7-13-13.2-23
	c0,0-0.1,0-0.1-0.1c-7.9,8.5-10.4,27.4-8.2,33.8c0.7,2.1,4.5,3.1,6.9,0.2c1.4-1.7,2.7-5,2.7-5c0,0.4,0,0.9-0.1,1.4
	c-0.2,4.5-0.1,9.3,4.9,11.5C848.1,335.6,850.7,336.3,852.5,334.8z M825.9,478.9c18.8-25.8,33.6-87.5,24.9-142.2
	c-0.3,0-0.6,0.1-0.9,0.1c-1.2,0-2.6-0.3-4.1-1c-4.4-1.9-5.4-5.5-5.6-9.2c-0.4,0.6-0.8,1.2-1.3,1.7c3.2,24.8-0.8,49.8-13.5,83.4
	l-1.5,4.1c-11.8,31.4-20.4,54.3-14.3,66.2c3.1-11,9.9-28.7,11.7-33.5c-0.8,2.3-13.2,40-12.2,41.8c0.5,0.8,1.1,1.2,1.9,1.2
	c0,0,0.1,0,0.1,0c3.6,0,9.5-6.3,12.8-10.2C823.9,481.1,825.5,479.4,825.9,478.9z M824.2,411.4c12.4-33.1,16.5-57.8,13.5-82.2
	c-1,0.6-2.6,1-4.6,0.3c0.2,17-8.9,48.2-15.7,71.1c-3.5,11.8-6.2,21.2-6.2,23.8c0,1.5,1.4,2,2.1,2.1c5.1,0.8,8.3-8.1,9.4-11.1
	L824.2,411.4z M839,292.2c-4.1-2.8-7-5.8-9.1-9c2.2,11.5-0.8,24.7-3.7,37.5c-3.8,16.9-7.4,32.8-0.2,45c3.5-14.1,6.2-27.6,5.9-36.7
	c-0.6-0.4-1.1-1-1.3-1.9C828.3,319.8,831.6,301,839,292.2z M823.6,483.6c-3.4,3.9-8.7,9.2-12.5,9.2c-0.1,0-0.1,0-0.2,0
	c-1.2,0-2.2-0.6-2.8-1.8c-0.5-0.8,0-3.6,1-7.4c-3.1-5-3.4-12-1.8-20.9c-11,28.8-23.8,68.5-37.9,100.7
	c-23.2,52.9-62.4,128.1-60.2,146.8c30.3-18.9,59.4-75.8,74.1-108.2C805.3,553.6,819.9,506.8,823.6,483.6z M707.7,43.9
	c1.1-1.2,0.7-7.2-1.1-16c-0.4-2-0.5-3.3-0.2-3.6c0.3-0.4,0.9-0.3,2.4,0.1c-0.8-0.6-1.8-1.4-2.7-2.2c-2.5-2-6.6-5.4-7.9-5.8
	c0.1,1.6,1.7,8.3,2.9,13.2c2.4,9.7,2.4,10.1,1.7,10c-1.8-0.4-2.5-3.1-4.2-5.9c-1.2-2.1-2.8-4.8-4-6.8c1,4.3,2.8,11.5,3.2,13.2
	c1,0.3,4.2,1.5,5.4,3c0.9,1.2,1.9,1.9,2.7,1.9C706.4,44.9,707.1,44.6,707.7,43.9z"/>
<path fill="#D1B8C0" d="M735.8,265c22.9,38.6,19,56.5,15.6,62.8c-1.1,2.1-5.1-21.5-10.4-26.3c3.1,9.5,19.1,49.8,7.5,72.1
	c-0.4,0.8-0.3-3-0.1-3.7c2.3-13.2,0.6-38.6-17.9-75.5c-3.6-7.2-12.8-22.9-13.4-22.6c-1.5,0.7,5.5,9,12.1,23.2
	c10.2,22,24.3,50.6,17.1,82.5c-0.5,2.2-2,10.8-4.6,12c8.5-36.1-14.8-75.3-35.4-110c-5.3-9-10.4-17.4-14.6-25.5
	c-21.8-41.2-24-50.9-24.2-56.6c0.2-1.7-0.9-4-0.9-4c0,2.3-0.3,5.7-1,6.6c-6.5-30.1-8.9-54.2-7-71.7c1.9-18,7.9-24.5,12.6-26.9
	c6.5-3.2,17.1-1.9,21.3,7.4c6.2,13.7,24.9,33,24.7,4.7c0,0-1,10.6-4.5,11.5c-3.3,0.8-8.6-9.9-9.3-11.6c-10.7-23.9-6.3-35.9-5.2-37.8
	c1.3,1.4,2.6,2.4,2.8,2.5c-1.1-1.9-2.1-3.7-3-5.4c-9.6-19.5-1.8-29.8-0.4-31.6c1.3,0.4,3.9,1.5,4.7,2.6c0.8,1.1,2.1,2.4,3.6,2.4
	c1,0,1.9-0.4,2.8-1.4c1.4-1.6,1.1-7.3-0.9-17c-0.2-0.9-0.3-1.9-0.3-2.5c0.5,0.1,1.2,0.3,1.8,0.5c0.8,0.2,1.6,0.5,2.3,0.6
	c0,0,0,0,0.1,0v0c0.5,0.1,1,0.2,1.3,0.2c10.6,0.8,35.8,5.7,41.9,34.9c3.7,17.8,12.3,20.1,16.5,20.1c0.3,0,0.5,0,0.8,0
	c5.5-0.4,10.5-4.6,10.8-9c0.1-1.6-0.4-5.5-7.2-6.9c-9.2-1.9-15.4-8.8-15.1-16.8c0.2-6.7,5.4-14.6,19-16.4
	c20.8-2.8,35.9,3.9,50.5,10.4c10.2,4.5,19.9,8.8,30.6,9.2c0.3,0.6-3.1,2.4-6.8,2c-1.8-0.5-6.5-1.2-6.5-1.2c1.7,0.5,5.8,2.3,6.2,2.3
	c71.6,37.6,62.6,85.8,130.9,128c-11.1,4.1-52-22.3-73.6-63.3c10.2,25.7,45.1,57.8,65.1,63.1c-6.5,3-30.2-8-50.3-27.4
	c-0.1-0.1-0.3-0.3-0.4-0.4c-8.4-8.2-16.2-17.9-21.7-28.6c1.1,2.3,14,32.4,55.9,53.8c-6.5,3.3-31.7-11.5-49.2-30
	c-4.6-4.9-13.9-17.7-12.3-14.9c3.2,5.7,7.7,11.4,12.8,16.7c7.4,7.9,16,14.7,22.8,18.8c-4.4,1.7-13.3-2.4-28.7-16.8l0,0h0
	c-7.4-7-14.7-16.5-21-29.8c0,0,5.4,16,19,29.6c-17.6-2-34.2-28.7-35.2-30.4c4.6,8.5,9.3,14.7,13.7,19.3c-12.2,1-21-9.8-25.9-15.8
	c-0.2-0.8-1-1.7-2.4-2.9c0.3,0.4,1.8,2.1,1.2,3.2c-3.1,1.8-10.8-4.4-16.1-11.9l-0.1,0c0.2-0.7,0.2-1.5,0.2-2.3
	c11.7-26.6-17.8-43.3-19.4-44.2c0.2,0.2,0.5,0.4,0.9,0.7c22,16.9,22.3,31.6,18.1,41.5c-0.6-1.9-1.8-4.8-4-5.7c0,0,4.5,5.6,2.8,10.7
	c-0.6,1.6-1.8,2.7-3.1,2.8c-0.5-1.5-0.8-3.1-3.3-4.7c2.8,3.3,2.7,7.1,2.1,8.8c-1,3.1-4.1,5.2-5.9,5.4
	c-24.2-23.7-36.8-28.3-37.6-28.6c23.4,13,65,51.8,80.1,93.9c1.6,3.2,3.4,6,5.4,8.7l-2.5,2.2c-0.7,1,0.5,4.1,4.1,9.7
	c8.2,12.6,22.6,35.8,15.2,48.3c-2-12.5-9.4-26.8-15.1-37.9c-3.2-6.2-7.4-13.6-7.6-14c1.2,3.3,3.8,7.9,7.1,14.4
	c5.9,11.4,13,26.4,14.6,38.9c-0.1,0.1,0.1,0.5,0.1,0.5c1,8.3-0.8,15.5-7.6,20c-1.6-15.6-15.4-63.2-21.1-77.9
	c0.9,2.9,20.7,66.4,20.1,80c-0.5,13.3-8,26.4-13.1,31.1c-0.2-1.8-10.2-87.6-10.2-87.6s2.4,83.7,1.2,89c-4.7-2.1-19.7-17-19.3-33.7
	c0.1-6.8,1.7-16.8,3.3-27.3c1.7-11.1,3.3-23.4,4.2-34c0.6-7.3-1-12.2-1.2-12.7c1.6,7.5,1.3,9.3-4.2,46.5
	c-1.6,10.6-3.2,20.5-3.4,27.4c0,2,0.1,4,0.5,6c-5.8-4-9.2-8.3-11.1-13c0,0,0-0.1,0-0.1c-1.5-3.8-2.2-7.8-2.2-12.1
	c0-7.1,1.9-14.9,5.2-23.7c9-23.8,7.5-28.1,7.6-32c-0.4,8.2-2.8,16.7-8.6,32.2c-4.3,11.4-5.8,21.1-4.5,30.2
	c-16.6-11-4.8-42.2,2.4-60.8c0.9-2.4,5.3-10.6,3.4-15.3c2.3,6.7-11.2,26.3-14.2,46.3c-12.5-15.8,12.5-40,8.7-47.7
	c1.3,4.4-8.6,19.7-10.2,23.7c-1.3-1.3-4.3-2.6-9.4-4.8c-10.6-4.6-28-12.3-36-25.5c6.7-1.9,6.2-8.6,5.2-11.9
	c5.7-6.6-0.1-16.9-4.2-17.3c2.7,1.5,7.8,10.5,3.7,15.8c-1-2.3-4.8-8.2-5.4-6.7c1.4,0.5,10.3,15.6,0.6,18.3c-0.2-2.3-1.8-8.8-3.9-9
	c1.5,2.6,4.5,10,0.9,13.5c-2.2,2.2-5.1,2.2-6,1.5c0.4-1.5,0.4-4.7-0.1-5.1c-0.5,2.1-0.5,8.3-4.7,9.5c-2.4,0.7-4.7,0.6-6-0.8
	c0.9-2.4,0.8-4.7-0.5-5.1c0.9,2.2-0.2,4.2-1,5.5c-0.8,1.3-2.4,2.2-4.3,2.3c-3.4-3.4-12.5-8.6-12.7-8.1c0.7,2.2,20.2,8.1,16.8,25.5
	c-0.1,0.3-7-6.8-10.1-6.5c16.3,9.3,18.7,26.1,14.6,34.8c-0.2,0.3-1.6-10.9-14.4-20.9c2.9,2.4,20.3,21.8,13,45.9
	c-8.4-21.5-17-29.8-17.5-30.3c14.2,22.6,29,52.8,19.9,69.5C752,285.7,736.3,265.6,735.8,265z"/>
<path fill="#E8DBDF" d="M910.7,407.6c5.5,17.7,6.6,28.9,3.2,31.6c-1.4,1.1-3.7,0.7-6.8-1c-1.7-6.7-3.7-14.2-5.9-22.4
	c-8.7-32.8-19.6-73.6-18-93.6c0.4-0.1,0.8-0.2,1.1-0.6c1-0.9,2.8-3.6,3.9-8.1C893.3,344.8,904.5,387.7,910.7,407.6z"/>
<path fill="#D1B8C0" d="M908.7,568.6c1.1,19.6,3.6,65.4-11.1,78.3c-3.2,2.8-7.1,3.9-11.6,3.2c15.1-46.7,13.4-134.9,11.3-159
	c1.5,1.4,3,2,4.4,2c0.4,0,0.8-0.1,1.2-0.2c0.6-0.2,1.2-0.5,1.7-0.9c-0.2,7.6,1,25.4,2.2,42.6c0.7,11,1.4,21.3,1.7,28
	C908.4,564.3,908.6,566.3,908.7,568.6z"/>
<path fill="#E8DBDF" d="M900.1,416.1c2.1,8,18.7,54.4,2.8,75.7c4-8-0.5-23.8-0.5-23.8c1.2,5.8,2.6,18.2-1,24.1
	c-2.9-0.7-5.6-4-6.1-4.7c-5.5-7.3-10.9-19-15.2-34.8c-0.1-0.8-0.6-2.3-0.6-2.3c-7.2-27.7-10.9-67.6-6-119.1c0.4,0.1,0.7,0.1,1.1,0.1
	c1.5,0,2.9-0.5,3.9-1.6c1.8-1.8,2.2-5,1.9-9c0.4,0.6,1.2,0.9,1.6,1.2C880.4,342.1,891.3,383,900.1,416.1z"/>
<path fill="#916B79" d="M895.6,311.1c6.5,22.5,13.1,45.7,4.1,51.6c-4.3-17.8-8.5-36.9-10.9-52.7c0.8-6.2,1.1-15.1-3.7-26
	c1.2-1,2.2-2.1,3.1-3.3C889.2,289.1,892.3,299.8,895.6,311.1z"/>
<path fill="#916B79" d="M896,489.9c2.2,22.6,4.5,119.9-13,165.4c-4.6,11.8-9.3,26.6-13.8,40.8c-6.3,19.9-13.6,42.4-16.4,42.4
	c0,0,0,0-0.1,0c-0.4,0-0.8-0.3-1.2-0.8c-6.2-8.7,3.4-72.5,10.5-102.9c0.8-3.6,1.8-7.6,2.9-12c9-36.6,23.7-96.7,16.2-163.1
	c4,12.6,8.7,22.1,13.4,28.4C895,488.8,895.5,489.4,896,489.9z"/>
<path fill="#D1B8C0" d="M880.3,209.9c7.7,9.2,14.3,17.3,11.2,31c-2.2-6-5.4-12-8.5-17.4c-2.1-3.7-12-15.4-11.2-19l2.5-2.2
	C876.2,205,878.3,207.4,880.3,209.9z"/>
<path fill="#D1A1BA" d="M884.1,284.8c9,17.8,1.7,34.4-0.6,35.9c-2.2,1.4-3.8-3.4-4-3.8c0,0,1.9,15.3-6.4,13
	c-4.1-1.1-7.9-9.1-5.8-13.2c0.1,2.9,1.2,2.5,1.2,2.5c5-4.1,14.7-18.3,14.3-32.7C882.8,286.1,883.7,285.1,884.1,284.8z"/>
<path fill="#F2DFE8" d="M871.7,330.6c0.2,0.1,0.4,0.2,0.6,0.3c-2.3,24.1-2.7,45.7-1.8,64.7c-6.3-13.8-1.8-56.5-0.4-66
	C870.7,330,871.2,330.4,871.7,330.6z"/>
<path fill="#351E28" d="M865.3,299l-0.2,0c0,0.6-0.3,1-0.8,1.2c-1,0.4-2.4,0.2-3-0.3l-0.2,0.2c-0.2-15.6-0.9-37.1-1.5-52.6
	C861.3,262.1,863.5,283.3,865.3,299z"/>
<path fill="#F2DFE8" d="M853.3,335.7c3-2.5,3.5-8.8,1.4-18.8c6.5,4.6,6.7,66.6-1.5,79.1c2-19.4,1.9-39.9-1.3-59.5
	C852.4,336.3,852.8,336,853.3,335.7z"/>
<path fill="#D1A1BA" d="M853.2,315.9c2.9,12.8,1.2,17.3-0.7,18.9c-1.8,1.5-4.4,0.8-6.3,0c-5-2.2-5.1-7-4.9-11.5
	c0.1-0.6,0.1-1.1,0.1-1.4c0,0-1.3,3.3-2.7,5c-2.4,2.9-6.2,1.8-6.9-0.2c-2.2-6.4,0.3-25.3,8.2-33.8c0,0,0.1,0,0.1,0.1
	C841.5,302.8,853.2,315.9,853.2,315.9z"/>
<path fill="#E8DBDF" d="M821.3,448.6c-1.9,4.8-8.6,22.4-11.7,33.5c-6.2-11.9,2.4-34.8,14.3-66.2l1.5-4.1
	c12.6-33.6,16.6-58.6,13.5-83.4c0.5-0.5,1-1.1,1.3-1.7c0.2,3.7,1.3,7.3,5.6,9.2c1.5,0.6,2.9,1,4.1,1c0.3,0,0.6,0,0.9-0.1
	c8.7,54.7-6.1,116.3-24.9,142.2c-0.3,0.4-1.9,2.2-1.9,2.4c-3.3,3.9-9.2,10.2-12.8,10.2c0,0-0.1,0-0.1,0c-0.8,0-1.4-0.4-1.9-1.2
	C808.1,488.6,820.5,450.8,821.3,448.6z"/>
<path fill="#E8DBDF" d="M837.7,329.1c3,24.4-1,49.1-13.5,82.2l-1.5,4.1c-1.1,3-4.3,11.9-9.4,11.1c-0.6-0.1-2.1-0.6-2.1-2.1
	c0-2.7,2.8-12,6.2-23.8c6.7-22.9,15.9-54.1,15.7-71.1C835.2,330.2,836.7,329.8,837.7,329.1z"/>
<path fill="#916B79" d="M829.9,283.1c2.1,3.2,5,6.2,9.1,9c-7.3,8.9-10.7,27.6-8.3,34.8c0.3,0.9,0.8,1.5,1.3,1.9
	c0.2,9.1-2.4,22.6-5.9,36.7c-7.3-12.1-3.7-28.1,0.2-45C829.1,307.9,832.1,294.7,829.9,283.1z"/>
<path fill="#916B79" d="M811.1,492.7c3.8,0,9.1-5.3,12.5-9.2c-3.7,23.3-18.3,70.1-40.3,118.4c-14.8,32.4-43.9,89.3-74.1,108.2
	c-2.2-18.7,37.1-93.8,60.2-146.8c14.1-32.3,26.9-72,37.9-100.7c-1.6,8.8-1.3,15.9,1.8,20.9c-1,3.8-1.5,6.6-1,7.4
	c0.7,1.1,1.6,1.7,2.8,1.8C811,492.7,811.1,492.7,811.1,492.7z"/>
<path fill="#D1B8C0" d="M819.3,425c-3.3,8.8-6.8,18.3-9,25.5c0,0,0,0,0,0c-0.4,1-19.8,61.6-42,112.5c-8.1,18.6-16.6,36.9-24.4,53.2
	c-5.8-7.4-3.4-19.2-0.4-27.9c1.7-4.9,9.1-19.2,16.8-34.3c6.7-13.2,13.7-26.8,17.9-35.8c7.7-16.9,33.2-78.7,34.4-90.5
	C812.9,427.6,817.3,427.7,819.3,425z"/>
<path fill="#F2D188" d="M706.5,27.9c1.8,8.8,2.2,14.8,1.1,16c-0.6,0.7-1.2,1-1.8,1c-0.8,0-1.8-0.7-2.7-1.9c-1.1-1.5-4.3-2.7-5.4-3
	c-0.4-1.6-2.2-8.9-3.2-13.2c1.2,1.9,2.8,4.7,4,6.8c1.7,2.9,2.4,5.5,4.2,5.9c0.7,0.2,0.6-0.3-1.7-10c-1.2-4.9-2.8-11.5-2.9-13.2
	c1.3,0.4,5.4,3.7,7.9,5.8c1,0.8,1.9,1.6,2.7,2.2c-1.5-0.4-2.1-0.5-2.4-0.1C706,24.6,706.1,25.8,706.5,27.9z"/>
<g id="XMLID_5_">
	<g>
		<path fill="#E8DBDF" d="M837.9,115.4c-0.3-0.5,0-2.3,0.3-4.8c0.4-1.1,0.7-2.2,1-3.3c0.1,1.1,0.2,2.1,0.4,2.9c2,9.2,11,5.4,13.2,10
			c0.8-7.7,10.9-4.1,12.3-1.5c1.2-7.5,14-2.7,17.5,1.4c5.5-3.2,10.3,8.3,10.6,3.9c0.1-1.6,2.5-9.1,6.6-3.1c-6.1-9.3,0.5-9.3,5.9-4.4
			c-7-8.1-4.9-38.8-62.2-64c-10.2-4.5,6.5-0.9,17.2-0.6c0.3,0.6-3.1,2.4-6.8,2c-1.8-0.5-6.5-1.2-6.5-1.2c1.7,0.5,5.8,2.3,6.2,2.3
			c71.6,37.6,62.6,85.8,130.9,128c-11.1,4.1-52-22.3-73.6-63.3c10.2,25.7,45.1,57.8,65.1,63.1c-6.5,3-30.2-8-50.3-27.4
			c-0.1-0.1-0.3-0.3-0.4-0.4c-8.4-8.2-16.2-17.9-21.7-28.6c1.1,2.3,14,32.4,55.9,53.8c-6.5,3.3-31.7-11.5-49.2-30
			c-4.6-4.9-13.9-17.7-12.3-14.9c3.2,5.7,7.7,11.4,12.8,16.7c7.4,7.9,16,14.7,22.8,18.8c-4.4,1.7-13.3-2.4-28.7-16.8l0,0h0
			c-7.4-7-14.7-16.5-21-29.8c0,0,5.4,16,19,29.6c-17.6-2-34.2-28.7-35.2-30.4c4.6,8.5,9.3,14.7,13.7,19.3c-12.2,1-21-9.8-25.9-15.8
			c-0.2-0.8-1-1.7-2.4-2.9c0.3,0.4,1.8,2.1,1.2,3.2C851.2,129,843.2,122.3,837.9,115.4z"/>
		<path fill="#E8DBDF" d="M839.1,105c0.4-3.2,0.8-6.6,0.6-9.4c0.8,4.1,0.4,8-0.5,11.8C839.2,106.6,839.1,105.8,839.1,105z"/>
		<path fill="#E8DBDF" d="M839.7,95.5c0.2,2.8-0.2,6.2-0.6,9.4C839.1,102.4,839.3,99.3,839.7,95.5z"/>
		<path fill="#E8DBDF" d="M838.2,110.7c0.3-1.7,0.6-3.6,0.9-5.7c0,0.8,0,1.6,0.1,2.4C838.9,108.5,838.6,109.6,838.2,110.7z"/>
		<path fill="#E8DBDF" d="M830.1,114.1c2.8,3.3,2.7,7.1,2.1,8.8c-1,3.1-4.1,5.2-5.9,5.4c-9.7-9.8-16-14.6-21.7-18.9
			c6.1-8.3,20.9,0.6,20.9,0.6c-2.3-3.9-0.9-9.8,6.4-6.4c-1.7-6.1,10.7-10.1-3-26c6.5,6.6,9.6,12.4,10.7,17.9
			c-0.5,3.8-0.7,6.9-0.6,9.4c-0.3,2.1-0.6,4-0.9,5.7c-0.1,0.4-0.3,0.8-0.4,1.2c-0.1-0.1-0.1-0.2-0.1-0.2c0,0.1,0,1-1.2,4.4
			c-0.6,1.6-1.8,2.7-3.1,2.8C833,117.3,832.6,115.7,830.1,114.1z"/>
		<path fill="#E8DBDF" d="M767.5,167.5c0-17.2,16.1-3.3,7.7,7.6c-1-2.3-4.8-8.2-5.4-6.7L767.5,167.5z"/>
		<path fill="#E8DBDF" d="M759.1,181.1c0.1,0.2,0.2,0.3,0.3,0.5C759.3,181.4,759.2,181.3,759.1,181.1z"/>
		<path fill="#E8DBDF" d="M740.9,301.5c3.1,9.5,19.1,49.8,7.5,72.1c-0.4,0.8-0.3-3-0.1-3.7c2.3-13.2,0.6-38.6-17.9-75.5
			c-3.6-7.2-12.8-22.9-13.4-22.6c-1.5,0.7,5.5,9,12.1,23.2c10.2,22,24.3,50.6,17.1,82.5c-0.5,2.2-2,10.8-4.6,12
			c8.5-36.1-14.8-75.3-35.4-110c-5.3-9-10.4-17.4-14.6-25.5c-1.8-3.3-3.4-6.5-4.9-9.4l1.3-0.6c12.2,23.4,23.9,21.1,27.3,19.4
			c-3.8-10.5,13.5,1.2,18.2,10.4c-6.6-13.6-11.6-40.4-5.8-39c-6.2-8.9,0.3-16.4,5.8-15.5c1.5-4.3-9.4-14.7-0.4-11.6
			c-7-4.3-19.3-21.4-11.8-22.6c1.9-0.3,6.6,2.8,8.2,3.8c1.6-8.7,12.6-9.2,19.9-1.8c-4.1-5.3,6.4-12,10-6c0.1,0.2,0.2,0.3,0.3,0.5
			c-0.1-0.2-0.2-0.3-0.3-0.5c-2.6-5.4,3.4-7.5,5.6-6.8c-3.6-2.3-2.1-9.5,2.8-6.8l2.3,0.9c1.4,0.5,10.3,15.6,0.6,18.3
			c-0.2-2.3-1.8-8.8-3.9-9c1.5,2.6,4.5,10,0.9,13.5c-2.2,2.2-5.1,2.2-6,1.5c0.4-1.5,0.4-4.7-0.1-5.1c-0.5,2.1-0.5,8.3-4.7,9.5
			c-2.4,0.7-4.7,0.6-6-0.8c0.9-2.4,0.8-4.7-0.5-5.1c0.9,2.2-0.2,4.2-1,5.5c-0.8,1.3-2.4,2.2-4.3,2.3c-3.4-3.4-12.5-8.6-12.7-8.1
			c0.7,2.2,20.2,8.1,16.8,25.5c-0.1,0.3-7-6.8-10.1-6.5c16.3,9.3,18.7,26.1,14.6,34.8c-0.2,0.3-1.6-10.9-14.4-20.9
			c2.9,2.4,20.3,21.8,13,45.9c-8.4-21.5-17-29.8-17.5-30.3c14.2,22.6,29,52.8,19.9,69.5c-2.6-23-18.3-43.1-18.8-43.8
			c22.9,38.6,19,56.5,15.6,62.8C750.2,329.9,746.2,306.3,740.9,301.5z"/>
		<path fill="#E8DBDF" d="M687.8,243.9l-1.3,0.6c-17.2-33.4-19.1-42-19.3-47.2c0.2-1.7-0.9-4-0.9-4c0,2.3-0.3,5.7-1,6.6
			c-6.5-30.1,4.2-13.4,8.8,5C678.5,222.5,683.2,235,687.8,243.9z"/>
	</g>
	<g>
	</g>
</g>
<g id="XMLID_3_" opacity="0.5">
	<g>
		<path fill="#FFFFFF" d="M886,650.2c15.1-46.7,13.4-134.9,11.3-159c1.5,1.4,3,2,4.4,2c0.4,0,0.8-0.1,1.2-0.2
			c0.6-0.2,1.2-0.5,1.7-0.9c-0.2,7.6,1,25.4,2.2,42.6c0.7,11,1.4,21.3,1.7,28c0.1,1.5,0.2,3.5,0.3,5.9c1.1,19.6,3.6,65.4-11.1,78.3
			C894.4,649.7,890.5,650.8,886,650.2z"/>
		<path fill="#FFFFFF" d="M812.8,427.6c0.1,0,4.5,0.1,6.5-2.6c-3.3,8.8-6.8,18.3-9,25.5c0,0,0,0,0,0c-0.4,1-19.8,61.6-42,112.5
			c-8.1,18.6-16.6,36.9-24.4,53.2c-5.8-7.4-3.4-19.2-0.4-27.9c1.7-4.9,9.1-19.2,16.8-34.3c6.7-13.2,13.7-26.8,17.9-35.8
			C786.1,501.3,811.6,439.4,812.8,427.6z"/>
		<path fill="#FFFFFF" d="M886,650.2c4.5,0.6,8.4-0.4,11.6-3.2c14.7-13,12.2-58.7,11.1-78.3c-0.1-2.3-0.2-4.3-0.3-5.9
			c-0.3-6.7-1-17.1-1.7-28c-1.1-17.2-2.3-35-2.2-42.6c-0.5,0.4-1.1,0.8-1.7,0.9c-0.4,0.1-0.8,0.2-1.2,0.2c-1.4,0-2.9-0.7-4.4-2
			C899.3,515.3,901.1,603.5,886,650.2z M743.6,588.3c-3.1,8.7-5.5,20.5,0.4,27.9c7.8-16.3,16.3-34.7,24.4-53.2
			c22.2-50.8,41.5-111.5,42-112.5c0,0,0,0,0,0c2.1-7.2,5.7-16.7,9-25.5c-2,2.7-6.4,2.6-6.5,2.6c-1.2,11.8-26.7,73.7-34.4,90.5
			c-4.2,9.1-11.2,22.7-17.9,35.8C752.7,569.1,745.3,583.4,743.6,588.3z M697.2,73.8c-10.5-20.6-2-31.8-0.5-33.6
			c-0.5-2.2-3.6-14.7-3.9-16.2c-0.1-0.6,0.3-0.8,0.4-0.8c0.7-0.3,0.7-0.3,6.5,9.7c0.7,1.1,1.3,2.3,1.9,3.2c-0.4-1.8-1-4.1-1.5-6.3
			c-1.9-7.6-3.1-12.7-2.9-13.8c0-0.3,0.2-0.6,0.5-0.7c1-0.4,3.2,1.1,9.3,6c2.1,1.7,4.1,3.4,5.2,4c0.4,0.1,0.7,0.2,1,0.2
			c10.8,0.8,36.7,5.8,43,35.8c3.8,18.1,12.5,19.4,16.1,19.2c5.3-0.4,9.5-4.5,9.7-7.9c0.2-2.8-2.1-4.8-6.3-5.7c-9.7-2-16.3-9.4-16-18
			c0.2-6.9,5.6-15.6,20-17.5c21.1-2.8,37,4.2,51.1,10.4c10.9,4.8,21.3,9.4,32.7,9.1c0,0-2.2,4-7.1,4.2
			c68.7,36.6,62.9,89.4,130,127.3c2.4,2.4-3.9,3.8-9.4,1.3c-1,2.7-11.6-0.3-16.4-2.8c-1.8,2.5-12,0-26.1-9.1
			c-7.3,3.3-20.4-7.2-30.3-16.5c-2.4-0.1-11.3-1.2-21.8-11.4c-0.9,0.1-1.8,0.2-2.6,0.2c-11.6,0-19.9-9.7-24.8-15.7
			c-1.9,2.4-11.1-3.1-17.3-11.5c-0.8,1.9-2.2,3.1-3.8,3.2c0.2,1.3,0,2.4-0.3,3.3c-1,3-3.7,5.3-6,6c17.3,17.7,34.1,40.3,42.6,63.9
			c3.1,6.2,7.2,11.1,11.2,16c7.9,9.5,15.3,18.4,11,33.8c2.6,8.1,3.2,15.8-0.9,21.3c0.7,5.6,0.1,10.7-2.2,14.9
			c0.9,8.4,4.1,19.7,7.5,31.6c6.7,23.1,13.6,47.1,3.3,53.1c4.3,17.4,8.7,33.3,11.8,43.4c5.8,18.7,6.7,29.7,2.8,32.8
			c-0.7,0.6-1.6,0.9-2.7,0.9c-1.3,0-2.8-0.4-4.5-1.3c4.6,18.8,5,43.3-1.7,51.2c-0.3,6.6,1,26.4,2.1,43.8c0.7,11,1.4,21.3,1.7,28.1
			c0.1,1.5,0.2,3.5,0.3,5.8c1.1,19.7,3.7,65.9-11.5,79.2c-2.8,2.5-6.2,3.7-9.9,3.7c-0.9,0-1.9-0.1-2.8-0.2c-0.5,1.5-1.1,3-1.6,4.5
			c-4.5,11.8-9.3,26.5-13.8,40.7c-8.8,27.5-14,43.2-17.6,43.2c0,0-0.1,0-0.1,0c-0.8-0.1-1.4-0.5-2-1.3c-6.5-9.1,3-72.4,10.3-103.9
			c0.8-3.6,1.8-7.6,2.9-12c9.3-37.8,24.7-100.8,15.2-169.8c-4-14.6-7-32.8-8.2-54.5c-9.2-13.1-1.3-69.4-1.3-69.4
			c-3.5-4.3-5.2-11.8-2.9-18.8c-0.3-2.7-0.7-5.8-1-9.2c-0.2,0.2-0.4,0.3-0.7,0.5c-0.5,0.2-1.1,0.3-1.7,0.3c-0.7,0-1.4-0.2-1.9-0.5
			c0.1,10.5-0.1,18.1-0.8,19l-0.2,0.3l-0.4-0.1c-0.6-0.2-1.3-0.5-2.1-1c4.5,21,3.6,70.6-4.8,78.6c-3.8,34.4-14.2,65.3-26.2,81.8
			c0,0-0.7,0.9-1.8,2.2c-7,49.9-63.4,196.4-114.9,229.1c-1.7,1.3-2.1-0.5-2.1-0.9c0-1.5,0-2.9,0-4.3c0.1-13.2,21.2-58.8,35.3-88.4
			c-6.6-7.8-4.1-20.3-0.9-29.5c1.8-5,9.1-19.3,16.9-34.4c6.7-13.1,13.7-26.8,17.9-35.8c8.2-17.9,35.6-82.3,34.3-90.6
			c-0.9-0.6-1.5-1.5-1.5-2.6c0-2.8,2.6-11.8,6.3-24.2c3-10.1,6.4-21.7,9.3-33.1c-8.3-12.7-4.4-30-0.6-46.8
			c3.3-14.5,6.7-29.6,2.4-41.8l0,0c-0.6-1.5-1.5-4.3-1.5-4.3c-9.6-5.8-10.8-17.4-8.8-29.8c-5.7-6.3-4.9-15.7-1.8-24.2
			c-0.5-1.1-4.8-3-9.4-5c-10.4-4.6-27.6-12.1-36-25.1c0,0,0,0,0,0h0c-0.7,2-4.7,5.7-9.2,4.2c-0.8,1.9-2.3,3.3-3.9,4
			c-1,0.5-2,0.7-3,0.7c-1.5,0-2.9-0.5-3.9-1.5c-0.9,1.3-2.4,2.3-4.2,2.6c3.5,4.1,5.6,9.8,3.9,18.3c2.2,2.7,4,5.8,5.1,9.2
			c2.3,6.7,2.2,13-0.9,18.9c4.7,14.6-0.6,25-0.7,25.2c0,0,11.4,27,1.8,38.4c0,0,2.7,10.8-4,21.2c-0.5,0.8,8.1,28.2-3.5,45.5
			c0,0-1.1,11.8-7,15.2c-0.3,0.2-0.9-0.3-0.8-0.7c9.9-36.2-13.8-76.1-34.7-111.3c-5.3-9-10.4-17.5-14.6-25.5
			c-17.4-32.8-22.7-46.3-24-54.1c-0.2,0.3-0.3,0.5-0.5,0.6c-0.2,0.2-0.5,0.3-0.8,0.3c-0.1,0-0.2,0-0.4,0l-0.3-0.1l-0.1-0.3
			c-17.3-79.3-1.5-96.7,6.1-100.4c7-3.5,18.7-2.4,22.7,7.7c3.8,9.5,12.8,18.5,16,18c-17.6-26.1-14.1-46.9-12.3-50.3
			C697.3,75,697.3,74.1,697.2,73.8z"/>
	</g>
	<g>
	</g>
</g>
<path d="M233.6,563c8.1,18.6,16.6,36.9,24.4,53.2c5.8-7.4,3.4-19.2,0.4-27.9c-1.7-4.9-9.1-19.2-16.8-34.3
	c-6.7-13.2-13.7-26.8-17.9-35.8c-7.7-16.9-33.2-78.7-34.4-90.5c-0.1,0-4.5,0.1-6.5-2.6c3.3,8.8,6.8,18.3,9,25.5c0,0,0,0,0,0
	C192.1,451.5,211.4,512.2,233.6,563z M175.9,274.2c0,0-0.9,2.8-1.5,4.3l0,0c-4.3,12.3-0.9,27.3,2.4,41.8c3.8,16.8,7.7,34.1-0.6,46.8
	c2.9,11.4,6.3,23,9.3,33.1c3.6,12.4,6.3,21.4,6.3,24.2c0,1.1-0.5,2-1.5,2.6c-1.3,8.3,26.1,72.7,34.3,90.6
	c4.2,9.1,11.1,22.7,17.9,35.8c7.8,15.2,15.1,29.5,16.9,34.4c3.2,9.1,5.7,21.7-0.9,29.5c14.2,29.6,35.2,75.1,35.3,88.4
	c0,1.4,0,2.9,0,4.3c0,0.4-0.4,2.2-2.1,0.9C240.4,678.2,184,531.8,177,481.9c-1.1-1.3-1.7-2.2-1.8-2.2c-12-16.5-22.4-47.4-26.2-81.8
	c-8.4-7.9-9.3-57.5-4.8-78.6c-0.8,0.5-1.5,0.9-2.1,1l-0.4,0.1l-0.2-0.3c-0.7-0.9-0.8-8.5-0.8-19c-0.6,0.3-1.2,0.5-1.9,0.5
	c-0.6,0-1.2-0.1-1.7-0.3c-0.3-0.1-0.5-0.3-0.7-0.5c-0.4,3.4-0.7,6.5-1,9.2c2.3,7,0.6,14.5-2.9,18.8c0,0,8,56.3-1.3,69.4
	c-1.2,21.6-4.3,39.8-8.2,54.5c-9.5,69,6,132,15.2,169.8c1.1,4.4,2.1,8.4,2.9,12c7.3,31.4,16.8,94.7,10.3,103.9
	c-0.5,0.8-1.2,1.2-2,1.3c0,0-0.1,0-0.1,0c-3.6,0-8.8-15.7-17.6-43.2c-4.5-14.2-9.2-28.9-13.8-40.7c-0.6-1.5-1.1-2.9-1.6-4.5
	c-1,0.2-1.9,0.2-2.8,0.2c-3.8,0-7.1-1.3-9.9-3.7c-15.1-13.3-12.6-59.5-11.5-79.2c0.1-2.3,0.2-4.3,0.3-5.8c0.3-6.7,1-17.1,1.7-28.1
	c1.2-17.4,2.5-37.2,2.1-43.8c-6.7-7.8-6.3-32.4-1.7-51.2c-1.7,0.9-3.2,1.3-4.5,1.3c-1,0-1.9-0.3-2.7-0.9c-4-3.1-3-14.1,2.8-32.8
	c3.1-10.1,7.5-26,11.8-43.4c-10.2-6-3.3-29.9,3.3-53.1c3.4-11.9,6.7-23.2,7.5-31.6c-2.4-4.2-2.9-9.4-2.2-14.9
	c-4.1-5.5-3.5-13.2-0.9-21.3c-4.3-15.4,3.1-24.3,11-33.8c4-4.8,8.2-9.8,11.2-16c8.5-23.6,25.3-46.2,42.6-63.9c-2.3-0.7-5-3-6-6
	c-0.3-0.9-0.5-2.1-0.3-3.3c-1.6-0.2-3.1-1.4-3.8-3.2c-6.2,8.4-15.4,13.8-17.3,11.5c-4.9,6-13.2,15.7-24.8,15.7
	c-0.9,0-1.7-0.1-2.6-0.2c-10.5,10.2-19.4,11.3-21.8,11.4c-9.9,9.3-23,19.8-30.3,16.5c-14.1,9.1-24.3,11.7-26.1,9.1
	c-4.8,2.5-15.4,5.5-16.4,2.8c-5.5,2.5-11.8,1.1-9.4-1.3c67.1-37.9,61.3-90.7,130-127.3c-5-0.2-7.1-4.2-7.1-4.2
	c11.5,0.3,21.8-4.2,32.7-9.1c14.1-6.2,30.1-13.3,51.1-10.4c14.4,1.9,19.8,10.6,20,17.5c0.3,8.5-6.3,15.9-16,18
	c-4.3,0.9-6.5,2.9-6.3,5.7c0.2,3.4,4.5,7.6,9.7,7.9c3.6,0.2,12.3-1.1,16.1-19.2c6.3-30,32.1-35,43-35.8c0.3,0,0.6-0.1,1-0.2
	c1-0.6,3-2.2,5.2-4c6-4.9,8.2-6.5,9.3-6c0.3,0.1,0.5,0.4,0.5,0.7c0.2,1.1-1.1,6.2-2.9,13.8c-0.5,2.2-1.1,4.6-1.5,6.3
	c0.5-0.9,1.2-2,1.9-3.2c5.8-9.9,5.8-9.9,6.5-9.7c0.1,0,0.5,0.2,0.4,0.8c-0.4,1.5-3.4,14-3.9,16.2c1.5,1.8,10,12.9-0.5,33.6
	c-0.1,0.3-0.1,1.2,0.3,1.9c1.9,3.4,5.3,24.2-12.3,50.3c3.1,0.5,12.1-8.4,16-18c4-10,15.7-11.1,22.7-7.7c7.6,3.8,23.4,21.2,6.1,100.4
	l-0.1,0.3l-0.3,0.1c-0.1,0-0.2,0-0.4,0c-0.3,0-0.6-0.1-0.8-0.3c-0.2-0.2-0.4-0.4-0.5-0.6c-1.3,7.8-6.6,21.3-24,54.1
	c-4.3,8-9.3,16.5-14.6,25.5c-20.9,35.2-44.7,75.1-34.7,111.3c0.1,0.3-0.5,0.8-0.8,0.7c-5.9-3.3-7-15.2-7-15.2
	c-11.6-17.3-3-44.7-3.5-45.5c-6.7-10.4-4-21.2-4-21.2c-9.6-11.5,1.8-38.4,1.8-38.4c-0.1-0.1-5.4-10.6-0.7-25.2
	c-3.1-5.9-3.2-12.1-0.9-18.9c1.1-3.3,2.9-6.4,5.1-9.2c-1.7-8.5,0.4-14.3,3.9-18.3c-1.8-0.3-3.4-1.3-4.2-2.6c-1,0.9-2.4,1.5-3.9,1.5
	c-1,0-2-0.2-3-0.7c-1.6-0.7-3-2-3.9-4c-4.5,1.6-8.5-2.2-9.2-4.2h0c0,0,0,0,0,0c-8.4,13-25.5,20.5-36,25.1c-4.6,2-8.9,3.9-9.4,5
	c3.2,8.5,4,18-1.8,24.2C186.8,256.8,185.5,268.4,175.9,274.2z M26.1,182.8c6.5,3,30.2-8,50.3-27.4c0.1-0.1,0.3-0.3,0.4-0.4
	c8.4-8.2,16.2-17.9,21.7-28.6c-1.1,2.3-14,32.4-55.9,53.8c6.5,3.3,31.7-11.5,49.2-30c4.6-4.9,13.9-17.7,12.3-14.9
	c-3.2,5.7-7.7,11.4-12.8,16.7c-7.4,7.9-16,14.7-22.8,18.8c4.4,1.7,13.3-2.4,28.7-16.8l0,0h0c7.4-7,14.7-16.5,21-29.8
	c0,0-5.4,16-19,29.6c17.6-2,34.2-28.7,35.2-30.4c-4.6,8.5-9.3,14.7-13.7,19.3c12.2,1,21-9.8,25.9-15.8c0.2-0.8,1-1.7,2.4-2.9
	c-0.3,0.4-1.8,2.1-1.2,3.2c3.1,1.8,10.8-4.4,16.1-11.9l0.1,0c-0.2-0.7-0.2-1.5-0.2-2.3c-11.7-26.6,17.8-43.3,19.4-44.2
	c-0.2,0.2-0.5,0.4-0.9,0.7c-22,16.9-22.3,31.6-18.1,41.5c0.6-1.9,1.8-4.8,4-5.7c0,0-4.5,5.6-2.8,10.7c0.6,1.6,1.8,2.7,3.1,2.8
	c0.5-1.5,0.8-3.1,3.3-4.7c-2.8,3.3-2.7,7.1-2.1,8.8c1,3.1,4.1,5.2,5.9,5.4c24.2-23.7,36.8-28.3,37.6-28.6
	c-23.4,13-65,51.8-80.1,93.9c-1.6,3.2-3.4,6-5.4,8.7c-1.9,2.7-4,5.1-6,7.6c-7.7,9.2-14.3,17.3-11.2,31c2.2-6,5.4-12,8.5-17.4
	c2.1-3.7,12-15.4,11.2-19c0.7,1-0.5,4.1-4.1,9.7c-8.2,12.6-22.6,35.8-15.2,48.3c2-12.5,9.4-26.8,15.1-37.9c3.2-6.2,7.4-13.6,7.6-14
	c-1.2,3.3-3.8,7.9-7.1,14.4c-5.9,11.4-13,26.4-14.6,38.9c0.1,0.1-0.1,0.5-0.1,0.5c-1,8.3,0.8,15.5,7.6,20
	c1.6-15.6,15.4-63.2,21.1-77.9c-0.9,2.9-20.7,66.4-20.1,80c0.5,13.3,8,26.4,13.1,31.1c0.2-1.8,10.2-87.6,10.2-87.6s-2.4,83.7-1.2,89
	c4.7-2.1,19.7-17,19.3-33.7c-0.1-6.8-1.7-16.8-3.3-27.3c-1.7-11.1-3.3-23.4-4.2-34c-0.6-7.3,1-12.2,1.2-12.7
	c-1.6,7.5-1.3,9.3,4.2,46.5c1.6,10.6,3.2,20.5,3.4,27.4c0,2-0.1,4-0.5,6c5.8-4,9.2-8.3,11.1-13c0,0,0-0.1,0-0.1
	c1.5-3.8,2.2-7.8,2.2-12.1c0-7.1-1.9-14.9-5.2-23.7c-9-23.8-7.5-28.1-7.6-32c0.4,8.2,2.8,16.7,8.6,32.2c4.3,11.4,5.8,21.1,4.5,30.2
	c16.6-11,4.8-42.2-2.4-60.8c-0.9-2.4-5.3-10.6-3.4-15.3c-2.3,6.7,11.2,26.3,14.2,46.3c12.5-15.8-12.5-40-8.7-47.7
	c-1.3,4.4,8.6,19.7,10.2,23.7c1.3-1.3,4.3-2.6,9.4-4.8c10.6-4.6,28-12.3,36-25.5c-6.7-1.9-6.2-8.6-5.2-11.9
	c-5.7-6.6,0.1-16.9,4.2-17.3c-2.7,1.5-7.8,10.5-3.7,15.8c1-2.3,4.8-8.2,5.4-6.7c-1.4,0.5-10.3,15.6-0.6,18.3c0.2-2.3,1.8-8.8,3.9-9
	c-1.5,2.6-4.5,10-0.9,13.5c2.2,2.2,5.1,2.2,6,1.5c-0.4-1.5-0.4-4.7,0.1-5.1c0.5,2.1,0.5,8.3,4.7,9.5c2.4,0.7,4.7,0.6,6-0.8
	c-0.9-2.4-0.8-4.7,0.5-5.1c-0.9,2.2,0.2,4.2,1,5.5c0.8,1.3,2.4,2.2,4.3,2.3c3.4-3.4,12.5-8.6,12.7-8.1c-0.7,2.2-20.2,8.1-16.8,25.5
	c0.1,0.3,7-6.8,10.1-6.5c-16.3,9.3-18.7,26.1-14.6,34.8c0.2,0.3,1.6-10.9,14.4-20.9c-2.9,2.4-20.3,21.8-13,45.9
	c8.4-21.5,17-29.8,17.5-30.3c-14.2,22.6-29,52.8-19.9,69.5c2.6-23,18.3-43.1,18.8-43.8c-22.9,38.6-19,56.5-15.6,62.8
	c1.1,2.1,5.1-21.5,10.4-26.3c-3.1,9.5-19.1,49.8-7.5,72.1c0.4,0.8,0.3-3,0.1-3.7c-2.3-13.2-0.6-38.6,17.9-75.5
	c3.6-7.2,12.8-22.9,13.4-22.6c1.5,0.7-5.5,9-12.1,23.2c-10.2,22-24.3,50.6-17.1,82.5c0.5,2.2,2,10.8,4.6,12
	c-8.5-36.1,14.8-75.3,35.4-110c5.3-9,10.4-17.4,14.6-25.5c21.8-41.2,24-50.9,24.2-56.6c-0.2-1.7,0.9-4,0.9-4c0,2.3,0.3,5.7,1,6.6
	c6.5-30.1,8.9-54.2,7-71.7c-1.9-18-7.9-24.5-12.6-26.9c-6.5-3.2-17.1-1.9-21.3,7.4c-6.2,13.7-24.9,33-24.7,4.7c0,0,1,10.6,4.5,11.5
	c3.3,0.8,8.6-9.9,9.3-11.6c10.7-23.9,6.3-35.9,5.2-37.8c-1.3,1.4-2.6,2.4-2.8,2.5c1.1-1.9,2.1-3.7,3-5.4c9.6-19.5,1.8-29.8,0.4-31.6
	c-1.3,0.4-3.9,1.5-4.7,2.6c-0.8,1.1-2.1,2.4-3.6,2.4c-1,0-1.9-0.4-2.8-1.4c-1.4-1.6-1.1-7.3,0.9-17c0.2-0.9,0.3-1.9,0.3-2.5
	c-0.5,0.1-1.2,0.3-1.8,0.5c-0.8,0.2-1.6,0.5-2.3,0.6c0,0,0,0-0.1,0v0c-0.5,0.1-1,0.2-1.3,0.2c-10.6,0.8-35.8,5.7-41.9,34.9
	c-3.7,17.8-12.3,20.1-16.5,20.1c-0.3,0-0.5,0-0.8,0c-5.5-0.4-10.5-4.6-10.8-9c-0.1-1.6,0.4-5.5,7.2-6.9c9.2-1.9,15.4-8.8,15.1-16.8
	c-0.2-6.7-5.4-14.6-19-16.4c-20.8-2.8-35.9,3.9-50.5,10.4c-10.2,4.5-19.9,8.8-30.6,9.2c-0.3,0.6,3.1,2.4,6.8,2
	c1.8-0.5,6.5-1.2,6.5-1.2c-1.7,0.5-5.8,2.3-6.2,2.3C76.8,92.7,85.8,140.9,17.5,183c11.1,4.1,52-22.3,73.6-63.3
	C80.9,145.4,46.1,177.5,26.1,182.8z M94.9,438.1c1.7-6.7,3.7-14.2,5.9-22.4c8.7-32.8,19.6-73.6,18-93.6c-0.4-0.1-0.8-0.2-1.1-0.6
	c-1-0.9-2.8-3.6-3.9-8.1c-5.1,31.4-16.3,74.3-22.5,94.2c-5.5,17.7-6.6,28.9-3.2,31.6C89.5,440.3,91.8,439.9,94.9,438.1z M116,650.2
	c-15.1-46.7-13.4-134.9-11.3-159c-1.5,1.4-3,2-4.4,2c-0.4,0-0.8-0.1-1.2-0.2c-0.6-0.2-1.2-0.5-1.7-0.9c0.2,7.6-1,25.4-2.2,42.6
	c-0.7,11-1.4,21.3-1.7,28c-0.1,1.5-0.2,3.5-0.3,5.9c-1.1,19.6-3.6,65.4,11.1,78.3C107.6,649.7,111.5,650.8,116,650.2z M99.6,468
	c-1.2,5.8-2.6,18.2,1,24.1c2.9-0.7,5.6-4,6.1-4.7c5.5-7.3,10.9-19,15.2-34.8c0.1-0.8,0.6-2.3,0.6-2.3c7.2-27.7,10.9-67.6,6-119.1
	c-0.4,0.1-0.7,0.1-1.1,0.1c-1.5,0-2.9-0.5-3.9-1.6c-1.8-1.8-2.2-5-1.9-9c-0.4,0.6-1.2,0.9-1.6,1.2c1.7,20.2-9.2,61.2-18,94.2
	c-2.1,8-18.7,54.4-2.8,75.7C95.1,483.8,99.6,468,99.6,468z M113.2,310c-0.8-6.2-1.1-15.1,3.7-26c-1.2-1-2.2-2.1-3.1-3.3
	c-1.1,8.4-4.1,19.1-7.4,30.4c-6.5,22.5-13.1,45.7-4.1,51.6C106.6,344.9,110.8,325.8,113.2,310z M132.9,696.2
	c6.3,19.9,13.6,42.4,16.4,42.4c0,0,0,0,0.1,0c0.4,0,0.8-0.3,1.2-0.8c6.2-8.7-3.4-72.5-10.5-102.9c-0.8-3.6-1.8-7.6-2.9-12
	c-9-36.6-23.7-96.7-16.2-163.1c-4,12.6-8.7,22.1-13.4,28.4c-0.5,0.7-1,1.3-1.5,1.8c-2.2,22.6-4.5,119.9,13,165.4
	C123.6,667.2,128.3,681.9,132.9,696.2z M122.5,316.9c0,0-1.9,15.3,6.4,13c4.1-1.1,7.9-9.1,5.8-13.2c-0.1,2.9-1.2,2.5-1.2,2.5
	c-5-4.1-14.7-18.3-14.3-32.7c0-0.4-0.9-1.4-1.3-1.7c-9,17.8-1.7,34.4,0.6,35.9C120.6,322.1,122.3,317.3,122.5,316.9z M131.4,395.6
	c6.3-13.8,1.8-56.5,0.4-66c-0.5,0.4-1,0.8-1.5,1c-0.2,0.1-0.4,0.2-0.6,0.3C131.9,355,132.4,376.6,131.4,395.6z M137.7,300.2
	c1,0.4,2.4,0.2,3-0.3l0.2,0.2c0.2-15.6,0.9-37.1,1.5-52.6c-1.6,14.7-3.9,35.8-5.6,51.6l0.2,0C136.8,299.6,137.1,300,137.7,300.2z
	 M148.8,396c-2-19.4-1.9-39.9,1.3-59.5c-0.5-0.2-1-0.4-1.4-0.8c-3-2.5-3.5-8.8-1.4-18.8C140.8,321.5,140.6,383.5,148.8,396z
	 M155.8,334.8c5-2.2,5.1-7,4.9-11.5c-0.1-0.6-0.1-1.1-0.1-1.4c0,0,1.3,3.3,2.7,5c2.4,2.9,6.2,1.8,6.9-0.2c2.2-6.4-0.3-25.3-8.2-33.8
	c0,0-0.1,0-0.1,0.1c-1.5,9.9-13.2,23-13.2,23c-2.9,12.8-1.2,17.3,0.7,18.9C151.3,336.3,153.9,335.6,155.8,334.8z M178.1,481.4
	c3.3,3.9,9.2,10.2,12.8,10.2c0,0,0.1,0,0.1,0c0.8,0,1.4-0.4,1.9-1.2c1-1.8-11.4-39.5-12.2-41.8c1.9,4.8,8.6,22.4,11.7,33.5
	c6.2-11.9-2.4-34.8-14.3-66.2l-1.5-4.1c-12.6-33.6-16.6-58.6-13.5-83.4c-0.5-0.5-1-1.1-1.3-1.7c-0.2,3.7-1.3,7.3-5.6,9.2
	c-1.5,0.6-2.9,1-4.1,1c-0.3,0-0.6,0-0.9-0.1c-8.7,54.7,6.1,116.3,24.9,142.2C176.5,479.4,178.1,481.1,178.1,481.4z M179.3,415.4
	c1.1,3,4.3,11.9,9.4,11.1c0.6-0.1,2.1-0.6,2.1-2.1c0-2.7-2.8-12-6.2-23.8c-6.7-22.9-15.9-54.1-15.7-71.1c-2,0.7-3.5,0.3-4.6-0.3
	c-3,24.4,1,49.1,13.5,82.2L179.3,415.4z M171.4,327c-0.3,0.9-0.8,1.5-1.3,1.9c-0.2,9.1,2.4,22.6,5.9,36.7c7.3-12.1,3.7-28.1-0.2-45
	c-2.9-12.8-5.9-26-3.7-37.5c-2.1,3.2-5,6.2-9.1,9C170.4,301,173.7,319.8,171.4,327z M218.7,602c14.8,32.4,43.9,89.3,74.1,108.2
	c2.2-18.7-37.1-93.8-60.2-146.8c-14.1-32.3-26.9-72-37.9-100.7c1.6,8.8,1.3,15.9-1.8,20.9c1,3.8,1.5,6.6,1,7.4
	c-0.7,1.1-1.6,1.7-2.8,1.8c-0.1,0-0.1,0-0.2,0c-3.8,0-9.1-5.3-12.5-9.2C182.1,506.8,196.7,553.6,218.7,602z M296.2,44.9
	c0.8,0,1.8-0.7,2.7-1.9c1.1-1.5,4.3-2.7,5.4-3c0.4-1.6,2.2-8.9,3.2-13.2c-1.2,1.9-2.8,4.7-4,6.8c-1.7,2.9-2.4,5.5-4.2,5.9
	c-0.7,0.2-0.6-0.3,1.7-10c1.2-4.9,2.8-11.5,2.9-13.2c-1.3,0.4-5.4,3.7-7.9,5.8c-1,0.8-1.9,1.6-2.7,2.2c1.5-0.4,2.1-0.5,2.4-0.1
	c0.3,0.4,0.2,1.6-0.2,3.6c-1.8,8.8-2.2,14.8-1.1,16C294.9,44.6,295.6,44.9,296.2,44.9z"/>
<path fill="#D1B8C0" d="M266.2,265c-22.9,38.6-19,56.5-15.6,62.8c1.1,2.1,5.1-21.5,10.4-26.3c-3.1,9.5-19.1,49.8-7.5,72.1
	c0.4,0.8,0.3-3,0.1-3.7c-2.3-13.2-0.6-38.6,17.9-75.5c3.6-7.2,12.8-22.9,13.4-22.6c1.5,0.7-5.5,9-12.1,23.2
	c-10.2,22-24.3,50.6-17.1,82.5c0.5,2.2,2,10.8,4.6,12c-8.5-36.1,14.8-75.3,35.4-110c5.3-9,10.4-17.4,14.6-25.5
	c21.8-41.2,24-50.9,24.2-56.6c-0.2-1.7,0.9-4,0.9-4c0,2.3,0.3,5.7,1,6.6c6.5-30.1,8.9-54.2,7-71.7c-1.9-18-7.9-24.5-12.6-26.9
	c-6.5-3.2-17.1-1.9-21.3,7.4c-6.2,13.7-24.9,33-24.7,4.7c0,0,1,10.6,4.5,11.5c3.3,0.8,8.6-9.9,9.3-11.6c10.7-23.9,6.3-35.9,5.2-37.8
	c-1.3,1.4-2.6,2.4-2.8,2.5c1.1-1.9,2.1-3.7,3-5.4c9.6-19.5,1.8-29.8,0.4-31.6c-1.3,0.4-3.9,1.5-4.7,2.6c-0.8,1.1-2.1,2.4-3.6,2.4
	c-1,0-1.9-0.4-2.8-1.4c-1.4-1.6-1.1-7.3,0.9-17c0.2-0.9,0.3-1.9,0.3-2.5c-0.5,0.1-1.2,0.3-1.8,0.5c-0.8,0.2-1.6,0.5-2.3,0.6
	c0,0,0,0-0.1,0v0c-0.5,0.1-1,0.2-1.3,0.2c-10.6,0.8-35.8,5.7-41.9,34.9c-3.7,17.8-12.3,20.1-16.5,20.1c-0.3,0-0.5,0-0.8,0
	c-5.5-0.4-10.5-4.6-10.8-9c-0.1-1.6,0.4-5.5,7.2-6.9c9.2-1.9,15.4-8.8,15.1-16.8c-0.2-6.7-5.4-14.6-19-16.4
	c-20.8-2.8-35.9,3.9-50.5,10.4c-10.2,4.5-19.9,8.8-30.6,9.2c-0.3,0.6,3.1,2.4,6.8,2c1.8-0.5,6.5-1.2,6.5-1.2
	c-1.7,0.5-5.8,2.3-6.2,2.3C76.8,92.7,85.8,140.9,17.5,183c11.1,4.1,52-22.3,73.6-63.3c-10.2,25.7-45.1,57.8-65.1,63.1
	c6.5,3,30.2-8,50.3-27.4c0.1-0.1,0.3-0.3,0.4-0.4c8.4-8.2,16.2-17.9,21.7-28.6c-1.1,2.3-14,32.4-55.9,53.8
	c6.5,3.3,31.7-11.5,49.2-30c4.6-4.9,13.9-17.7,12.3-14.9c-3.2,5.7-7.7,11.4-12.8,16.7c-7.4,7.9-16,14.7-22.8,18.8
	c4.4,1.7,13.3-2.4,28.7-16.8l0,0h0c7.4-7,14.7-16.5,21-29.8c0,0-5.4,16-19,29.6c17.6-2,34.2-28.7,35.2-30.4
	c-4.6,8.5-9.3,14.7-13.7,19.3c12.2,1,21-9.8,25.9-15.8c0.2-0.8,1-1.7,2.4-2.9c-0.3,0.4-1.8,2.1-1.2,3.2c3.1,1.8,10.8-4.4,16.1-11.9
	l0.1,0c-0.2-0.7-0.2-1.5-0.2-2.3c-11.7-26.6,17.8-43.3,19.4-44.2c-0.2,0.2-0.5,0.4-0.9,0.7c-22,16.9-22.3,31.6-18.1,41.5
	c0.6-1.9,1.8-4.8,4-5.7c0,0-4.5,5.6-2.8,10.7c0.6,1.6,1.8,2.7,3.1,2.8c0.5-1.5,0.8-3.1,3.3-4.7c-2.8,3.3-2.7,7.1-2.1,8.8
	c1,3.1,4.1,5.2,5.9,5.4c24.2-23.7,36.8-28.3,37.6-28.6c-23.4,13-65,51.8-80.1,93.9c-1.6,3.2-3.4,6-5.4,8.7l2.5,2.2
	c0.7,1-0.5,4.1-4.1,9.7c-8.2,12.6-22.6,35.8-15.2,48.3c2-12.5,9.4-26.8,15.1-37.9c3.2-6.2,7.4-13.6,7.6-14
	c-1.2,3.3-3.8,7.9-7.1,14.4c-5.9,11.4-13,26.4-14.6,38.9c0.1,0.1-0.1,0.5-0.1,0.5c-1,8.3,0.8,15.5,7.6,20
	c1.6-15.6,15.4-63.2,21.1-77.9c-0.9,2.9-20.7,66.4-20.1,80c0.5,13.3,8,26.4,13.1,31.1c0.2-1.8,10.2-87.6,10.2-87.6s-2.4,83.7-1.2,89
	c4.7-2.1,19.7-17,19.3-33.7c-0.1-6.8-1.7-16.8-3.3-27.3c-1.7-11.1-3.3-23.4-4.2-34c-0.6-7.3,1-12.2,1.2-12.7
	c-1.6,7.5-1.3,9.3,4.2,46.5c1.6,10.6,3.2,20.5,3.4,27.4c0,2-0.1,4-0.5,6c5.8-4,9.2-8.3,11.1-13c0,0,0-0.1,0-0.1
	c1.5-3.8,2.2-7.8,2.2-12.1c0-7.1-1.9-14.9-5.2-23.7c-9-23.8-7.5-28.1-7.6-32c0.4,8.2,2.8,16.7,8.6,32.2c4.3,11.4,5.8,21.1,4.5,30.2
	c16.6-11,4.8-42.2-2.4-60.8c-0.9-2.4-5.3-10.6-3.4-15.3c-2.3,6.7,11.2,26.3,14.2,46.3c12.5-15.8-12.5-40-8.7-47.7
	c-1.3,4.4,8.6,19.7,10.2,23.7c1.3-1.3,4.3-2.6,9.4-4.8c10.6-4.6,28-12.3,36-25.5c-6.7-1.9-6.2-8.6-5.2-11.9
	c-5.7-6.6,0.1-16.9,4.2-17.3c-2.7,1.5-7.8,10.5-3.7,15.8c1-2.3,4.8-8.2,5.4-6.7c-1.4,0.5-10.3,15.6-0.6,18.3c0.2-2.3,1.8-8.8,3.9-9
	c-1.5,2.6-4.5,10-0.9,13.5c2.2,2.2,5.1,2.2,6,1.5c-0.4-1.5-0.4-4.7,0.1-5.1c0.5,2.1,0.5,8.3,4.7,9.5c2.4,0.7,4.7,0.6,6-0.8
	c-0.9-2.4-0.8-4.7,0.5-5.1c-0.9,2.2,0.2,4.2,1,5.5c0.8,1.3,2.4,2.2,4.3,2.3c3.4-3.4,12.5-8.6,12.7-8.1c-0.7,2.2-20.2,8.1-16.8,25.5
	c0.1,0.3,7-6.8,10.1-6.5c-16.3,9.3-18.7,26.1-14.6,34.8c0.2,0.3,1.6-10.9,14.4-20.9c-2.9,2.4-20.3,21.8-13,45.9
	c8.4-21.5,17-29.8,17.5-30.3c-14.2,22.6-29,52.8-19.9,69.5C250,285.7,265.7,265.6,266.2,265z"/>
<path fill="#E8DBDF" d="M91.3,407.6c-5.5,17.7-6.6,28.9-3.2,31.6c1.4,1.1,3.7,0.7,6.8-1c1.7-6.7,3.7-14.2,5.9-22.4
	c8.7-32.8,19.6-73.6,18-93.6c-0.4-0.1-0.8-0.2-1.1-0.6c-1-0.9-2.8-3.6-3.9-8.1C108.7,344.8,97.5,387.7,91.3,407.6z"/>
<path fill="#D1B8C0" d="M93.3,568.6c-1.1,19.6-3.6,65.4,11.1,78.3c3.2,2.8,7.1,3.9,11.6,3.2c-15.1-46.7-13.4-134.9-11.3-159
	c-1.5,1.4-3,2-4.4,2c-0.4,0-0.8-0.1-1.2-0.2c-0.6-0.2-1.2-0.5-1.7-0.9c0.2,7.6-1,25.4-2.2,42.6c-0.7,11-1.4,21.3-1.7,28
	C93.6,564.3,93.4,566.3,93.3,568.6z"/>
<path fill="#E8DBDF" d="M101.9,416.1c-2.1,8-18.7,54.4-2.8,75.7c-4-8,0.5-23.8,0.5-23.8c-1.2,5.8-2.6,18.2,1,24.1
	c2.9-0.7,5.6-4,6.1-4.7c5.5-7.3,10.9-19,15.2-34.8c0.1-0.8,0.6-2.3,0.6-2.3c7.2-27.7,10.9-67.6,6-119.1c-0.4,0.1-0.7,0.1-1.1,0.1
	c-1.5,0-2.9-0.5-3.9-1.6c-1.8-1.8-2.2-5-1.9-9c-0.4,0.6-1.2,0.9-1.6,1.2C121.6,342.1,110.7,383,101.9,416.1z"/>
<path fill="#916B79" d="M106.4,311.1c-6.5,22.5-13.1,45.7-4.1,51.6c4.3-17.8,8.5-36.9,10.9-52.7c-0.8-6.2-1.1-15.1,3.7-26
	c-1.2-1-2.2-2.1-3.1-3.3C112.8,289.1,109.7,299.8,106.4,311.1z"/>
<path fill="#916B79" d="M106,489.9c-2.2,22.6-4.5,119.9,13,165.4c4.6,11.8,9.3,26.6,13.8,40.8c6.3,19.9,13.6,42.4,16.4,42.4
	c0,0,0,0,0.1,0c0.4,0,0.8-0.3,1.2-0.8c6.2-8.7-3.4-72.5-10.5-102.9c-0.8-3.6-1.8-7.6-2.9-12c-9-36.6-23.7-96.7-16.2-163.1
	c-4,12.6-8.7,22.1-13.4,28.4C107,488.8,106.5,489.4,106,489.9z"/>
<path fill="#D1B8C0" d="M121.7,209.9c-7.7,9.2-14.3,17.3-11.2,31c2.2-6,5.4-12,8.5-17.4c2.1-3.7,12-15.4,11.2-19l-2.5-2.2
	C125.8,205,123.7,207.4,121.7,209.9z"/>
<path fill="#D1A1BA" d="M117.9,284.8c-9,17.8-1.7,34.4,0.6,35.9c2.2,1.4,3.8-3.4,4-3.8c0,0-1.9,15.3,6.4,13
	c4.1-1.1,7.9-9.1,5.8-13.2c-0.1,2.9-1.2,2.5-1.2,2.5c-5-4.1-14.7-18.3-14.3-32.7C119.2,286.1,118.3,285.1,117.9,284.8z"/>
<path fill="#F2DFE8" d="M130.3,330.6c-0.2,0.1-0.4,0.2-0.6,0.3c2.3,24.1,2.7,45.7,1.8,64.7c6.3-13.8,1.8-56.5,0.4-66
	C131.3,330,130.8,330.4,130.3,330.6z"/>
<path fill="#351E28" d="M136.7,299l0.2,0c0,0.6,0.3,1,0.8,1.2c1,0.4,2.4,0.2,3-0.3l0.2,0.2c0.2-15.6,0.9-37.1,1.5-52.6
	C140.7,262.1,138.5,283.3,136.7,299z"/>
<path fill="#F2DFE8" d="M148.7,335.7c-3-2.5-3.5-8.8-1.4-18.8c-6.5,4.6-6.7,66.6,1.5,79.1c-2-19.4-1.9-39.9,1.3-59.5
	C149.6,336.3,149.2,336,148.7,335.7z"/>
<path fill="#D1A1BA" d="M148.8,315.9c-2.9,12.8-1.2,17.3,0.7,18.9c1.8,1.5,4.4,0.8,6.3,0c5-2.2,5.1-7,4.9-11.5
	c-0.1-0.6-0.1-1.1-0.1-1.4c0,0,1.3,3.3,2.7,5c2.4,2.9,6.2,1.8,6.9-0.2c2.2-6.4-0.3-25.3-8.2-33.8c0,0-0.1,0-0.1,0.1
	C160.5,302.8,148.8,315.9,148.8,315.9z"/>
<path fill="#E8DBDF" d="M180.7,448.6c1.9,4.8,8.6,22.4,11.7,33.5c6.2-11.9-2.4-34.8-14.3-66.2l-1.5-4.1
	c-12.6-33.6-16.6-58.6-13.5-83.4c-0.5-0.5-1-1.1-1.3-1.7c-0.2,3.7-1.3,7.3-5.6,9.2c-1.5,0.6-2.9,1-4.1,1c-0.3,0-0.6,0-0.9-0.1
	c-8.7,54.7,6.1,116.3,24.9,142.2c0.3,0.4,1.9,2.2,1.9,2.4c3.3,3.9,9.2,10.2,12.8,10.2c0,0,0.1,0,0.1,0c0.8,0,1.4-0.4,1.9-1.2
	C193.9,488.6,181.5,450.8,180.7,448.6z"/>
<path fill="#E8DBDF" d="M164.3,329.1c-3,24.4,1,49.1,13.5,82.2l1.5,4.1c1.1,3,4.3,11.9,9.4,11.1c0.6-0.1,2.1-0.6,2.1-2.1
	c0-2.7-2.8-12-6.2-23.8c-6.7-22.9-15.9-54.1-15.7-71.1C166.8,330.2,165.3,329.8,164.3,329.1z"/>
<path fill="#916B79" d="M172.1,283.1c-2.1,3.2-5,6.2-9.1,9c7.3,8.9,10.7,27.6,8.3,34.8c-0.3,0.9-0.8,1.5-1.3,1.9
	c-0.2,9.1,2.4,22.6,5.9,36.7c7.3-12.1,3.7-28.1-0.2-45C172.9,307.9,169.9,294.7,172.1,283.1z"/>
<path fill="#916B79" d="M190.9,492.7c-3.8,0-9.1-5.3-12.5-9.2c3.7,23.3,18.3,70.1,40.3,118.4c14.8,32.4,43.9,89.3,74.1,108.2
	c2.2-18.7-37.1-93.8-60.2-146.8c-14.1-32.3-26.9-72-37.9-100.7c1.6,8.8,1.3,15.9-1.8,20.9c1,3.8,1.5,6.6,1,7.4
	c-0.7,1.1-1.6,1.7-2.8,1.8C191,492.7,190.9,492.7,190.9,492.7z"/>
<path fill="#D1B8C0" d="M182.7,425c3.3,8.8,6.8,18.3,9,25.5c0,0,0,0,0,0c0.4,1,19.8,61.6,42,112.5c8.1,18.6,16.6,36.9,24.4,53.2
	c5.8-7.4,3.4-19.2,0.4-27.9c-1.7-4.9-9.1-19.2-16.8-34.3c-6.7-13.2-13.7-26.8-17.9-35.8c-7.7-16.9-33.2-78.7-34.4-90.5
	C189.1,427.6,184.7,427.7,182.7,425z"/>
<path fill="#F2D188" d="M295.5,27.9c-1.8,8.8-2.2,14.8-1.1,16c0.6,0.7,1.2,1,1.8,1c0.8,0,1.8-0.7,2.7-1.9c1.1-1.5,4.3-2.7,5.4-3
	c0.4-1.6,2.2-8.9,3.2-13.2c-1.2,1.9-2.8,4.7-4,6.8c-1.7,2.9-2.4,5.5-4.2,5.9c-0.7,0.2-0.6-0.3,1.7-10c1.2-4.9,2.8-11.5,2.9-13.2
	c-1.3,0.4-5.4,3.7-7.9,5.8c-1,0.8-1.9,1.6-2.7,2.2c1.5-0.4,2.1-0.5,2.4-0.1C296,24.6,295.9,25.8,295.5,27.9z"/>
<g id="XMLID_2_">
	<g>
		<path fill="#E8DBDF" d="M164.1,115.4c0.3-0.5,0-2.3-0.3-4.8c-0.4-1.1-0.7-2.2-1-3.3c-0.1,1.1-0.2,2.1-0.4,2.9
			c-2,9.2-11,5.4-13.2,10c-0.8-7.7-10.9-4.1-12.3-1.5c-1.2-7.5-14-2.7-17.5,1.4c-5.5-3.2-10.3,8.3-10.6,3.9
			c-0.1-1.6-2.5-9.1-6.6-3.1c6.1-9.3-0.5-9.3-5.9-4.4c7-8.1,4.9-38.8,62.2-64c10.2-4.5-6.5-0.9-17.2-0.6c-0.3,0.6,3.1,2.4,6.8,2
			c1.8-0.5,6.5-1.2,6.5-1.2c-1.7,0.5-5.8,2.3-6.2,2.3C76.8,92.7,85.8,140.9,17.5,183c11.1,4.1,52-22.3,73.6-63.3
			c-10.2,25.7-45.1,57.8-65.1,63.1c6.5,3,30.2-8,50.3-27.4c0.1-0.1,0.3-0.3,0.4-0.4c8.4-8.2,16.2-17.9,21.7-28.6
			c-1.1,2.3-14,32.4-55.9,53.8c6.5,3.3,31.7-11.5,49.2-30c4.6-4.9,13.9-17.7,12.3-14.9c-3.2,5.7-7.7,11.4-12.8,16.7
			c-7.4,7.9-16,14.7-22.8,18.8c4.4,1.7,13.3-2.4,28.7-16.8l0,0h0c7.4-7,14.7-16.5,21-29.8c0,0-5.4,16-19,29.6
			c17.6-2,34.2-28.7,35.2-30.4c-4.6,8.5-9.3,14.7-13.7,19.3c12.2,1,21-9.8,25.9-15.8c0.2-0.8,1-1.7,2.4-2.9
			c-0.3,0.4-1.8,2.1-1.2,3.2C150.8,129,158.8,122.3,164.1,115.4z"/>
		<path fill="#E8DBDF" d="M162.9,105c-0.4-3.2-0.8-6.6-0.6-9.4c-0.8,4.1-0.4,8,0.5,11.8C162.8,106.6,162.9,105.8,162.9,105z"/>
		<path fill="#E8DBDF" d="M162.3,95.5c-0.2,2.8,0.2,6.2,0.6,9.4C162.9,102.4,162.7,99.3,162.3,95.5z"/>
		<path fill="#E8DBDF" d="M162.9,105c0,0.8,0,1.6-0.1,2.4c0.3,1.1,0.6,2.2,1,3.3C163.5,109,163.2,107,162.9,105z"/>
		<path fill="#E8DBDF" d="M163.8,110.7c0.1,0.4,0.3,0.8,0.4,1.2c0.3-0.4-0.4-0.8,1.3,4.2c0.6,1.6,1.8,2.7,3.1,2.8
			c0.5-1.5,0.8-3.1,3.3-4.7c-2.8,3.3-2.7,7.1-2.1,8.8c1,3.1,4.1,5.2,5.9,5.4c9.7-9.8,16-14.6,21.7-18.9c-6.1-8.3-20.9,0.6-20.9,0.6
			c2.3-3.9,0.9-9.8-6.4-6.4c1.7-6.1-10.7-10.1,3-26c-6.5,6.6-9.6,12.4-10.7,17.9c0.5,3.8,0.7,6.9,0.6,9.4
			C163.2,107,163.5,109,163.8,110.7z"/>
		<path fill="#E8DBDF" d="M234.5,167.5c0-17.2-16.1-3.3-7.7,7.6c1-2.3,4.8-8.2,5.4-6.7L234.5,167.5z"/>
		<path fill="#E8DBDF" d="M242.9,181.1c-0.1,0.2-0.2,0.3-0.3,0.5C242.7,181.4,242.8,181.3,242.9,181.1z"/>
		<path fill="#E8DBDF" d="M252.9,216.5c0.1,0.3,7-6.8,10.1-6.5c-16.3,9.3-18.7,26.1-14.6,34.8c0.2,0.3,1.6-10.9,14.4-20.9
			c-2.9,2.4-20.3,21.8-13,45.9c8.4-21.5,17-29.8,17.5-30.3c-14.2,22.6-29,52.8-19.9,69.5c2.6-23,18.3-43.1,18.8-43.8
			c-22.9,38.6-19,56.5-15.6,62.8c1.1,2.1,5.1-21.5,10.4-26.3c-3.1,9.5-19.1,49.8-7.5,72.1c0.4,0.8,0.3-3,0.1-3.7
			c-2.3-13.2-0.6-38.6,17.9-75.5c3.6-7.2,12.8-22.9,13.4-22.6c1.5,0.7-5.5,9-12.1,23.2c-10.2,22-24.3,50.6-17.1,82.5
			c0.5,2.2,2,10.8,4.6,12c-8.5-36.1,14.8-75.3,35.4-110c5.3-9,10.4-17.4,14.6-25.5c1.8-3.3,3.4-6.5,4.9-9.4l-1.3-0.6
			c-12.2,23.4-23.9,21.1-27.3,19.4c3.8-10.5-13.5,1.2-18.2,10.4c6.6-13.6,11.6-40.4,5.8-39c6.2-8.9-0.3-16.4-5.8-15.5
			c-1.5-4.3,9.4-14.7,0.4-11.6c7-4.3,19.3-21.4,11.8-22.6c-1.9-0.3-6.6,2.8-8.2,3.8c-1.6-8.7-12.6-9.2-19.9-1.8c4.1-5.3-6.4-12-10-6
			c-0.1,0.2-0.2,0.3-0.3,0.5c0.1-0.2,0.2-0.3,0.3-0.5c2.6-5.4-3.4-7.5-5.6-6.8c3.6-2.3,2.1-9.5-2.8-6.8l-2.3,0.9
			c-1.4,0.5-10.3,15.6-0.6,18.3c0.2-2.3,1.8-8.8,3.9-9c-1.5,2.6-4.5,10-0.9,13.5c2.2,2.2,5.1,2.2,6,1.5c-0.4-1.5-0.4-4.7,0.1-5.1
			c0.5,2.1,0.5,8.3,4.7,9.5c2.4,0.7,4.7,0.6,6-0.8c-0.9-2.4-0.8-4.7,0.5-5.1c-0.9,2.2,0.2,4.2,1,5.5c0.8,1.3,2.4,2.2,4.3,2.3
			c3.4-3.4,12.5-8.6,12.7-8.1C269.1,193.1,249.6,199.1,252.9,216.5z"/>
		<path fill="#E8DBDF" d="M314.2,243.9l1.3,0.6c17.2-33.4,19.1-42,19.3-47.2c-0.2-1.7,0.9-4,0.9-4c0,2.3,0.3,5.7,1,6.6
			c6.5-30.1-4.2-13.4-8.8,5C323.5,222.5,318.8,235,314.2,243.9z"/>
	</g>
	<g>
	</g>
</g>
<g id="XMLID_1_" opacity="0.5">
	<g>
		<path fill="#FFFFFF" d="M100.4,493.2c-0.4,0-0.8-0.1-1.2-0.2c-0.6-0.2-1.2-0.5-1.7-0.9c0.2,7.6-1,25.4-2.2,42.6
			c-0.7,11-1.4,21.3-1.7,28c-0.1,1.5-0.2,3.5-0.3,5.9c-1.1,19.6-3.6,65.4,11.1,78.3c3.2,2.8,7.1,3.9,11.6,3.2
			c-15.1-46.7-13.4-134.9-11.3-159C103.2,492.6,101.7,493.2,100.4,493.2z"/>
		<path fill="#FFFFFF" d="M189.2,427.6c-0.1,0-4.5,0.1-6.5-2.6c3.3,8.8,6.8,18.3,9,25.5c0,0,0,0,0,0c0.4,1,19.8,61.6,42,112.5
			c8.1,18.6,16.6,36.9,24.4,53.2c5.8-7.4,3.4-19.2,0.4-27.9c-1.7-4.9-9.1-19.2-16.8-34.3c-6.7-13.2-13.7-26.8-17.9-35.8
			C215.9,501.3,190.4,439.4,189.2,427.6z"/>
		<path fill="#FFFFFF" d="M100.4,493.2c1.4,0,2.9-0.7,4.4-2c-2.1,24-3.9,112.3,11.3,159c-4.5,0.6-8.4-0.4-11.6-3.2
			c-14.7-13-12.2-58.7-11.1-78.3c0.1-2.3,0.2-4.3,0.3-5.9c0.3-6.7,1-17.1,1.7-28c1.1-17.2,2.3-35,2.2-42.6c0.5,0.4,1.1,0.8,1.7,0.9
			C99.6,493.2,100,493.2,100.4,493.2z M241.6,554c7.8,15.1,15.1,29.4,16.8,34.3c3.1,8.7,5.5,20.5-0.4,27.9
			c-7.8-16.3-16.3-34.7-24.4-53.2c-22.2-50.8-41.5-111.5-42-112.5c0,0,0,0,0,0c-2.1-7.2-5.7-16.7-9-25.5c2,2.7,6.4,2.6,6.5,2.6
			c1.2,11.8,26.7,73.7,34.4,90.5C227.8,527.2,234.8,540.8,241.6,554z M336.1,201c0.2,0.2,0.5,0.3,0.8,0.3c0.1,0,0.2,0,0.4,0l0.3-0.1
			l0.1-0.3c17.3-79.3,1.5-96.7-6.1-100.4c-7-3.5-18.7-2.4-22.7,7.7c-3.8,9.5-12.8,18.5-16,18c17.6-26.1,14.1-46.9,12.3-50.3
			c-0.4-0.7-0.4-1.6-0.3-1.9c10.5-20.6,2-31.8,0.5-33.6c0.5-2.2,3.6-14.7,3.9-16.2c0.1-0.6-0.3-0.8-0.4-0.8
			c-0.7-0.3-0.7-0.3-6.5,9.7c-0.7,1.1-1.3,2.3-1.9,3.2c0.4-1.8,1-4.1,1.5-6.3c1.9-7.6,3.1-12.7,2.9-13.8c0-0.3-0.2-0.6-0.5-0.7
			c-1-0.4-3.2,1.1-9.3,6c-2.1,1.7-4.1,3.4-5.2,4c-0.4,0.1-0.7,0.2-1,0.2c-10.8,0.8-36.7,5.8-43,35.8c-3.8,18.1-12.5,19.4-16.1,19.2
			c-5.3-0.4-9.5-4.5-9.7-7.9c-0.2-2.8,2.1-4.8,6.3-5.7c9.7-2,16.3-9.4,16-18c-0.2-6.9-5.6-15.6-20-17.5c-21.1-2.8-37,4.2-51.1,10.4
			c-10.9,4.8-21.3,9.4-32.7,9.1c0,0,2.2,4,7.1,4.2c-68.7,36.6-62.9,89.4-130,127.3c-2.4,2.4,3.9,3.8,9.4,1.3
			c1,2.7,11.6-0.3,16.4-2.8c1.8,2.5,12,0,26.1-9.1c7.3,3.3,20.4-7.2,30.3-16.5c2.4-0.1,11.3-1.2,21.8-11.4c0.9,0.1,1.8,0.2,2.6,0.2
			c11.6,0,19.9-9.7,24.8-15.7c1.9,2.4,11.1-3.1,17.3-11.5c0.8,1.9,2.2,3.1,3.8,3.2c-0.2,1.3,0,2.4,0.3,3.3c1,3,3.7,5.3,6,6
			c-17.3,17.7-34.1,40.3-42.6,63.9c-3.1,6.2-7.2,11.1-11.2,16c-7.9,9.5-15.3,18.4-11,33.8c-2.6,8.1-3.2,15.8,0.9,21.3
			c-0.7,5.6-0.1,10.7,2.2,14.9c-0.9,8.4-4.1,19.7-7.5,31.6c-6.7,23.1-13.6,47.1-3.3,53.1c-4.3,17.4-8.7,33.3-11.8,43.4
			c-5.8,18.7-6.7,29.7-2.8,32.8c0.7,0.6,1.6,0.9,2.7,0.9c1.3,0,2.8-0.4,4.5-1.3c-4.6,18.8-5,43.3,1.7,51.2c0.3,6.6-1,26.4-2.1,43.8
			c-0.7,11-1.4,21.3-1.7,28.1c-0.1,1.5-0.2,3.5-0.3,5.8c-1.1,19.7-3.7,65.9,11.5,79.2c2.8,2.5,6.2,3.7,9.9,3.7
			c0.9,0,1.9-0.1,2.8-0.2c0.5,1.5,1.1,3,1.6,4.5c4.5,11.8,9.3,26.5,13.8,40.7c8.8,27.5,14,43.2,17.6,43.2c0,0,0.1,0,0.1,0
			c0.8-0.1,1.4-0.5,2-1.3c6.5-9.1-3-72.4-10.3-103.9c-0.8-3.6-1.8-7.6-2.9-12c-9.3-37.8-24.7-100.8-15.2-169.8
			c4-14.6,7-32.8,8.2-54.5c9.2-13.1,1.3-69.4,1.3-69.4c3.5-4.3,5.2-11.8,2.9-18.8c0.3-2.7,0.7-5.8,1-9.2c0.2,0.2,0.4,0.3,0.7,0.5
			c0.5,0.2,1.1,0.3,1.7,0.3c0.7,0,1.4-0.2,1.9-0.5c-0.1,10.5,0.1,18.1,0.8,19l0.2,0.3l0.4-0.1c0.6-0.2,1.3-0.5,2.1-1
			c-4.5,21-3.6,70.6,4.8,78.6c3.8,34.4,14.2,65.3,26.2,81.8c0,0,0.7,0.9,1.8,2.2c7,49.9,63.4,196.4,114.9,229.1
			c1.7,1.3,2.1-0.5,2.1-0.9c0-1.5,0-2.9,0-4.3c-0.1-13.2-21.2-58.8-35.3-88.4c6.6-7.8,4.1-20.3,0.9-29.5c-1.8-5-9.1-19.3-16.9-34.4
			c-6.7-13.1-13.7-26.8-17.9-35.8c-8.2-17.9-35.6-82.3-34.3-90.6c0.9-0.6,1.5-1.5,1.5-2.6c0-2.8-2.6-11.8-6.3-24.2
			c-3-10.1-6.4-21.7-9.3-33.1c8.3-12.7,4.4-30,0.6-46.8c-3.3-14.5-6.7-29.6-2.4-41.8l0,0c0.6-1.5,1.5-4.3,1.5-4.3
			c9.6-5.8,10.8-17.4,8.8-29.8c5.7-6.3,4.9-15.7,1.8-24.2c0.5-1.1,4.8-3,9.4-5c10.4-4.6,27.6-12.1,36-25.1c0,0,0,0,0,0h0
			c0.7,2,4.7,5.7,9.2,4.2c0.8,1.9,2.3,3.3,3.9,4c1,0.5,2,0.7,3,0.7c1.5,0,2.9-0.5,3.9-1.5c0.9,1.3,2.4,2.3,4.2,2.6
			c-3.5,4.1-5.6,9.8-3.9,18.3c-2.2,2.7-4,5.8-5.1,9.2c-2.3,6.7-2.2,13,0.9,18.9c-4.7,14.6,0.6,25,0.7,25.2c0,0-11.4,27-1.8,38.4
			c0,0-2.7,10.8,4,21.2c0.5,0.8-8.1,28.2,3.5,45.5c0,0,1.1,11.8,7,15.2c0.3,0.2,0.9-0.3,0.8-0.7c-9.9-36.2,13.8-76.1,34.7-111.3
			c5.3-9,10.4-17.5,14.6-25.5c17.4-32.8,22.7-46.3,24-54.1C335.7,200.6,335.9,200.8,336.1,201z"/>
	</g>
	<g>
	</g>
</g>
<path fill="#767676" d="M856.2,54.9c5-0.2,7.2-4.2,7.2-4.2c-11.5,0.4-21.8-4.2-32.7-9.1c-14.1-6.2-30.1-13.3-51.1-10.4
	c-14.4,1.9-19.8,10.6-20,17.5c-0.3,8.5,6.3,15.9,16,18c4.3,0.9,6.5,2.9,6.3,5.7c-0.2,3.5-4.5,7.6-9.7,8c-3.6,0.2-12.3-1.1-16.1-19.2
	c-6.3-30-32.2-35-43-35.8c-0.3,0-0.6-0.1-1-0.2c-1-0.6-3-2.2-5.2-4c-6-4.9-8.2-6.4-9.3-6c-0.3,0.1-0.5,0.4-0.5,0.7
	c-0.1,1.2,1.1,6.2,2.9,13.8c0.5,2.2,1.1,4.6,1.5,6.3c-0.5-0.9-1.2-2-1.9-3.2c-5.8-9.9-5.8-9.9-6.5-9.7c0,0-0.5,0.2-0.4,0.8
	c0.4,1.5,3.4,14,3.9,16.2c-1.5,1.8-10,12.9,0.5,33.6c0.1,0.3,0.1,1.2-0.3,1.9c-1.9,3.4-5.3,24.2,12.3,50.3c-3.1,0.5-12.1-8.4-16-18
	c-4-10-15.7-11.1-22.7-7.7c-7.6,3.8-23.4,21.2-6.1,100.5l0.1,0.3l0.3,0.1c0.1,0,0.2,0,0.4,0c0.3,0,0.5-0.1,0.8-0.3
	c0.2-0.2,0.4-0.4,0.5-0.7c1.3,7.8,6.6,21.3,24,54.1c4.3,8,9.3,16.5,14.6,25.5c20.9,35.2,44.7,75.1,34.7,111.4
	c-0.1,0.3,0.5,0.8,0.8,0.7c5.9-3.3,7-15.2,7-15.2c11.6-17.3,3-44.7,3.5-45.5c6.7-10.4,4-21.2,4-21.2c9.6-11.5-1.8-38.5-1.8-38.5
	c0.1-0.1,5.4-10.6,0.7-25.2c3.1-5.9,3.2-12.1,0.9-18.9c-1.1-3.3-2.9-6.4-5.1-9.2c1.7-8.5-0.4-14.3-3.9-18.3c1.8-0.4,3.3-1.3,4.2-2.6
	c1,0.9,2.4,1.4,3.9,1.4c1,0,2-0.2,3-0.7c1.6-0.7,3-2,3.9-4c4.5,1.6,8.5-2.2,9.2-4.2l0,0c0,0,0,0,0,0c8.4,13,25.5,20.5,36,25.1
	c4.6,2,8.9,3.9,9.4,5c-3.2,8.5-4,18,1.8,24.2l0.2-1.4c-2.4,13-1.4,25.2,8.5,31.2c0,0,0.9,2.8,1.5,4.3l0,0
	c4.3,12.3,0.9,27.3-2.4,41.9c-3.8,16.8-7.7,34.1,0.6,46.8c-2.9,11.3-6.3,23-9.3,33.1c-3.6,12.4-6.3,21.4-6.3,24.2
	c0,1.1,0.5,2,1.5,2.6c1.3,8.3-26.1,72.7-34.3,90.6c-4.2,9.1-11.1,22.7-17.9,35.8c-7.8,15.2-15.1,29.5-16.9,34.4
	c-3.3,9.1-5.7,21.7,0.9,29.5c-14.2,29.6-35.2,75.1-35.3,88.4c0,1.4,0,2.9,0,4.3c0,0.4,0.4,2.2,2.1,0.9
	C761.6,678.3,818,531.8,825,481.9c1.1-1.3,1.7-2.2,1.8-2.2c12-16.5,22.4-47.4,26.2-81.8c8.4-7.9,9.3-57.5,4.8-78.6
	c0.8,0.5,1.5,0.9,2.1,1l0.4,0.1l0.2-0.3c0.7-0.9,0.9-8.5,0.8-19c0.6,0.3,1.2,0.4,1.9,0.4c0.6,0,1.2-0.1,1.7-0.3
	c0.3-0.1,0.5-0.3,0.7-0.5c0.4,3.4,0.7,6.5,1,9.2c-2.3,7-0.6,14.5,2.9,18.8c0,0-8,56.3,1.2,69.4c1.2,21.6,4.3,39.8,8.2,54.5
	c9.5,69-6,132-15.2,169.8c-1.1,4.4-2.1,8.4-2.9,12c-7.3,31.4-16.8,94.7-10.3,103.9c0.6,0.8,1.2,1.2,2,1.3c0,0,0.1,0,0.1,0
	c3.6,0,8.8-15.7,17.6-43.2c4.5-14.2,9.3-28.9,13.8-40.7c0.6-1.4,1.1-2.9,1.6-4.5c1,0.1,1.9,0.2,2.8,0.2c3.8,0,7.1-1.3,9.9-3.7
	c15.1-13.3,12.6-59.5,11.5-79.2c-0.1-2.3-0.2-4.3-0.3-5.9c-0.3-6.7-1-17.1-1.7-28c-1.2-17.4-2.5-37.2-2.1-43.8
	c6.7-7.8,6.3-32.4,1.7-51.2c1.7,0.9,3.2,1.3,4.5,1.3c1,0,1.9-0.3,2.7-0.9c4-3.1,3-14.1-2.8-32.8c-3.1-10.1-7.5-26-11.8-43.4
	c10.2-6,3.3-29.9-3.3-53.1c-3.4-11.9-6.7-23.2-7.5-31.6c2.4-4.2,2.9-9.3,2.2-14.9c4.1-5.5,3.5-13.2,0.9-21.3
	c4.3-15.4-3.1-24.4-11-33.8c-4-4.8-8.2-9.8-11.2-16c-8.5-23.6-25.3-46.2-42.6-63.9c2.3-0.7,5-3,6-6c0.3-0.9,0.5-2.1,0.3-3.3
	c1.6-0.2,3.1-1.4,3.8-3.2c6.2,8.4,15.4,13.8,17.3,11.5c4.9,6,13.2,15.7,24.8,15.7c0.9,0,1.7-0.1,2.6-0.2
	c10.4,10.2,19.4,11.3,21.8,11.4c9.9,9.3,23,19.8,30.3,16.5c14.1,9.1,24.3,11.7,26.1,9.1c4.8,2.5,15.4,5.5,16.4,2.8
	c5.5,2.5,11.8,1.1,9.4-1.3C919.1,144.3,924.9,91.5,856.2,54.9z M694.6,26.8c1.2,2,2.8,4.7,4,6.8c1.7,2.9,2.4,5.5,4.2,5.9
	c0.7,0.2,0.7-0.3-1.7-10c-1.2-4.9-2.8-11.5-2.9-13.2c1.3,0.4,5.4,3.7,7.9,5.8c1,0.8,1.9,1.5,2.7,2.2c-1.5-0.4-2.1-0.5-2.4-0.1
	c-0.3,0.4-0.2,1.6,0.2,3.6c1.8,8.8,2.2,14.8,1.1,16c-0.6,0.7-1.2,1-1.8,1c-0.8,0-1.8-0.7-2.7-1.9c-1.2-1.5-4.3-2.7-5.3-3
	C697.4,38.3,695.6,31,694.6,26.8z M826.2,320.7c2.9-12.8,5.9-24.8,3.7-36.4c2.1,3.2,5,6.2,9.1,9c-7.3,8.9-10.7,26.5-8.3,33.6
	c0.3,0.9,0.8,1.5,1.3,1.9c0.2,9.1-2.4,22.6-6,36.7C818.8,353.5,822.4,337.5,826.2,320.7z M841.3,321.9c0,0-1.3,3.3-2.7,5
	c-2.4,2.9-6.2,1.8-6.9-0.2c-2.2-6.4,0.3-25.3,8.2-33.8c0,0,0.1,0,0.1,0.1c1.5,9.9,13.2,23,13.2,23c2.9,12.8,1.2,17.3-0.7,18.9
	c-1.8,1.5-4.4,0.8-6.3,0c-5-2.2-5.1-7-4.9-11.5C841.4,322.7,841.4,322.2,841.3,321.9z M811.3,424.4c0-2.7,2.7-12,6.2-23.9
	c6.7-22.9,15.9-54.1,15.7-71.1c2,0.7,3.5,0.3,4.6-0.3c3,24.4-1,49.1-13.5,82.2l-1.5,4.1c-1.1,3-4.3,11.9-9.4,11.1
	C812.7,426.4,811.3,425.9,811.3,424.4z M743.6,588.3c1.7-4.9,9.1-19.2,16.8-34.3c6.8-13.2,13.7-26.8,17.9-35.8
	c7.7-16.9,33.3-78.7,34.4-90.5c1,2.2,4.8,2.2,6.5-1.4c-3.3,8.8-6.8,17.2-9,24.4c0.3-1.2-19.4,60.7-42,112.4
	c-8.1,18.6-16.6,34.6-24.4,50.9C738.1,606.4,740.5,597,743.6,588.3z M783.3,602c-14.7,32.4-43.9,89.3-74.1,108.2
	c-2.2-18.7,37.1-93.8,60.2-146.8c14.1-32.3,26.9-72,37.9-100.7c-1.6,8.8-1.3,15.8,1.8,20.9c-1,3.8-0.9,6.5-1,7.4
	c-0.6,3.7,3,2.9,3,2.9c3.8,0,9.1-5.3,12.5-9.2C819.9,508,805.3,553.6,783.3,602z M825.8,478.9c-0.3,0.4-1.9,2.2-1.9,2.4
	c-3.3,3.9-9.2,10.2-12.8,10.2c0,0-0.1,0-0.1,0c-0.8,0-1.4-0.4-1.9-1.2c-1.1-1.8,12.2-41.9,12.2-41.9c-1.8,4.6-8.6,22.4-11.7,33.6
	c-6.2-11.9,2.4-34.8,14.2-66.2l1.5-4.1c12.6-33.6,16.7-58.6,13.5-83.4c0.5-0.5,0.9-1.1,1.3-1.7c0.2,3.7,1.3,7.3,5.6,9.2
	c1.5,0.7,2.9,1,4.1,1c0.3,0,0.6,0,0.9-0.1C859.5,391.5,844.7,453.1,825.8,478.9z M853.2,396c2-19.4,1.9-38.8-1.3-58.4
	c0.5-0.2,1-0.4,1.4-0.8c3-2.5,3.5-8.8,1.4-18.8C861.2,322.7,861.4,383.6,853.2,396z M865.2,299c0,0.6-0.3,1-0.8,1.2
	c-0.9,0.4-2.4,0.2-3-0.3l-0.2,0.2c-0.2-15.6,0.2-21.2-0.4-36.7c1.6,14.7,2.8,19.9,4.5,35.7L865.2,299z M867.3,316.6
	c0.1,2.9,1.2,2.5,1.2,2.5c5-4.1,14.7-18.3,14.3-32.7c0-0.4,0.9-1.4,1.3-1.7c9,17.8,1.7,34.4-0.6,35.9c-2.2,1.4-3.8-3.4-4-3.8
	c0,0,1.9,15.3-6.4,13C869,328.8,865.2,320.7,867.3,316.6z M870.6,395.6c-6.3-13.8-1.8-55.3-0.4-64.8c0.5,0.4,1.9,1.2,2.2,1.3
	C870.1,356.2,869.6,376.6,870.6,395.6z M882.9,655.4c-4.6,11.9-9.3,26.6-13.8,40.8c-6.4,19.9-13.6,42.4-16.4,42.4c0,0,0,0-0.1,0
	c-0.4,0-0.8-0.3-1.2-0.8c-6.2-8.7,3.4-72.5,10.5-102.9c0.8-3.6,1.8-7.6,2.9-12c9-36.6,23.7-94.3,16.2-160.7
	c4,12.6,8.7,22.1,13.4,28.4c0.5,0.7,1,1.3,1.5,1.8C898.2,514.8,900.5,609.9,882.9,655.4z M906.7,534.7c0.7,11,1.4,21.3,1.7,28
	c0.1,1.5,0.2,3.5,0.3,5.9c1.1,19.6,3.6,65.4-11.1,78.3c-3.2,2.8-5.9,3.9-10.5,3.2c15.2-46.7,13.4-134.9,11.3-159
	c1.5,1.4,1.8,2,3.2,2c0.4,0,0.8-0.1,1.2-0.2c0.6-0.2,1.2-0.5,1.7-0.9C904.3,499.8,905.5,517.5,906.7,534.7z M902.9,491.8
	c4-8-0.5-23.8-0.5-23.8c1.2,5.8,2.6,18.2-1,24.1c-2.9-0.7-5.6-4-6.1-4.7c-5.5-7.3-10.9-18.9-15.2-34.8c-0.1-0.8-0.6-2.3-0.6-2.3
	c-7.2-27.7-10.9-67.6-6-119.1c0.4,0.1,0.7,0.1,1.1,0.1c1.5,0,3-0.4,3.9-1.6c1.1-1.4,2.2-3.8,1.9-7.9c0.4,0.6,1.2,0.9,1.6,1.2
	c-1.7,20.2,9.2,60,18,93C902.2,424.1,918.8,470.5,902.9,491.8z M910.7,407.6c5.5,17.7,6.6,28.9,3.2,31.6c-1.4,1.1-3.7,0.7-6.8-1
	c-1.7-6.7-3.7-14.2-5.9-22.4c-8.7-32.8-19.6-73.6-18-93.6c0.4-0.1,0.8-0.2,1.1-0.6c1-0.9,2.8-3.5,3.9-8.1
	C893.3,344.8,904.5,387.7,910.7,407.6z M895.6,311.1c6.5,22.5,13.1,45.7,4.1,51.6c-4.3-17.8-8.5-36.9-10.9-52.7
	c0.8-6.2,1.1-13.9-3.7-24.8c1.2-1,2.2-2.1,3.1-3.3C889.2,290.2,892.3,299.8,895.6,311.1z M910.8,119.7
	c10.3,25.7,45.1,57.8,65.1,63.1c-6.5,2.9-30.2-8-50.3-27.4c-0.1-0.1-0.3-0.3-0.4-0.4c-8.4-8.2-16.2-17.9-21.7-28.6
	c1.1,2.3,14,32.4,55.9,53.8c-6.4,3.3-31.7-11.5-49.2-30c-4.6-4.9-13.9-17.7-12.3-14.9c3.2,5.7,7.7,11.4,12.8,16.8
	c7.4,7.9,16,14.7,22.8,18.8c-4.4,1.7-13.3-2.4-28.7-16.8l0,0c0,0,0,0,0,0c-7.4-6.9-14.7-16.6-21-29.8c0,0,5.4,16,19,29.6
	c-18.1-2.1-35.2-30.5-35.2-30.5c4.6,8.6,9.3,14.8,13.8,19.4c-12.2,1-21-9.8-25.9-15.8c-0.2-0.8-1-1.7-2.4-2.9c0,0,2,2,1.3,3.3
	c-3.1,1.8-10.8-4.4-16.1-11.9l-0.1,0c0.1-0.7,0.2-1.5,0.2-2.3c12.1-27.3-19.4-44.2-19.4-44.2c0.2,0.2,0.6,0.4,1,0.8
	c22,16.9,22.3,31.6,18.1,41.5c-0.6-1.9-1.8-4.8-4-5.7c0,0,4.5,5.6,2.8,10.7c-0.6,1.7-1.8,2.7-3.1,2.8c-0.5-1.5-0.8-3.1-3.3-4.7
	c2.8,3.3,2.7,7.1,2.1,8.8c-1,3.1-4.1,5.2-5.9,5.4c-25-24.4-37.6-28.6-37.6-28.6c23.4,13,65,51.8,80.1,93.9
	c3.2,6.3,7.3,11.4,11.4,16.3c7.7,9.2,14.3,17.3,11.2,31c-2.2-5.9-5.4-12-8.5-17.4c-2.1-3.7-12-15.5-11.2-19
	c-0.7,0.9,0.5,4.1,4.1,9.7c8.2,12.6,22.6,35.8,15.2,48.3c-2-12.5-9.4-26.8-15.1-37.9c-3.3-6.4-7.6-14.1-7.6-14.1
	c1.2,3.3,3.8,7.9,7.2,14.4c5.9,11.4,13,26.4,14.6,38.9c-0.1,0.1,0.1,0.5,0.1,0.5c1,8.3-0.8,15.5-7.5,20c-1.6-15.6-15.5-63.4-21.1-78
	c0,0,20.7,66.2,20.1,80.1c-0.6,13.3-8,26.4-13.1,31.1c-0.2-1.8-10.2-87.6-10.2-87.6s2.4,83.6,1.2,89c-4.7-2.1-19.7-17-19.3-33.8
	c0.1-6.8,1.7-16.8,3.3-27.3c1.7-11.1,3.3-23.3,4.2-34c0.7-7.7-1.2-12.7-1.2-12.7c1.7,7.5,1.4,9.2-4.2,46.6
	c-1.6,10.6-3.2,20.5-3.4,27.4c0,2,0.1,4,0.5,6c-5.8-4-9.2-8.3-11.1-13c0,0,0-0.1,0-0.1l0,0c-3.9-10-2.3-21.7,3-35.8
	c9-23.9,7.5-28.1,7.6-32c-0.4,8.2-2.8,16.7-8.6,32.2c-4.3,11.4-5.8,21.1-4.5,30.2c-16.6-11.1-4.8-42.2,2.4-60.9
	c0.9-2.4,5.3-10.6,3.4-15.3c2.3,6.7-11.2,26.3-14.2,46.3c-12.5-15.8,12.5-40,8.7-47.7c1.3,4.4-8.6,19.7-10.2,23.7
	c-1.3-1.3-4.3-2.6-9.4-4.8c-10.6-4.6-26.4-12-34.4-25.2c5.6-4,4.5-8.9,3.5-12.2c5.7-6.6-0.1-16.9-4.2-17.3
	c2.7,1.5,7.8,10.5,3.7,15.8c-1-2.3-4.8-8.2-5.4-6.7c1.4,0.5,10.3,15.5,0.6,18.3c-0.2-2.3-1.8-8.8-3.9-9c1.5,2.6,4.4,10,0.9,13.5
	c-2.2,2.2-5.1,2.2-6,1.5c0.4-1.5,0.4-4.7-0.1-5.2c-0.5,2.1-0.5,8.3-4.7,9.5c-2.4,0.7-4.7,0.6-6-0.8c0.9-2.4,0.8-4.7-0.5-5.1
	c0.9,2.2-0.2,4.2-1,5.5c-0.8,1.3-2.4,2.2-4.3,2.3c-3.4-3.4-12.5-8.6-12.7-8.1c0.7,2.2,20.2,8.1,16.8,25.5c-0.1,0.3-6.9-6.8-10.1-6.5
	c16.3,9.3,18.7,26.1,14.6,34.8c-0.1,0.3-1.6-10.9-14.4-21c2.9,2.4,20.3,21.8,13,45.9c-8.6-22.2-17.5-30.4-17.5-30.4
	c14.2,22.6,29.1,52.8,19.9,69.5c-2.6-23.4-18.8-43.8-18.8-43.8c23,38.6,19,56.5,15.6,62.8c-1.1,2.1-5.1-21.5-10.4-26.3
	c3.1,9.5,19,49.8,7.4,72.1c-0.4,0.8-0.3-3-0.1-3.7c2.3-13.2,0.6-38.6-17.9-75.5c-3.6-7.2-12.8-22.9-13.4-22.6
	c-1.5,0.7,5.5,9,12.1,23.2c10.2,22,24.3,50.6,17.1,82.5c-0.5,2.2-2,10.8-4.6,12c8.5-36.1-14.8-75.3-35.4-110
	c-5.3-9-10.4-17.4-14.6-25.5c-21.8-41.3-24-50.9-24.2-56.6c0.2-1.7-0.9-4-0.9-4c0,2.3-0.3,5.7-1,6.6c-6.5-30.1-8.9-54.2-7-71.7
	c2-18,7.9-24.5,12.6-26.9c6.5-3.2,17.1-1.9,21.3,7.4c6.2,13.7,24.9,33,24.7,4.7c0,0-1,10.6-4.5,11.5c-3.3,0.8-8.6-9.9-9.3-11.6
	c-10.7-23.9-6.3-35.9-5.2-37.8c1.4,1.5,2.8,2.5,2.8,2.5c-1.2-1.9-2.2-3.7-3-5.4c-9.6-19.5-1.9-29.9-0.4-31.6
	c1.3,0.4,3.9,1.5,4.7,2.6c0.8,1.1,2.1,2.4,3.6,2.4c1,0,1.9-0.4,2.8-1.4c1.4-1.6,1.1-7.3-0.9-17c-0.2-0.9-0.3-1.9-0.4-2.5
	c0.5,0.1,1.2,0.3,1.8,0.5c0.8,0.2,1.6,0.5,2.3,0.6c0,0,0,0,0.1,0l0,0c0.5,0.1,0.9,0.2,1.3,0.2c10.6,0.8,35.8,5.7,41.9,34.9
	c3.7,17.8,12.3,20.1,16.5,20.1c0.3,0,0.5,0,0.8,0c5.5-0.4,10.5-4.6,10.8-9c0.1-1.6-0.4-5.5-7.2-6.9c-9.2-1.9-15.4-8.8-15.1-16.8
	c0.2-6.7,5.4-14.6,19-16.4c20.8-2.8,35.9,3.9,50.5,10.4c10.2,4.5,20,8.8,30.6,9.2c0.3,0.6-3.1,2.4-6.8,2c-1.8-0.5-6.5-1.2-6.5-1.2
	c1.7,0.5,5.8,2.3,6.2,2.3c71.6,37.6,62.6,85.8,130.9,128C973.3,187.1,932.5,160.7,910.8,119.7z"/>
<path fill="#767676" d="M813.9,427.9"/>
<path fill="#767676" d="M813.5,427.7C813.5,427.7,813.5,427.8,813.5,427.7C813.5,427.8,813.5,427.7,813.5,427.7z"/>
<path fill="#767676" d="M814.2,427.8"/>
<path fill="#767676" d="M813.5,427.7"/>
<g>
	<circle fill="#FFFFFF" cx="715.4" cy="48.4" r="5"/>
	<path fill="#93868B" stroke="#FFFFFF" stroke-miterlimit="10" d="M715.4,54c-3.1,0-5.6-2.5-5.6-5.6c0-3.1,2.5-5.6,5.6-5.6
		s3.7,2.2,2.1,5.6C716.1,51.2,718.4,54,715.4,54z"/>
</g>
<path fill="#767676" d="M15.8,182.2c-2.4,2.4,3.9,3.8,9.4,1.3c1,2.7,11.6-0.3,16.4-2.8c1.8,2.5,12,0,26.1-9.1
	c7.3,3.3,20.3-7.2,30.3-16.5c2.4-0.1,11.3-1.2,21.8-11.4c0.9,0.1,1.8,0.2,2.6,0.2c11.6,0,19.9-9.7,24.8-15.7
	c1.9,2.4,11.1-3.1,17.3-11.5c0.8,1.9,2.2,3.1,3.8,3.2c-0.2,1.3,0,2.4,0.3,3.3c1,3,3.7,5.3,6,6c-17.3,17.6-34.1,40.3-42.6,63.9
	c-3.1,6.2-7.2,11.1-11.2,16c-7.9,9.5-15.3,18.4-11,33.8c-2.6,8.1-3.2,15.8,0.9,21.3c-0.7,5.6-0.1,10.7,2.2,14.9
	c-0.8,8.5-4.1,19.7-7.5,31.6c-6.7,23.1-13.6,47.1-3.3,53.1c-4.3,17.4-8.7,33.3-11.8,43.4c-5.8,18.7-6.7,29.7-2.8,32.8
	c0.7,0.6,1.6,0.9,2.7,0.9c1.3,0,2.8-0.4,4.5-1.3c-4.6,18.8-5,43.3,1.7,51.2c0.4,6.6-1,26.4-2.1,43.8c-0.7,11-1.4,21.3-1.7,28
	c-0.1,1.5-0.2,3.5-0.3,5.9c-1.1,19.7-3.7,65.9,11.5,79.2c2.8,2.5,6.2,3.7,9.9,3.7c0.9,0,1.9-0.1,2.8-0.2c0.5,1.5,1.1,3,1.6,4.5
	c4.6,11.8,9.3,26.5,13.8,40.7c8.8,27.5,14,43.2,17.6,43.2c0,0,0.1,0,0.1,0c0.8-0.1,1.4-0.5,2-1.3c6.5-9.1-3-72.4-10.3-103.9
	c-0.8-3.6-1.8-7.6-2.9-12c-9.3-37.8-24.7-100.8-15.2-169.8c4-14.7,7-32.8,8.2-54.5c9.2-13.1,1.2-69.4,1.2-69.4
	c3.5-4.3,5.2-11.8,2.9-18.8c0.3-2.7,0.7-5.8,1-9.2c0.2,0.2,0.4,0.3,0.7,0.5c0.5,0.2,1.1,0.3,1.7,0.3c0.7,0,1.4-0.2,1.9-0.4
	c-0.1,10.5,0.1,18.1,0.8,19l0.2,0.3l0.4-0.1c0.6-0.2,1.3-0.5,2.1-1c-4.5,21-3.6,70.6,4.8,78.6c3.8,34.4,14.2,65.3,26.2,81.8
	c0,0,0.7,0.9,1.8,2.2c7,49.9,63.4,196.4,114.9,229.1c1.7,1.3,2.1-0.5,2.1-0.9c0-1.5,0-2.9,0-4.3c-0.1-13.2-21.2-58.8-35.3-88.4
	c6.6-7.8,4.1-20.3,0.9-29.5c-1.8-5-9.1-19.3-16.9-34.4c-6.7-13.1-13.7-26.7-17.9-35.8c-8.2-17.9-35.6-82.3-34.3-90.6
	c0.9-0.6,1.5-1.5,1.5-2.6c0-2.8-2.6-11.8-6.3-24.2c-3-10.1-6.4-21.7-9.3-33.1c8.3-12.7,4.4-30,0.6-46.8c-3.3-14.5-6.7-29.6-2.4-41.9
	l0,0c0.6-1.5,1.5-4.3,1.5-4.3c9.9-6,10.9-18.2,8.5-31.2l0.2,1.4c5.7-6.3,5-15.7,1.8-24.2c0.5-1.1,4.8-3,9.4-5
	c10.4-4.6,27.6-12.1,36-25.1c0,0,0,0,0,0l0,0c0.7,2,4.7,5.7,9.2,4.2c0.8,1.9,2.3,3.3,3.9,4c1,0.4,2,0.7,3,0.7c1.5,0,2.9-0.5,3.9-1.4
	c0.9,1.3,2.4,2.3,4.2,2.6c-3.5,4.1-5.6,9.8-3.9,18.3c-2.2,2.7-4,5.9-5.1,9.2c-2.3,6.7-2.2,12.9,0.9,18.9c-4.7,14.6,0.6,25,0.7,25.2
	c0,0-11.4,27-1.8,38.5c0,0-2.7,10.8,4,21.2c0.5,0.8-8.1,28.2,3.5,45.5c0,0,1.2,11.9,7,15.2c0.3,0.2,0.9-0.3,0.8-0.7
	c-10-36.2,13.8-76.1,34.7-111.4c5.3-9,10.4-17.5,14.6-25.5c17.4-32.8,22.7-46.3,24-54.1c0.2,0.3,0.3,0.5,0.5,0.7
	c0.2,0.2,0.5,0.3,0.8,0.3c0.1,0,0.2,0,0.4,0l0.3-0.1l0.1-0.3c17.3-79.3,1.5-96.7-6.1-100.5c-7-3.5-18.7-2.4-22.7,7.7
	c-3.8,9.5-12.8,18.5-16,18c17.6-26.1,14.1-46.9,12.3-50.3c-0.4-0.7-0.4-1.6-0.3-1.9c10.5-20.7,2-31.8,0.5-33.6
	c0.5-2.2,3.6-14.7,3.9-16.2c0.1-0.6-0.3-0.8-0.4-0.8c-0.7-0.3-0.7-0.3-6.5,9.7c-0.7,1.1-1.3,2.2-1.9,3.2c0.4-1.8,1-4.1,1.5-6.3
	c1.9-7.6,3.1-12.7,2.9-13.8c0-0.3-0.2-0.6-0.5-0.7c-1.1-0.4-3.2,1.1-9.3,6c-2.1,1.7-4.1,3.4-5.2,4c-0.4,0.1-0.7,0.2-1,0.2
	c-10.8,0.8-36.7,5.8-43,35.8c-3.8,18.1-12.5,19.4-16.1,19.2c-5.3-0.4-9.5-4.5-9.7-8c-0.2-2.8,2.1-4.8,6.3-5.7c9.7-2,16.3-9.4,16-18
	c-0.2-6.9-5.6-15.6-20-17.5c-21.1-2.8-37,4.2-51.1,10.4c-10.9,4.8-21.3,9.4-32.7,9.1c0,0,2.2,4,7.2,4.2
	C77.1,91.5,82.9,144.3,15.8,182.2z M304.2,39.9c-1,0.3-4.2,1.5-5.3,3c-0.9,1.2-1.9,1.9-2.7,1.9c-0.6,0-1.2-0.3-1.8-1
	c-1.1-1.2-0.7-7.2,1.1-16c0.4-2,0.5-3.3,0.2-3.6c-0.3-0.4-0.9-0.3-2.4,0.1c0.8-0.7,1.8-1.4,2.7-2.2c2.5-2.1,6.6-5.4,7.9-5.8
	c-0.1,1.6-1.7,8.3-2.9,13.2c-2.4,9.7-2.4,10.1-1.7,10c1.8-0.4,2.5-3.1,4.2-5.9c1.2-2.1,2.8-4.8,4-6.8
	C306.4,31,304.6,38.3,304.2,39.9z M176,365.6c-3.5-14.1-6.2-27.6-6-36.7c0.6-0.4,1.1-1,1.3-1.9c2.4-7.2-1-24.8-8.3-33.6
	c4.1-2.9,7-5.8,9.1-9c-2.2,11.5,0.8,23.5,3.7,36.4C179.6,337.5,183.2,353.5,176,365.6z M160.7,323.3c0.2,4.5,0.1,9.3-4.9,11.5
	c-1.9,0.8-4.5,1.5-6.3,0c-1.9-1.6-3.6-6.2-0.7-18.9c0,0,11.7-13,13.2-23c0,0,0.1,0,0.1-0.1c7.9,8.5,10.3,27.4,8.2,33.8
	c-0.7,2.1-4.5,3.1-6.9,0.2c-1.4-1.7-2.7-5-2.7-5C160.6,322.2,160.6,322.7,160.7,323.3z M188.7,426.5c-5.1,0.8-8.2-8.1-9.4-11.1
	l-1.5-4.1c-12.4-33.1-16.5-57.8-13.5-82.2c1,0.6,2.6,1,4.6,0.3c-0.2,17,8.9,48.2,15.7,71.1c3.5,11.8,6.2,21.2,6.2,23.9
	C190.7,425.9,189.3,426.4,188.7,426.5z M258,613.9c-7.8-16.3-16.3-32.3-24.4-50.9c-22.6-51.7-42.2-113.7-42-112.4
	c-2.1-7.2-5.7-15.5-9-24.4c1.7,3.6,5.6,3.6,6.5,1.4c1.2,11.8,26.7,73.7,34.4,90.5c4.2,9.1,11.1,22.7,17.9,35.8
	c7.8,15.1,15.1,29.4,16.8,34.3C261.5,597,263.9,606.4,258,613.9z M178.4,484.7c3.4,3.9,8.7,9.2,12.5,9.2c0.1,0,3.6,0.7,3-2.9
	c-0.2-0.9,0-3.6-1-7.4c3.1-5,3.4-12,1.8-20.9c11,28.8,23.8,68.5,37.9,100.7c23.2,52.9,62.4,128.1,60.2,146.8
	c-30.3-18.9-59.4-75.8-74.1-108.2C196.7,553.6,182.1,508,178.4,484.7z M151.2,336.8c0.3,0,0.6,0.1,0.9,0.1c1.2,0,2.6-0.3,4.1-1
	c4.3-1.9,5.4-5.5,5.6-9.2c0.4,0.6,0.8,1.2,1.3,1.7c-3.2,24.8,0.8,49.8,13.5,83.4l1.5,4.1c11.8,31.4,20.4,54.3,14.2,66.2
	c-3.2-11.1-10-28.9-11.7-33.6c0,0,13.3,40.1,12.2,41.9c-0.5,0.8-1.1,1.2-1.9,1.2c0,0-0.1,0-0.1,0c-3.6,0-9.5-6.3-12.8-10.2
	c0-0.3-1.6-2-1.9-2.4C157.3,453.1,142.5,391.5,151.2,336.8z M147.3,318.1c-2.1,9.9-1.6,16.3,1.4,18.8c0.4,0.3,0.9,0.6,1.4,0.8
	c-3.1,19.6-3.3,38.9-1.3,58.4C140.6,383.6,140.8,322.7,147.3,318.1z M136.7,299c1.8-15.8,3-21,4.5-35.7c-0.6,15.5-0.2,21.1-0.4,36.7
	l-0.2-0.2c-0.6,0.6-2,0.8-3,0.3c-0.6-0.3-0.9-0.7-0.8-1.2L136.7,299z M128.9,329.9c-8.3,2.3-6.4-13-6.4-13c-0.2,0.4-1.8,5.2-4,3.8
	c-2.3-1.5-9.6-18.1-0.6-35.9c0.4,0.3,1.3,1.4,1.3,1.7c-0.4,14.4,9.3,28.6,14.3,32.7c0,0,1.1,0.4,1.2-2.5
	C136.8,320.7,133,328.8,128.9,329.9z M129.6,332c0.2-0.1,1.7-0.9,2.2-1.3c1.4,9.5,5.9,51-0.4,64.8
	C132.4,376.6,131.9,356.2,129.6,332z M106,492.2c0.5-0.5,1-1.1,1.5-1.8c4.7-6.3,9.4-15.8,13.4-28.4c-7.6,66.4,7.2,124.2,16.2,160.7
	c1.1,4.4,2.1,8.4,2.9,12c7.1,30.4,16.7,94.2,10.5,102.9c-0.4,0.5-0.7,0.8-1.2,0.8c0,0,0,0-0.1,0c-2.9,0-10.1-22.5-16.4-42.4
	c-4.6-14.2-9.3-28.9-13.8-40.8C101.5,609.9,103.8,514.8,106,492.2z M97.5,492.1c0.5,0.4,1.1,0.8,1.7,0.9c0.4,0.1,0.8,0.2,1.2,0.2
	c1.4,0,1.7-0.7,3.2-2c-2.1,24-3.9,112.3,11.3,159c-4.5,0.6-7.3-0.4-10.5-3.2c-14.7-12.9-12.2-58.7-11.1-78.3
	c0.1-2.3,0.2-4.3,0.3-5.9c0.3-6.7,1-17.1,1.7-28C96.5,517.5,97.7,499.8,97.5,492.1z M101.9,416.1c8.8-33,19.7-72.8,18-93
	c0.5-0.3,1.3-0.6,1.6-1.2c-0.3,4,0.8,6.5,1.9,7.9c0.9,1.2,2.3,1.6,3.9,1.6c0.4,0,0.7,0,1.1-0.1c5,51.5,1.2,91.4-6,119.1
	c0,0-0.5,1.5-0.6,2.3c-4.3,15.8-9.7,27.5-15.2,34.8c-0.5,0.6-3.1,3.9-6.1,4.7c-3.6-5.9-2.2-18.3-1-24.1c0,0-4.5,15.8-0.5,23.8
	C83.2,470.5,99.8,424.1,101.9,416.1z M113.8,313.4c1.1,4.6,2.9,7.3,3.9,8.1c0.4,0.3,0.8,0.5,1.1,0.6c1.6,20.1-9.3,60.8-18,93.6
	c-2.2,8.2-4.2,15.7-5.9,22.4c-3.1,1.8-5.4,2.1-6.8,1c-3.5-2.7-2.3-13.9,3.2-31.6C97.5,387.7,108.7,344.8,113.8,313.4z M113.8,281.9
	c0.8,1.2,1.9,2.3,3.1,3.3c-4.9,10.9-4.6,18.6-3.7,24.8c-2.4,15.8-6.6,34.9-10.9,52.7c-9-5.9-2.3-29.1,4.1-51.6
	C109.7,299.8,112.8,290.2,113.8,281.9z M17.5,183c68.3-42.2,59.3-90.3,130.9-128c0.4,0,4.5-1.8,6.2-2.3c0,0-4.7,0.6-6.5,1.2
	c-3.7,0.4-7.1-1.4-6.8-2c10.7-0.3,20.4-4.6,30.6-9.2c14.6-6.5,29.7-13.2,50.5-10.4c13.7,1.8,18.8,9.7,19,16.4
	c0.3,8-5.9,14.9-15.1,16.8c-6.9,1.4-7.3,5.3-7.2,6.9c0.3,4.4,5.4,8.7,10.8,9c0.2,0,0.5,0,0.8,0c4.2,0,12.8-2.3,16.5-20.1
	c6.1-29.2,31.4-34.1,41.9-34.9c0.4,0,0.8-0.1,1.3-0.2l0,0c0,0,0,0,0.1,0c0.8-0.2,1.6-0.4,2.3-0.6c0.6-0.2,1.4-0.4,1.8-0.5
	c0,0.5-0.2,1.6-0.4,2.5c-2,9.7-2.3,15.4-0.9,17c0.8,1,1.8,1.4,2.8,1.4c1.5-0.1,2.8-1.3,3.6-2.4c0.8-1.1,3.4-2.2,4.7-2.6
	c1.5,1.7,9.3,12.1-0.4,31.6c-0.9,1.7-1.9,3.6-3,5.4c0,0,1.4-1,2.8-2.5c1.2,1.9,5.6,13.9-5.2,37.8c-0.7,1.6-6,12.4-9.3,11.6
	c-3.5-0.8-4.5-11.5-4.5-11.5c-0.2,28.3,18.5,9.1,24.7-4.7c4.2-9.3,14.8-10.6,21.3-7.4c4.7,2.3,10.6,8.9,12.6,26.9
	c1.9,17.5-0.4,41.6-7,71.7c-0.7-0.9-1-4.3-1-6.6c0,0-1.1,2.3-0.9,4c-0.2,5.7-2.4,15.4-24.2,56.6c-4.2,8-9.3,16.5-14.6,25.5
	c-20.6,34.7-44,73.9-35.4,110c-2.7-1.1-4.2-9.8-4.6-12c-7.2-32,6.9-60.5,17.1-82.5c6.6-14.2,13.6-22.5,12.1-23.2
	c-0.6-0.3-9.8,15.4-13.4,22.6c-18.5,36.9-20.3,62.3-17.9,75.5c0.1,0.7,0.3,4.6-0.1,3.7C242,351.3,258,311,261,301.5
	c-5.3,4.8-9.3,28.4-10.4,26.3c-3.4-6.3-7.4-24.2,15.6-62.8c0,0-16.2,20.4-18.8,43.8c-9.1-16.6,5.7-46.9,19.9-69.5
	c0,0-8.9,8.2-17.5,30.4c-7.3-24,10.1-43.4,13-45.9c-12.8,10-14.2,21.2-14.4,21c-4.1-8.7-1.7-25.5,14.6-34.8
	c-3.1-0.2-10,6.8-10.1,6.5c-3.4-17.4,16.1-23.3,16.8-25.5c-0.3-0.5-9.4,4.7-12.7,8.1c-1.9-0.2-3.5-1-4.3-2.3c-0.8-1.3-1.8-3.3-1-5.5
	c-1.3,0.4-1.4,2.7-0.5,5.1c-1.3,1.5-3.6,1.5-6,0.8c-4.2-1.2-4.2-7.4-4.7-9.5c-0.5,0.4-0.5,3.6-0.1,5.2c-0.9,0.7-3.8,0.7-6-1.5
	c-3.6-3.6-0.7-11,0.9-13.5c-2.1,0.2-3.7,6.7-3.9,9c-9.7-2.8-0.8-17.8,0.6-18.3c-0.6-1.6-4.4,4.4-5.4,6.7c-4.1-5.3,0.9-14.3,3.7-15.8
	c-4.1,0.4-9.9,10.7-4.2,17.3c-1,3.3-2.1,8.3,3.5,12.2c-8,13.2-23.8,20.6-34.4,25.2c-5.1,2.2-8.1,3.6-9.4,4.8
	c-1.6-4-11.5-19.2-10.2-23.7c-3.8,7.7,21.1,31.9,8.7,47.7c-3-20.1-16.5-39.6-14.2-46.3c-1.9,4.8,2.5,13,3.4,15.3
	c7.1,18.7,19,49.8,2.4,60.9c1.3-9.1-0.3-18.8-4.5-30.2c-5.8-15.5-8.1-24-8.6-32.2c0.1,4-1.4,8.2,7.6,32c5.3,14.1,6.9,25.7,3,35.8
	l0,0c0,0,0,0.1,0,0.1c-1.8,4.6-5.3,8.9-11.1,13c0.4-2,0.6-4,0.5-6c-0.1-6.9-1.8-16.9-3.4-27.4c-5.5-37.3-5.8-39.1-4.2-46.6
	c0,0-1.9,5-1.2,12.7c0.9,10.7,2.5,22.9,4.2,34c1.6,10.5,3.2,20.5,3.3,27.3C162,302,147.1,317,142.4,319c-1.2-5.4,1.2-89,1.2-89
	s-10,85.8-10.2,87.6c-5-4.7-12.5-17.8-13.1-31.1c-0.6-13.9,20.1-80.1,20.1-80.1c-5.7,14.5-19.5,62.4-21.1,78
	c-6.8-4.5-8.5-11.7-7.5-20c0,0,0.1-0.4,0.1-0.5c1.6-12.5,8.7-27.5,14.6-38.9c3.4-6.5,5.9-11.1,7.2-14.4c0,0-4.3,7.6-7.6,14.1
	c-5.7,11.1-13.1,25.4-15.1,37.9c-7.4-12.5,7-35.7,15.2-48.3c3.6-5.6,4.8-8.8,4.1-9.7c0.8,3.5-9.1,15.3-11.2,19
	c-3.2,5.4-6.3,11.5-8.5,17.4c-3.1-13.8,3.5-21.8,11.2-31c4.1-4.9,8.2-9.9,11.4-16.3c15.1-42,56.8-80.9,80.1-93.9
	c0,0-12.6,4.2-37.6,28.6c-1.8-0.2-4.9-2.4-5.9-5.4c-0.6-1.7-0.7-5.5,2.1-8.8c-2.5,1.6-2.9,3.2-3.3,4.7c-1.3,0-2.5-1.1-3.1-2.8
	c-1.7-5,2.8-10.7,2.8-10.7c-2.2,0.9-3.4,3.8-4,5.7c-4.2-9.9-4-24.6,18.1-41.5c0.4-0.3,0.8-0.6,1-0.8c0,0-31.5,17-19.4,44.2
	c-0.1,0.8,0,1.6,0.2,2.3l-0.1,0c-5.3,7.5-13.1,13.7-16.1,11.9c-0.7-1.3,1.3-3.3,1.3-3.3c-1.4,1.2-2.2,2.1-2.4,2.9
	c-4.9,6-13.7,16.8-25.9,15.8c4.5-4.6,9.2-10.8,13.8-19.4c0,0-17.1,28.4-35.2,30.5c13.6-13.7,19-29.6,19-29.6
	c-6.2,13.2-13.6,22.9-21,29.8c0,0,0,0,0,0l0,0C82,168.4,73,172.5,68.7,170.8c6.8-4.1,15.3-10.9,22.8-18.8c5-5.3,9.6-11.1,12.8-16.8
	c1.6-2.8-7.7,10-12.3,14.9c-17.5,18.5-42.8,33.3-49.2,30c41.9-21.4,54.8-51.6,55.9-53.8C93,137.1,85.3,146.8,76.8,155
	c-0.1,0.1-0.3,0.3-0.4,0.4c-20.1,19.4-43.9,30.3-50.3,27.4c20-5.3,54.8-37.3,65.1-63.1C69.5,160.7,28.7,187.1,17.5,183z"/>
<path fill="#767676" d="M188.1,427.9"/>
<path fill="#767676" d="M188.5,427.7C188.5,427.7,188.5,427.8,188.5,427.7C188.5,427.8,188.5,427.7,188.5,427.7z"/>
<path fill="#767676" d="M187.8,427.8"/>
<path fill="#767676" d="M188.5,427.7"/>
<g>
	<circle fill="#FFFFFF" cx="286.6" cy="48.4" r="5"/>
	<path fill="#93868B" stroke="#FFFFFF" stroke-miterlimit="10" d="M284.6,48.4c-1.6-3.4-1-5.6,2.1-5.6c3.1,0,5.6,2.5,5.6,5.6
		c0,3.1-2.5,5.6-5.6,5.6C283.6,54,285.9,51.2,284.6,48.4z"/>
</g>
</svg>
